STARTFONT 2.1
FONT -slavfox-CozetteHiDpi-Medium-R-Normal--52-370-100-100-M-244-ISO10646-1
SIZE 48 75 75
FONTBOUNDINGBOX 68 112 -20 -12
COMMENT "Generated by fontforge, http://fontforge.sourceforge.net"
COMMENT "This font was automatically resized by bdfresize-1.5"
COMMENT "mag_x = 4/1, mag_y = 4/1, blackness = 4"
COMMENT "(c) 2020-2023 Slavfox"
STARTPROPERTIES 40
FOUNDRY "slavfox"
FAMILY_NAME "CozetteHiDpi"
WEIGHT_NAME "Medium"
SLANT "R"
SETWIDTH_NAME "Normal"
ADD_STYLE_NAME ""
PIXEL_SIZE 52
POINT_SIZE 370
RESOLUTION_X 100
RESOLUTION_Y 100
SPACING "M"
AVERAGE_WIDTH 240
CHARSET_REGISTRY "ISO10646"
CHARSET_ENCODING "1"
FONTNAME_REGISTRY ""
FONT_NAME "CozetteHiDpi-52"
FACE_NAME "Cozette"
COPYRIGHT "(c) 2020-2023 Slavfox"
FONT_VERSION "1.222"
FONT_ASCENT 40
FONT_DESCENT 12
UNDERLINE_POSITION -19
UNDERLINE_THICKNESS 13
X_HEIGHT 5
CAP_HEIGHT 7
DEFAULT_CHAR 0
RAW_ASCENT 769
RAW_DESCENT 230
NORM_SPACE 6
RELATIVE_WEIGHT 50
RELATIVE_SETWIDTH 50
SUPERSCRIPT_X 0
SUPERSCRIPT_Y 2
SUPERSCRIPT_SIZE 2
SUBSCRIPT_X 0
SUBSCRIPT_Y 2
SUBSCRIPT_SIZE 2
FIGURE_WIDTH 6
AVG_LOWERCASE_WIDTH 60
AVG_UPPERCASE_WIDTH 60
ENDPROPERTIES
CHARS 3062
STARTCHAR uni0000
ENCODING 0
SWIDTH 2000 0
DWIDTH 24 0
BBX 28 52 0 -12
BITMAP
F0F0F0F0
F0F0F0F0
F0F0F0F0
F0F0F0F0
00000000
00000000
00000000
00000000
F00000F0
F00000F0
F00000F0
F00000F0
00000000
00000000
00000000
00000000
F00000F0
F00000F0
F00000F0
F00000F0
00000000
00000000
00000000
00000000
F00000F0
F00000F0
F00000F0
F00000F0
00000000
00000000
00000000
00000000
F00000F0
F00000F0
F00000F0
F00000F0
00000000
00000000
00000000
00000000
F00000F0
F00000F0
F00000F0
F00000F0
00000000
00000000
00000000
00000000
F0F0F0F0
F0F0F0F0
F0F0F0F0
F0F0F0F0
ENDCHAR
STARTCHAR uni0001
ENCODING 1
SWIDTH 2000 0
DWIDTH 24 0
BBX 20 24 4 4
BITMAP
FFFFF0
FFFFF0
FFFFF0
FFFFF0
F000F0
F000F0
F000F0
F000F0
F000F0
F000F0
F000F0
F000F0
F000F0
F000F0
F000F0
F000F0
F000F0
F000F0
F000F0
F000F0
FFFFF0
FFFFF0
FFFFF0
FFFFF0
ENDCHAR
STARTCHAR uni0002
ENCODING 2
SWIDTH 2000 0
DWIDTH 24 0
BBX 20 24 4 4
BITMAP
FFFFF0
FFFFF0
FFFFF0
FFFFF0
F000F0
F000F0
F000F0
F000F0
F000F0
F000F0
F000F0
F000F0
F000F0
F000F0
F000F0
F000F0
F000F0
F000F0
F000F0
F000F0
FFFFF0
FFFFF0
FFFFF0
FFFFF0
ENDCHAR
STARTCHAR uni0003
ENCODING 3
SWIDTH 2000 0
DWIDTH 24 0
BBX 20 24 4 4
BITMAP
FFFFF0
FFFFF0
FFFFF0
FFFFF0
F000F0
F000F0
F000F0
F000F0
F000F0
F000F0
F000F0
F000F0
F000F0
F000F0
F000F0
F000F0
F000F0
F000F0
F000F0
F000F0
FFFFF0
FFFFF0
FFFFF0
FFFFF0
ENDCHAR
STARTCHAR uni0004
ENCODING 4
SWIDTH 2000 0
DWIDTH 24 0
BBX 20 24 4 4
BITMAP
FFFFF0
FFFFF0
FFFFF0
FFFFF0
F000F0
F000F0
F000F0
F000F0
F000F0
F000F0
F000F0
F000F0
F000F0
F000F0
F000F0
F000F0
F000F0
F000F0
F000F0
F000F0
FFFFF0
FFFFF0
FFFFF0
FFFFF0
ENDCHAR
STARTCHAR uni0005
ENCODING 5
SWIDTH 2000 0
DWIDTH 24 0
BBX 20 24 4 4
BITMAP
FFFFF0
FFFFF0
FFFFF0
FFFFF0
F000F0
F000F0
F000F0
F000F0
F000F0
F000F0
F000F0
F000F0
F000F0
F000F0
F000F0
F000F0
F000F0
F000F0
F000F0
F000F0
FFFFF0
FFFFF0
FFFFF0
FFFFF0
ENDCHAR
STARTCHAR uni0006
ENCODING 6
SWIDTH 2000 0
DWIDTH 24 0
BBX 20 24 4 4
BITMAP
FFFFF0
FFFFF0
FFFFF0
FFFFF0
F000F0
F000F0
F000F0
F000F0
F000F0
F000F0
F000F0
F000F0
F000F0
F000F0
F000F0
F000F0
F000F0
F000F0
F000F0
F000F0
FFFFF0
FFFFF0
FFFFF0
FFFFF0
ENDCHAR
STARTCHAR uni0007
ENCODING 7
SWIDTH 2000 0
DWIDTH 24 0
BBX 20 24 4 4
BITMAP
FFFFF0
FFFFF0
FFFFF0
FFFFF0
F000F0
F000F0
F000F0
F000F0
F000F0
F000F0
F000F0
F000F0
F000F0
F000F0
F000F0
F000F0
F000F0
F000F0
F000F0
F000F0
FFFFF0
FFFFF0
FFFFF0
FFFFF0
ENDCHAR
STARTCHAR uni0008
ENCODING 8
SWIDTH 2000 0
DWIDTH 24 0
BBX 20 24 4 4
BITMAP
FFFFF0
FFFFF0
FFFFF0
FFFFF0
F000F0
F000F0
F000F0
F000F0
F000F0
F000F0
F000F0
F000F0
F000F0
F000F0
F000F0
F000F0
F000F0
F000F0
F000F0
F000F0
FFFFF0
FFFFF0
FFFFF0
FFFFF0
ENDCHAR
STARTCHAR uni0009
ENCODING 9
SWIDTH 2000 0
DWIDTH 28 0
BBX 4 4 0 0
BITMAP
F0
F0
F0
F0
ENDCHAR
STARTCHAR uni000A
ENCODING 10
SWIDTH 2000 0
DWIDTH 24 0
BBX 20 24 4 4
BITMAP
FFFFF0
FFFFF0
FFFFF0
FFFFF0
F000F0
F000F0
F000F0
F000F0
F000F0
F000F0
F000F0
F000F0
F000F0
F000F0
F000F0
F000F0
F000F0
F000F0
F000F0
F000F0
FFFFF0
FFFFF0
FFFFF0
FFFFF0
ENDCHAR
STARTCHAR uni000B
ENCODING 11
SWIDTH 2000 0
DWIDTH 24 0
BBX 20 24 4 4
BITMAP
FFFFF0
FFFFF0
FFFFF0
FFFFF0
F000F0
F000F0
F000F0
F000F0
F000F0
F000F0
F000F0
F000F0
F000F0
F000F0
F000F0
F000F0
F000F0
F000F0
F000F0
F000F0
FFFFF0
FFFFF0
FFFFF0
FFFFF0
ENDCHAR
STARTCHAR uni000C
ENCODING 12
SWIDTH 2000 0
DWIDTH 24 0
BBX 20 24 4 4
BITMAP
FFFFF0
FFFFF0
FFFFF0
FFFFF0
F000F0
F000F0
F000F0
F000F0
F000F0
F000F0
F000F0
F000F0
F000F0
F000F0
F000F0
F000F0
F000F0
F000F0
F000F0
F000F0
FFFFF0
FFFFF0
FFFFF0
FFFFF0
ENDCHAR
STARTCHAR uni000D
ENCODING 13
SWIDTH 2000 0
DWIDTH 24 0
BBX 20 24 4 4
BITMAP
FFFFF0
FFFFF0
FFFFF0
FFFFF0
F000F0
F000F0
F000F0
F000F0
F000F0
F000F0
F000F0
F000F0
F000F0
F000F0
F000F0
F000F0
F000F0
F000F0
F000F0
F000F0
FFFFF0
FFFFF0
FFFFF0
FFFFF0
ENDCHAR
STARTCHAR uni000E
ENCODING 14
SWIDTH 2000 0
DWIDTH 24 0
BBX 16 28 0 12
BITMAP
000F
000F
000F
000F
000F
000F
000F
000F
000F
000F
000F
000F
000F
000F
000F
000F
000F
000F
000F
000F
000F
000F
000F
000F
FFFF
FFFF
FFFF
FFFF
ENDCHAR
STARTCHAR uni000F
ENCODING 15
SWIDTH 2000 0
DWIDTH 24 0
BBX 16 28 12 12
BITMAP
F000
F000
F000
F000
F000
F000
F000
F000
F000
F000
F000
F000
F000
F000
F000
F000
F000
F000
F000
F000
F000
F000
F000
F000
FFFF
FFFF
FFFF
FFFF
ENDCHAR
STARTCHAR uni0010
ENCODING 16
SWIDTH 2000 0
DWIDTH 24 0
BBX 16 28 12 -12
BITMAP
FFFF
FFFF
FFFF
FFFF
F000
F000
F000
F000
F000
F000
F000
F000
F000
F000
F000
F000
F000
F000
F000
F000
F000
F000
F000
F000
F000
F000
F000
F000
ENDCHAR
STARTCHAR uni0011
ENCODING 17
SWIDTH 2000 0
DWIDTH 24 0
BBX 16 28 0 -12
BITMAP
FFFF
FFFF
FFFF
FFFF
000F
000F
000F
000F
000F
000F
000F
000F
000F
000F
000F
000F
000F
000F
000F
000F
000F
000F
000F
000F
000F
000F
000F
000F
ENDCHAR
STARTCHAR uni0012
ENCODING 18
SWIDTH 2000 0
DWIDTH 24 0
BBX 28 4 0 12
BITMAP
FFFFFFF0
FFFFFFF0
FFFFFFF0
FFFFFFF0
ENDCHAR
STARTCHAR uni0013
ENCODING 19
SWIDTH 2000 0
DWIDTH 24 0
BBX 4 52 12 -12
BITMAP
F0
F0
F0
F0
F0
F0
F0
F0
F0
F0
F0
F0
F0
F0
F0
F0
F0
F0
F0
F0
F0
F0
F0
F0
F0
F0
F0
F0
F0
F0
F0
F0
F0
F0
F0
F0
F0
F0
F0
F0
F0
F0
F0
F0
F0
F0
F0
F0
F0
F0
F0
F0
ENDCHAR
STARTCHAR uni0014
ENCODING 20
SWIDTH 2000 0
DWIDTH 24 0
BBX 16 52 0 -12
BITMAP
000F
000F
000F
000F
000F
000F
000F
000F
000F
000F
000F
000F
000F
000F
000F
000F
000F
000F
000F
000F
000F
000F
000F
000F
FFFF
FFFF
FFFF
FFFF
000F
000F
000F
000F
000F
000F
000F
000F
000F
000F
000F
000F
000F
000F
000F
000F
000F
000F
000F
000F
000F
000F
000F
000F
ENDCHAR
STARTCHAR uni0015
ENCODING 21
SWIDTH 2000 0
DWIDTH 24 0
BBX 28 28 0 12
BITMAP
000F0000
000F0000
000F0000
000F0000
000F0000
000F0000
000F0000
000F0000
000F0000
000F0000
000F0000
000F0000
000F0000
000F0000
000F0000
000F0000
000F0000
000F0000
000F0000
000F0000
000F0000
000F0000
000F0000
000F0000
FFFFFFF0
FFFFFFF0
FFFFFFF0
FFFFFFF0
ENDCHAR
STARTCHAR uni0016
ENCODING 22
SWIDTH 2000 0
DWIDTH 24 0
BBX 16 52 12 -12
BITMAP
F000
F000
F000
F000
F000
F000
F000
F000
F000
F000
F000
F000
F000
F000
F000
F000
F000
F000
F000
F000
F000
F000
F000
F000
FFFF
FFFF
FFFF
FFFF
F000
F000
F000
F000
F000
F000
F000
F000
F000
F000
F000
F000
F000
F000
F000
F000
F000
F000
F000
F000
F000
F000
F000
F000
ENDCHAR
STARTCHAR uni0017
ENCODING 23
SWIDTH 2000 0
DWIDTH 24 0
BBX 28 28 0 -12
BITMAP
FFFFFFF0
FFFFFFF0
FFFFFFF0
FFFFFFF0
000F0000
000F0000
000F0000
000F0000
000F0000
000F0000
000F0000
000F0000
000F0000
000F0000
000F0000
000F0000
000F0000
000F0000
000F0000
000F0000
000F0000
000F0000
000F0000
000F0000
000F0000
000F0000
000F0000
000F0000
ENDCHAR
STARTCHAR uni0018
ENCODING 24
SWIDTH 2000 0
DWIDTH 24 0
BBX 28 52 0 -12
BITMAP
000F0000
000F0000
000F0000
000F0000
000F0000
000F0000
000F0000
000F0000
000F0000
000F0000
000F0000
000F0000
000F0000
000F0000
000F0000
000F0000
000F0000
000F0000
000F0000
000F0000
000F0000
000F0000
000F0000
000F0000
FFFFFFF0
FFFFFFF0
FFFFFFF0
FFFFFFF0
000F0000
000F0000
000F0000
000F0000
000F0000
000F0000
000F0000
000F0000
000F0000
000F0000
000F0000
000F0000
000F0000
000F0000
000F0000
000F0000
000F0000
000F0000
000F0000
000F0000
000F0000
000F0000
000F0000
000F0000
ENDCHAR
STARTCHAR uni0019
ENCODING 25
SWIDTH 2000 0
DWIDTH 24 0
BBX 28 52 0 -12
BITMAP
F0F0F0F0
F0F0F0F0
F0F0F0F0
F0F0F0F0
0F0F0F00
0F0F0F00
0F0F0F00
0F0F0F00
F0F0F0F0
F0F0F0F0
F0F0F0F0
F0F0F0F0
0F0F0F00
0F0F0F00
0F0F0F00
0F0F0F00
F0F0F0F0
F0F0F0F0
F0F0F0F0
F0F0F0F0
0F0F0F00
0F0F0F00
0F0F0F00
0F0F0F00
F0F0F0F0
F0F0F0F0
F0F0F0F0
F0F0F0F0
0F0F0F00
0F0F0F00
0F0F0F00
0F0F0F00
F0F0F0F0
F0F0F0F0
F0F0F0F0
F0F0F0F0
0F0F0F00
0F0F0F00
0F0F0F00
0F0F0F00
F0F0F0F0
F0F0F0F0
F0F0F0F0
F0F0F0F0
0F0F0F00
0F0F0F00
0F0F0F00
0F0F0F00
F0F0F0F0
F0F0F0F0
F0F0F0F0
F0F0F0F0
ENDCHAR
STARTCHAR uni001A
ENCODING 26
SWIDTH 2000 0
DWIDTH 24 0
BBX 20 20 4 4
BITMAP
000F00
000F00
000F00
000F00
FFFFF0
FFFFF0
FFFFF0
FFFFF0
00F000
00F000
00F000
00F000
FFFFF0
FFFFF0
FFFFF0
FFFFF0
0F0000
0F0000
0F0000
0F0000
ENDCHAR
STARTCHAR uni001B
ENCODING 27
SWIDTH 2000 0
DWIDTH 24 0
BBX 20 28 4 0
BITMAP
000FF0
000FF0
000FF0
000FF0
0FF000
0FF000
0FF000
0FF000
F00000
F00000
F00000
F00000
0FF000
0FF000
0FF000
0FF000
000FF0
000FF0
000FF0
000FF0
000000
000000
000000
000000
FFFFF0
FFFFF0
FFFFF0
FFFFF0
ENDCHAR
STARTCHAR uni001C
ENCODING 28
SWIDTH 2000 0
DWIDTH 24 0
BBX 20 24 4 0
BITMAP
FFFFF0
FFFFF0
FFFFF0
FFFFF0
0F0F00
0F0F00
0F0F00
0F0F00
0F0F00
0F0F00
0F0F00
0F0F00
0F0F00
0F0F00
0F0F00
0F0F00
0F0F00
0F0F00
0F0F00
0F0F00
0F0F00
0F0F00
0F0F00
0F0F00
ENDCHAR
STARTCHAR uni001D
ENCODING 29
SWIDTH 2000 0
DWIDTH 24 0
BBX 20 28 4 0
BITMAP
FF0000
FF0000
FF0000
FF0000
00FF00
00FF00
00FF00
00FF00
0000F0
0000F0
0000F0
0000F0
00FF00
00FF00
00FF00
00FF00
FF0000
FF0000
FF0000
FF0000
000000
000000
000000
000000
FFFFF0
FFFFF0
FFFFF0
FFFFF0
ENDCHAR
STARTCHAR uni001E
ENCODING 30
SWIDTH 2000 0
DWIDTH 24 0
BBX 20 32 4 0
BITMAP
00FF00
00FF00
00FF00
00FF00
0F0000
0F0000
0F0000
0F0000
0F0000
0F0000
0F0000
0F0000
FFFF00
FFFF00
FFFF00
FFFF00
0F0000
0F0000
0F0000
0F0000
0F0000
0F0000
0F0000
0F0000
F00000
F00000
F00000
F00000
FFFFF0
FFFFF0
FFFFF0
FFFFF0
ENDCHAR
STARTCHAR uni001F
ENCODING 31
SWIDTH 2000 0
DWIDTH 24 0
BBX 12 4 8 12
BITMAP
FFF0
FFF0
FFF0
FFF0
ENDCHAR
STARTCHAR space
ENCODING 32
SWIDTH 2000 0
DWIDTH 24 0
BBX 4 4 24 -4
BITMAP
F0
F0
F0
F0
ENDCHAR
STARTCHAR exclam
ENCODING 33
SWIDTH 2000 0
DWIDTH 24 0
BBX 4 32 12 0
BITMAP
F0
F0
F0
F0
F0
F0
F0
F0
F0
F0
F0
F0
F0
F0
F0
F0
F0
F0
F0
F0
F0
F0
F0
F0
00
00
00
00
F0
F0
F0
F0
ENDCHAR
STARTCHAR quotedbl
ENCODING 34
SWIDTH 2000 0
DWIDTH 24 0
BBX 12 12 8 24
BITMAP
F0F0
F0F0
F0F0
F0F0
F0F0
F0F0
F0F0
F0F0
F0F0
F0F0
F0F0
F0F0
ENDCHAR
STARTCHAR numbersign
ENCODING 35
SWIDTH 2000 0
DWIDTH 24 0
BBX 20 32 4 0
BITMAP
0F0F00
0F0F00
0F0F00
0F0F00
0F0F00
0F0F00
0F0F00
0F0F00
FFFFF0
FFFFF0
FFFFF0
FFFFF0
0F0F00
0F0F00
0F0F00
0F0F00
0F0F00
0F0F00
0F0F00
0F0F00
FFFFF0
FFFFF0
FFFFF0
FFFFF0
0F0F00
0F0F00
0F0F00
0F0F00
0F0F00
0F0F00
0F0F00
0F0F00
ENDCHAR
STARTCHAR dollar
ENCODING 36
SWIDTH 2000 0
DWIDTH 24 0
BBX 20 40 4 -4
BITMAP
00F000
00F000
00F000
00F000
0FFF00
0FFF00
0FFF00
0FFF00
F0F0F0
F0F0F0
F0F0F0
F0F0F0
F0F000
F0F000
F0F000
F0F000
0FFF00
0FFF00
0FFF00
0FFF00
00F0F0
00F0F0
00F0F0
00F0F0
00F0F0
00F0F0
00F0F0
00F0F0
F0F0F0
F0F0F0
F0F0F0
F0F0F0
0FFF00
0FFF00
0FFF00
0FFF00
00F000
00F000
00F000
00F000
ENDCHAR
STARTCHAR percent
ENCODING 37
SWIDTH 2000 0
DWIDTH 24 0
BBX 20 36 4 0
BITMAP
0F0000
0F0000
0F0000
0F0000
F0F000
F0F000
F0F000
F0F000
0F00F0
0F00F0
0F00F0
0F00F0
000F00
000F00
000F00
000F00
00F000
00F000
00F000
00F000
0F0000
0F0000
0F0000
0F0000
F00F00
F00F00
F00F00
F00F00
00F0F0
00F0F0
00F0F0
00F0F0
000F00
000F00
000F00
000F00
ENDCHAR
STARTCHAR ampersand
ENCODING 38
SWIDTH 2000 0
DWIDTH 24 0
BBX 20 36 4 0
BITMAP
00F000
00F000
00F000
00F000
0F0F00
0F0F00
0F0F00
0F0F00
0F0F00
0F0F00
0F0F00
0F0F00
00F000
00F000
00F000
00F000
0FF0F0
0FF0F0
0FF0F0
0FF0F0
F00F00
F00F00
F00F00
F00F00
F00F00
F00F00
F00F00
F00F00
F00F00
F00F00
F00F00
F00F00
0FF0F0
0FF0F0
0FF0F0
0FF0F0
ENDCHAR
STARTCHAR quotesingle
ENCODING 39
SWIDTH 2000 0
DWIDTH 24 0
BBX 4 12 12 24
BITMAP
F0
F0
F0
F0
F0
F0
F0
F0
F0
F0
F0
F0
ENDCHAR
STARTCHAR parenleft
ENCODING 40
SWIDTH 2000 0
DWIDTH 24 0
BBX 12 44 8 -8
BITMAP
00F0
00F0
00F0
00F0
0F00
0F00
0F00
0F00
0F00
0F00
0F00
0F00
F000
F000
F000
F000
F000
F000
F000
F000
F000
F000
F000
F000
F000
F000
F000
F000
F000
F000
F000
F000
0F00
0F00
0F00
0F00
0F00
0F00
0F00
0F00
00F0
00F0
00F0
00F0
ENDCHAR
STARTCHAR parenright
ENCODING 41
SWIDTH 2000 0
DWIDTH 24 0
BBX 12 44 8 -8
BITMAP
F000
F000
F000
F000
0F00
0F00
0F00
0F00
0F00
0F00
0F00
0F00
00F0
00F0
00F0
00F0
00F0
00F0
00F0
00F0
00F0
00F0
00F0
00F0
00F0
00F0
00F0
00F0
00F0
00F0
00F0
00F0
0F00
0F00
0F00
0F00
0F00
0F00
0F00
0F00
F000
F000
F000
F000
ENDCHAR
STARTCHAR asterisk
ENCODING 42
SWIDTH 2000 0
DWIDTH 24 0
BBX 20 20 4 4
BITMAP
0F0F00
0F0F00
0F0F00
0F0F00
00F000
00F000
00F000
00F000
FFFFF0
FFFFF0
FFFFF0
FFFFF0
00F000
00F000
00F000
00F000
0F0F00
0F0F00
0F0F00
0F0F00
ENDCHAR
STARTCHAR plus
ENCODING 43
SWIDTH 2000 0
DWIDTH 24 0
BBX 20 20 4 4
BITMAP
00F000
00F000
00F000
00F000
00F000
00F000
00F000
00F000
FFFFF0
FFFFF0
FFFFF0
FFFFF0
00F000
00F000
00F000
00F000
00F000
00F000
00F000
00F000
ENDCHAR
STARTCHAR comma
ENCODING 44
SWIDTH 2000 0
DWIDTH 24 0
BBX 8 16 8 -8
BITMAP
FF
FF
FF
FF
FF
FF
FF
FF
0F
0F
0F
0F
F0
F0
F0
F0
ENDCHAR
STARTCHAR hyphen
ENCODING 45
SWIDTH 2000 0
DWIDTH 24 0
BBX 20 4 4 12
BITMAP
FFFFF0
FFFFF0
FFFFF0
FFFFF0
ENDCHAR
STARTCHAR period
ENCODING 46
SWIDTH 2000 0
DWIDTH 24 0
BBX 8 8 8 0
BITMAP
FF
FF
FF
FF
FF
FF
FF
FF
ENDCHAR
STARTCHAR slash
ENCODING 47
SWIDTH 2000 0
DWIDTH 24 0
BBX 20 40 4 -4
BITMAP
0000F0
0000F0
0000F0
0000F0
0000F0
0000F0
0000F0
0000F0
000F00
000F00
000F00
000F00
000F00
000F00
000F00
000F00
00F000
00F000
00F000
00F000
00F000
00F000
00F000
00F000
0F0000
0F0000
0F0000
0F0000
0F0000
0F0000
0F0000
0F0000
F00000
F00000
F00000
F00000
F00000
F00000
F00000
F00000
ENDCHAR
STARTCHAR zero
ENCODING 48
SWIDTH 2000 0
DWIDTH 24 0
BBX 20 32 4 0
BITMAP
0FFF00
0FFF00
0FFF00
0FFF00
F000F0
F000F0
F000F0
F000F0
F000F0
F000F0
F000F0
F000F0
F0F0F0
F0F0F0
F0F0F0
F0F0F0
F0F0F0
F0F0F0
F0F0F0
F0F0F0
F000F0
F000F0
F000F0
F000F0
F000F0
F000F0
F000F0
F000F0
0FFF00
0FFF00
0FFF00
0FFF00
ENDCHAR
STARTCHAR one
ENCODING 49
SWIDTH 2000 0
DWIDTH 24 0
BBX 20 32 4 0
BITMAP
00F000
00F000
00F000
00F000
0FF000
0FF000
0FF000
0FF000
F0F000
F0F000
F0F000
F0F000
00F000
00F000
00F000
00F000
00F000
00F000
00F000
00F000
00F000
00F000
00F000
00F000
00F000
00F000
00F000
00F000
FFFFF0
FFFFF0
FFFFF0
FFFFF0
ENDCHAR
STARTCHAR two
ENCODING 50
SWIDTH 2000 0
DWIDTH 24 0
BBX 20 32 4 0
BITMAP
0FFF00
0FFF00
0FFF00
0FFF00
F000F0
F000F0
F000F0
F000F0
0000F0
0000F0
0000F0
0000F0
000F00
000F00
000F00
000F00
00F000
00F000
00F000
00F000
0F0000
0F0000
0F0000
0F0000
F00000
F00000
F00000
F00000
FFFFF0
FFFFF0
FFFFF0
FFFFF0
ENDCHAR
STARTCHAR three
ENCODING 51
SWIDTH 2000 0
DWIDTH 24 0
BBX 20 32 4 0
BITMAP
0FFF00
0FFF00
0FFF00
0FFF00
F000F0
F000F0
F000F0
F000F0
0000F0
0000F0
0000F0
0000F0
00FF00
00FF00
00FF00
00FF00
0000F0
0000F0
0000F0
0000F0
0000F0
0000F0
0000F0
0000F0
F000F0
F000F0
F000F0
F000F0
0FFF00
0FFF00
0FFF00
0FFF00
ENDCHAR
STARTCHAR four
ENCODING 52
SWIDTH 2000 0
DWIDTH 24 0
BBX 24 32 4 0
BITMAP
0000F0
0000F0
0000F0
0000F0
000FF0
000FF0
000FF0
000FF0
00F0F0
00F0F0
00F0F0
00F0F0
0F00F0
0F00F0
0F00F0
0F00F0
F000F0
F000F0
F000F0
F000F0
FFFFFF
FFFFFF
FFFFFF
FFFFFF
0000F0
0000F0
0000F0
0000F0
0000F0
0000F0
0000F0
0000F0
ENDCHAR
STARTCHAR five
ENCODING 53
SWIDTH 2000 0
DWIDTH 24 0
BBX 20 32 4 0
BITMAP
FFFFF0
FFFFF0
FFFFF0
FFFFF0
F00000
F00000
F00000
F00000
F00000
F00000
F00000
F00000
FFFF00
FFFF00
FFFF00
FFFF00
0000F0
0000F0
0000F0
0000F0
0000F0
0000F0
0000F0
0000F0
F000F0
F000F0
F000F0
F000F0
0FFF00
0FFF00
0FFF00
0FFF00
ENDCHAR
STARTCHAR six
ENCODING 54
SWIDTH 2000 0
DWIDTH 24 0
BBX 20 32 4 0
BITMAP
00FF00
00FF00
00FF00
00FF00
0F0000
0F0000
0F0000
0F0000
F00000
F00000
F00000
F00000
FFFF00
FFFF00
FFFF00
FFFF00
F000F0
F000F0
F000F0
F000F0
F000F0
F000F0
F000F0
F000F0
F000F0
F000F0
F000F0
F000F0
0FFF00
0FFF00
0FFF00
0FFF00
ENDCHAR
STARTCHAR seven
ENCODING 55
SWIDTH 2000 0
DWIDTH 24 0
BBX 20 32 4 0
BITMAP
FFFFF0
FFFFF0
FFFFF0
FFFFF0
0000F0
0000F0
0000F0
0000F0
000F00
000F00
000F00
000F00
000F00
000F00
000F00
000F00
00F000
00F000
00F000
00F000
00F000
00F000
00F000
00F000
0F0000
0F0000
0F0000
0F0000
0F0000
0F0000
0F0000
0F0000
ENDCHAR
STARTCHAR eight
ENCODING 56
SWIDTH 2000 0
DWIDTH 24 0
BBX 20 32 4 0
BITMAP
0FFF00
0FFF00
0FFF00
0FFF00
F000F0
F000F0
F000F0
F000F0
F000F0
F000F0
F000F0
F000F0
0FFF00
0FFF00
0FFF00
0FFF00
F000F0
F000F0
F000F0
F000F0
F000F0
F000F0
F000F0
F000F0
F000F0
F000F0
F000F0
F000F0
0FFF00
0FFF00
0FFF00
0FFF00
ENDCHAR
STARTCHAR nine
ENCODING 57
SWIDTH 2000 0
DWIDTH 24 0
BBX 20 32 4 0
BITMAP
0FFF00
0FFF00
0FFF00
0FFF00
F000F0
F000F0
F000F0
F000F0
F000F0
F000F0
F000F0
F000F0
F000F0
F000F0
F000F0
F000F0
0FFFF0
0FFFF0
0FFFF0
0FFFF0
0000F0
0000F0
0000F0
0000F0
000F00
000F00
000F00
000F00
0FF000
0FF000
0FF000
0FF000
ENDCHAR
STARTCHAR colon
ENCODING 58
SWIDTH 2000 0
DWIDTH 24 0
BBX 8 24 8 0
BITMAP
FF
FF
FF
FF
FF
FF
FF
FF
00
00
00
00
00
00
00
00
FF
FF
FF
FF
FF
FF
FF
FF
ENDCHAR
STARTCHAR semicolon
ENCODING 59
SWIDTH 2000 0
DWIDTH 24 0
BBX 8 32 8 -8
BITMAP
FF
FF
FF
FF
FF
FF
FF
FF
00
00
00
00
00
00
00
00
FF
FF
FF
FF
FF
FF
FF
FF
0F
0F
0F
0F
F0
F0
F0
F0
ENDCHAR
STARTCHAR less
ENCODING 60
SWIDTH 2000 0
DWIDTH 24 0
BBX 16 28 8 0
BITMAP
000F
000F
000F
000F
00F0
00F0
00F0
00F0
0F00
0F00
0F00
0F00
F000
F000
F000
F000
0F00
0F00
0F00
0F00
00F0
00F0
00F0
00F0
000F
000F
000F
000F
ENDCHAR
STARTCHAR equal
ENCODING 61
SWIDTH 2000 0
DWIDTH 24 0
BBX 20 12 4 8
BITMAP
FFFFF0
FFFFF0
FFFFF0
FFFFF0
000000
000000
000000
000000
FFFFF0
FFFFF0
FFFFF0
FFFFF0
ENDCHAR
STARTCHAR greater
ENCODING 62
SWIDTH 2000 0
DWIDTH 24 0
BBX 16 28 4 0
BITMAP
F000
F000
F000
F000
0F00
0F00
0F00
0F00
00F0
00F0
00F0
00F0
000F
000F
000F
000F
00F0
00F0
00F0
00F0
0F00
0F00
0F00
0F00
F000
F000
F000
F000
ENDCHAR
STARTCHAR question
ENCODING 63
SWIDTH 2000 0
DWIDTH 24 0
BBX 20 32 4 0
BITMAP
0FFF00
0FFF00
0FFF00
0FFF00
F000F0
F000F0
F000F0
F000F0
0000F0
0000F0
0000F0
0000F0
000F00
000F00
000F00
000F00
00F000
00F000
00F000
00F000
00F000
00F000
00F000
00F000
000000
000000
000000
000000
00F000
00F000
00F000
00F000
ENDCHAR
STARTCHAR at
ENCODING 64
SWIDTH 2000 0
DWIDTH 24 0
BBX 20 32 4 0
BITMAP
0FFF00
0FFF00
0FFF00
0FFF00
F000F0
F000F0
F000F0
F000F0
F000F0
F000F0
F000F0
F000F0
F0FFF0
F0FFF0
F0FFF0
F0FFF0
F0F0F0
F0F0F0
F0F0F0
F0F0F0
F0FFF0
F0FFF0
F0FFF0
F0FFF0
F00000
F00000
F00000
F00000
0FFFF0
0FFFF0
0FFFF0
0FFFF0
ENDCHAR
STARTCHAR A
ENCODING 65
SWIDTH 2000 0
DWIDTH 24 0
BBX 20 32 4 0
BITMAP
0FFF00
0FFF00
0FFF00
0FFF00
F000F0
F000F0
F000F0
F000F0
F000F0
F000F0
F000F0
F000F0
F000F0
F000F0
F000F0
F000F0
FFFFF0
FFFFF0
FFFFF0
FFFFF0
F000F0
F000F0
F000F0
F000F0
F000F0
F000F0
F000F0
F000F0
F000F0
F000F0
F000F0
F000F0
ENDCHAR
STARTCHAR B
ENCODING 66
SWIDTH 2000 0
DWIDTH 24 0
BBX 20 32 4 0
BITMAP
FFFF00
FFFF00
FFFF00
FFFF00
F000F0
F000F0
F000F0
F000F0
F000F0
F000F0
F000F0
F000F0
FFFF00
FFFF00
FFFF00
FFFF00
F000F0
F000F0
F000F0
F000F0
F000F0
F000F0
F000F0
F000F0
F000F0
F000F0
F000F0
F000F0
FFFF00
FFFF00
FFFF00
FFFF00
ENDCHAR
STARTCHAR C
ENCODING 67
SWIDTH 2000 0
DWIDTH 24 0
BBX 20 32 4 0
BITMAP
0FFF00
0FFF00
0FFF00
0FFF00
F000F0
F000F0
F000F0
F000F0
F00000
F00000
F00000
F00000
F00000
F00000
F00000
F00000
F00000
F00000
F00000
F00000
F00000
F00000
F00000
F00000
F000F0
F000F0
F000F0
F000F0
0FFF00
0FFF00
0FFF00
0FFF00
ENDCHAR
STARTCHAR D
ENCODING 68
SWIDTH 2000 0
DWIDTH 24 0
BBX 20 32 4 0
BITMAP
FFF000
FFF000
FFF000
FFF000
F00F00
F00F00
F00F00
F00F00
F000F0
F000F0
F000F0
F000F0
F000F0
F000F0
F000F0
F000F0
F000F0
F000F0
F000F0
F000F0
F000F0
F000F0
F000F0
F000F0
F00F00
F00F00
F00F00
F00F00
FFF000
FFF000
FFF000
FFF000
ENDCHAR
STARTCHAR E
ENCODING 69
SWIDTH 2000 0
DWIDTH 24 0
BBX 20 32 4 0
BITMAP
FFFFF0
FFFFF0
FFFFF0
FFFFF0
F00000
F00000
F00000
F00000
F00000
F00000
F00000
F00000
FFFF00
FFFF00
FFFF00
FFFF00
F00000
F00000
F00000
F00000
F00000
F00000
F00000
F00000
F00000
F00000
F00000
F00000
FFFFF0
FFFFF0
FFFFF0
FFFFF0
ENDCHAR
STARTCHAR F
ENCODING 70
SWIDTH 2000 0
DWIDTH 24 0
BBX 20 32 4 0
BITMAP
FFFFF0
FFFFF0
FFFFF0
FFFFF0
F00000
F00000
F00000
F00000
F00000
F00000
F00000
F00000
FFFF00
FFFF00
FFFF00
FFFF00
F00000
F00000
F00000
F00000
F00000
F00000
F00000
F00000
F00000
F00000
F00000
F00000
F00000
F00000
F00000
F00000
ENDCHAR
STARTCHAR G
ENCODING 71
SWIDTH 2000 0
DWIDTH 24 0
BBX 20 32 4 0
BITMAP
0FFF00
0FFF00
0FFF00
0FFF00
F000F0
F000F0
F000F0
F000F0
F00000
F00000
F00000
F00000
F00000
F00000
F00000
F00000
F00FF0
F00FF0
F00FF0
F00FF0
F000F0
F000F0
F000F0
F000F0
F000F0
F000F0
F000F0
F000F0
0FFF00
0FFF00
0FFF00
0FFF00
ENDCHAR
STARTCHAR H
ENCODING 72
SWIDTH 2000 0
DWIDTH 24 0
BBX 20 32 4 0
BITMAP
F000F0
F000F0
F000F0
F000F0
F000F0
F000F0
F000F0
F000F0
F000F0
F000F0
F000F0
F000F0
FFFFF0
FFFFF0
FFFFF0
FFFFF0
F000F0
F000F0
F000F0
F000F0
F000F0
F000F0
F000F0
F000F0
F000F0
F000F0
F000F0
F000F0
F000F0
F000F0
F000F0
F000F0
ENDCHAR
STARTCHAR I
ENCODING 73
SWIDTH 2000 0
DWIDTH 24 0
BBX 12 32 8 0
BITMAP
FFF0
FFF0
FFF0
FFF0
0F00
0F00
0F00
0F00
0F00
0F00
0F00
0F00
0F00
0F00
0F00
0F00
0F00
0F00
0F00
0F00
0F00
0F00
0F00
0F00
0F00
0F00
0F00
0F00
FFF0
FFF0
FFF0
FFF0
ENDCHAR
STARTCHAR J
ENCODING 74
SWIDTH 2000 0
DWIDTH 24 0
BBX 20 32 4 0
BITMAP
00FFF0
00FFF0
00FFF0
00FFF0
0000F0
0000F0
0000F0
0000F0
0000F0
0000F0
0000F0
0000F0
0000F0
0000F0
0000F0
0000F0
0000F0
0000F0
0000F0
0000F0
F000F0
F000F0
F000F0
F000F0
F000F0
F000F0
F000F0
F000F0
0FFF00
0FFF00
0FFF00
0FFF00
ENDCHAR
STARTCHAR K
ENCODING 75
SWIDTH 2000 0
DWIDTH 24 0
BBX 20 32 4 0
BITMAP
F000F0
F000F0
F000F0
F000F0
F00F00
F00F00
F00F00
F00F00
F0F000
F0F000
F0F000
F0F000
FFF000
FFF000
FFF000
FFF000
F00F00
F00F00
F00F00
F00F00
F00F00
F00F00
F00F00
F00F00
F000F0
F000F0
F000F0
F000F0
F000F0
F000F0
F000F0
F000F0
ENDCHAR
STARTCHAR L
ENCODING 76
SWIDTH 2000 0
DWIDTH 24 0
BBX 20 32 4 0
BITMAP
F00000
F00000
F00000
F00000
F00000
F00000
F00000
F00000
F00000
F00000
F00000
F00000
F00000
F00000
F00000
F00000
F00000
F00000
F00000
F00000
F00000
F00000
F00000
F00000
F00000
F00000
F00000
F00000
FFFFF0
FFFFF0
FFFFF0
FFFFF0
ENDCHAR
STARTCHAR M
ENCODING 77
SWIDTH 2000 0
DWIDTH 24 0
BBX 20 32 4 0
BITMAP
F000F0
F000F0
F000F0
F000F0
FF0FF0
FF0FF0
FF0FF0
FF0FF0
F0F0F0
F0F0F0
F0F0F0
F0F0F0
F0F0F0
F0F0F0
F0F0F0
F0F0F0
F000F0
F000F0
F000F0
F000F0
F000F0
F000F0
F000F0
F000F0
F000F0
F000F0
F000F0
F000F0
F000F0
F000F0
F000F0
F000F0
ENDCHAR
STARTCHAR N
ENCODING 78
SWIDTH 2000 0
DWIDTH 24 0
BBX 20 32 4 0
BITMAP
F000F0
F000F0
F000F0
F000F0
FF00F0
FF00F0
FF00F0
FF00F0
FF00F0
FF00F0
FF00F0
FF00F0
F0F0F0
F0F0F0
F0F0F0
F0F0F0
F0F0F0
F0F0F0
F0F0F0
F0F0F0
F00FF0
F00FF0
F00FF0
F00FF0
F00FF0
F00FF0
F00FF0
F00FF0
F000F0
F000F0
F000F0
F000F0
ENDCHAR
STARTCHAR O
ENCODING 79
SWIDTH 2000 0
DWIDTH 24 0
BBX 20 32 4 0
BITMAP
0FFF00
0FFF00
0FFF00
0FFF00
F000F0
F000F0
F000F0
F000F0
F000F0
F000F0
F000F0
F000F0
F000F0
F000F0
F000F0
F000F0
F000F0
F000F0
F000F0
F000F0
F000F0
F000F0
F000F0
F000F0
F000F0
F000F0
F000F0
F000F0
0FFF00
0FFF00
0FFF00
0FFF00
ENDCHAR
STARTCHAR P
ENCODING 80
SWIDTH 2000 0
DWIDTH 24 0
BBX 20 32 4 0
BITMAP
FFFF00
FFFF00
FFFF00
FFFF00
F000F0
F000F0
F000F0
F000F0
F000F0
F000F0
F000F0
F000F0
F000F0
F000F0
F000F0
F000F0
FFFF00
FFFF00
FFFF00
FFFF00
F00000
F00000
F00000
F00000
F00000
F00000
F00000
F00000
F00000
F00000
F00000
F00000
ENDCHAR
STARTCHAR Q
ENCODING 81
SWIDTH 2000 0
DWIDTH 24 0
BBX 20 36 4 -4
BITMAP
0FFF00
0FFF00
0FFF00
0FFF00
F000F0
F000F0
F000F0
F000F0
F000F0
F000F0
F000F0
F000F0
F000F0
F000F0
F000F0
F000F0
F000F0
F000F0
F000F0
F000F0
F000F0
F000F0
F000F0
F000F0
F00F00
F00F00
F00F00
F00F00
0FF0F0
0FF0F0
0FF0F0
0FF0F0
0000F0
0000F0
0000F0
0000F0
ENDCHAR
STARTCHAR R
ENCODING 82
SWIDTH 2000 0
DWIDTH 24 0
BBX 20 32 4 0
BITMAP
FFFF00
FFFF00
FFFF00
FFFF00
F000F0
F000F0
F000F0
F000F0
F000F0
F000F0
F000F0
F000F0
FFFF00
FFFF00
FFFF00
FFFF00
F00F00
F00F00
F00F00
F00F00
F000F0
F000F0
F000F0
F000F0
F000F0
F000F0
F000F0
F000F0
F000F0
F000F0
F000F0
F000F0
ENDCHAR
STARTCHAR S
ENCODING 83
SWIDTH 2000 0
DWIDTH 24 0
BBX 20 32 4 0
BITMAP
0FFF00
0FFF00
0FFF00
0FFF00
F000F0
F000F0
F000F0
F000F0
F00000
F00000
F00000
F00000
0FFF00
0FFF00
0FFF00
0FFF00
0000F0
0000F0
0000F0
0000F0
0000F0
0000F0
0000F0
0000F0
F000F0
F000F0
F000F0
F000F0
0FFF00
0FFF00
0FFF00
0FFF00
ENDCHAR
STARTCHAR T
ENCODING 84
SWIDTH 2000 0
DWIDTH 24 0
BBX 20 32 4 0
BITMAP
FFFFF0
FFFFF0
FFFFF0
FFFFF0
00F000
00F000
00F000
00F000
00F000
00F000
00F000
00F000
00F000
00F000
00F000
00F000
00F000
00F000
00F000
00F000
00F000
00F000
00F000
00F000
00F000
00F000
00F000
00F000
00F000
00F000
00F000
00F000
ENDCHAR
STARTCHAR U
ENCODING 85
SWIDTH 2000 0
DWIDTH 24 0
BBX 20 32 4 0
BITMAP
F000F0
F000F0
F000F0
F000F0
F000F0
F000F0
F000F0
F000F0
F000F0
F000F0
F000F0
F000F0
F000F0
F000F0
F000F0
F000F0
F000F0
F000F0
F000F0
F000F0
F000F0
F000F0
F000F0
F000F0
F000F0
F000F0
F000F0
F000F0
0FFF00
0FFF00
0FFF00
0FFF00
ENDCHAR
STARTCHAR V
ENCODING 86
SWIDTH 2000 0
DWIDTH 24 0
BBX 20 32 4 0
BITMAP
F000F0
F000F0
F000F0
F000F0
F000F0
F000F0
F000F0
F000F0
F000F0
F000F0
F000F0
F000F0
0F0F00
0F0F00
0F0F00
0F0F00
0F0F00
0F0F00
0F0F00
0F0F00
0F0F00
0F0F00
0F0F00
0F0F00
00F000
00F000
00F000
00F000
00F000
00F000
00F000
00F000
ENDCHAR
STARTCHAR W
ENCODING 87
SWIDTH 2000 0
DWIDTH 24 0
BBX 20 32 4 0
BITMAP
F000F0
F000F0
F000F0
F000F0
F000F0
F000F0
F000F0
F000F0
F000F0
F000F0
F000F0
F000F0
F0F0F0
F0F0F0
F0F0F0
F0F0F0
F0F0F0
F0F0F0
F0F0F0
F0F0F0
0FFF00
0FFF00
0FFF00
0FFF00
0F0F00
0F0F00
0F0F00
0F0F00
0F0F00
0F0F00
0F0F00
0F0F00
ENDCHAR
STARTCHAR X
ENCODING 88
SWIDTH 2000 0
DWIDTH 24 0
BBX 20 32 4 0
BITMAP
F000F0
F000F0
F000F0
F000F0
F000F0
F000F0
F000F0
F000F0
0F0F00
0F0F00
0F0F00
0F0F00
00F000
00F000
00F000
00F000
00F000
00F000
00F000
00F000
0F0F00
0F0F00
0F0F00
0F0F00
F000F0
F000F0
F000F0
F000F0
F000F0
F000F0
F000F0
F000F0
ENDCHAR
STARTCHAR Y
ENCODING 89
SWIDTH 2000 0
DWIDTH 24 0
BBX 20 32 4 0
BITMAP
F000F0
F000F0
F000F0
F000F0
F000F0
F000F0
F000F0
F000F0
F000F0
F000F0
F000F0
F000F0
0F0F00
0F0F00
0F0F00
0F0F00
00F000
00F000
00F000
00F000
00F000
00F000
00F000
00F000
00F000
00F000
00F000
00F000
00F000
00F000
00F000
00F000
ENDCHAR
STARTCHAR Z
ENCODING 90
SWIDTH 2000 0
DWIDTH 24 0
BBX 20 32 4 0
BITMAP
FFFFF0
FFFFF0
FFFFF0
FFFFF0
000F00
000F00
000F00
000F00
00F000
00F000
00F000
00F000
00F000
00F000
00F000
00F000
0F0000
0F0000
0F0000
0F0000
0F0000
0F0000
0F0000
0F0000
F00000
F00000
F00000
F00000
FFFFF0
FFFFF0
FFFFF0
FFFFF0
ENDCHAR
STARTCHAR bracketleft
ENCODING 91
SWIDTH 2000 0
DWIDTH 24 0
BBX 12 44 8 -8
BITMAP
FFF0
FFF0
FFF0
FFF0
F000
F000
F000
F000
F000
F000
F000
F000
F000
F000
F000
F000
F000
F000
F000
F000
F000
F000
F000
F000
F000
F000
F000
F000
F000
F000
F000
F000
F000
F000
F000
F000
F000
F000
F000
F000
FFF0
FFF0
FFF0
FFF0
ENDCHAR
STARTCHAR backslash
ENCODING 92
SWIDTH 2000 0
DWIDTH 24 0
BBX 20 40 4 -4
BITMAP
F00000
F00000
F00000
F00000
F00000
F00000
F00000
F00000
0F0000
0F0000
0F0000
0F0000
0F0000
0F0000
0F0000
0F0000
00F000
00F000
00F000
00F000
00F000
00F000
00F000
00F000
000F00
000F00
000F00
000F00
000F00
000F00
000F00
000F00
0000F0
0000F0
0000F0
0000F0
0000F0
0000F0
0000F0
0000F0
ENDCHAR
STARTCHAR bracketright
ENCODING 93
SWIDTH 2000 0
DWIDTH 24 0
BBX 12 44 8 -8
BITMAP
FFF0
FFF0
FFF0
FFF0
00F0
00F0
00F0
00F0
00F0
00F0
00F0
00F0
00F0
00F0
00F0
00F0
00F0
00F0
00F0
00F0
00F0
00F0
00F0
00F0
00F0
00F0
00F0
00F0
00F0
00F0
00F0
00F0
00F0
00F0
00F0
00F0
00F0
00F0
00F0
00F0
FFF0
FFF0
FFF0
FFF0
ENDCHAR
STARTCHAR asciicircum
ENCODING 94
SWIDTH 2000 0
DWIDTH 24 0
BBX 20 12 4 28
BITMAP
00F000
00F000
00F000
00F000
0F0F00
0F0F00
0F0F00
0F0F00
F000F0
F000F0
F000F0
F000F0
ENDCHAR
STARTCHAR underscore
ENCODING 95
SWIDTH 2000 0
DWIDTH 24 0
BBX 20 4 4 -4
BITMAP
FFFFF0
FFFFF0
FFFFF0
FFFFF0
ENDCHAR
STARTCHAR grave
ENCODING 96
SWIDTH 2000 0
DWIDTH 24 0
BBX 8 8 8 28
BITMAP
F0
F0
F0
F0
0F
0F
0F
0F
ENDCHAR
STARTCHAR a
ENCODING 97
SWIDTH 2000 0
DWIDTH 24 0
BBX 20 24 4 0
BITMAP
0FFFF0
0FFFF0
0FFFF0
0FFFF0
F000F0
F000F0
F000F0
F000F0
F000F0
F000F0
F000F0
F000F0
F000F0
F000F0
F000F0
F000F0
F00FF0
F00FF0
F00FF0
F00FF0
0FF0F0
0FF0F0
0FF0F0
0FF0F0
ENDCHAR
STARTCHAR b
ENCODING 98
SWIDTH 2000 0
DWIDTH 24 0
BBX 20 36 4 0
BITMAP
F00000
F00000
F00000
F00000
F00000
F00000
F00000
F00000
F00000
F00000
F00000
F00000
FFFF00
FFFF00
FFFF00
FFFF00
F000F0
F000F0
F000F0
F000F0
F000F0
F000F0
F000F0
F000F0
F000F0
F000F0
F000F0
F000F0
F000F0
F000F0
F000F0
F000F0
FFFF00
FFFF00
FFFF00
FFFF00
ENDCHAR
STARTCHAR c
ENCODING 99
SWIDTH 2000 0
DWIDTH 24 0
BBX 20 24 4 0
BITMAP
0FFF00
0FFF00
0FFF00
0FFF00
F000F0
F000F0
F000F0
F000F0
F00000
F00000
F00000
F00000
F00000
F00000
F00000
F00000
F000F0
F000F0
F000F0
F000F0
0FFF00
0FFF00
0FFF00
0FFF00
ENDCHAR
STARTCHAR d
ENCODING 100
SWIDTH 2000 0
DWIDTH 24 0
BBX 20 36 4 0
BITMAP
0000F0
0000F0
0000F0
0000F0
0000F0
0000F0
0000F0
0000F0
0000F0
0000F0
0000F0
0000F0
0FFFF0
0FFFF0
0FFFF0
0FFFF0
F000F0
F000F0
F000F0
F000F0
F000F0
F000F0
F000F0
F000F0
F000F0
F000F0
F000F0
F000F0
F000F0
F000F0
F000F0
F000F0
0FFFF0
0FFFF0
0FFFF0
0FFFF0
ENDCHAR
STARTCHAR e
ENCODING 101
SWIDTH 2000 0
DWIDTH 24 0
BBX 20 24 4 0
BITMAP
0FFF00
0FFF00
0FFF00
0FFF00
F000F0
F000F0
F000F0
F000F0
FFFFF0
FFFFF0
FFFFF0
FFFFF0
F00000
F00000
F00000
F00000
F000F0
F000F0
F000F0
F000F0
0FFF00
0FFF00
0FFF00
0FFF00
ENDCHAR
STARTCHAR f
ENCODING 102
SWIDTH 2000 0
DWIDTH 24 0
BBX 20 36 4 0
BITMAP
00FFF0
00FFF0
00FFF0
00FFF0
0F0000
0F0000
0F0000
0F0000
0F0000
0F0000
0F0000
0F0000
FFFF00
FFFF00
FFFF00
FFFF00
0F0000
0F0000
0F0000
0F0000
0F0000
0F0000
0F0000
0F0000
0F0000
0F0000
0F0000
0F0000
0F0000
0F0000
0F0000
0F0000
0F0000
0F0000
0F0000
0F0000
ENDCHAR
STARTCHAR g
ENCODING 103
SWIDTH 2000 0
DWIDTH 24 0
BBX 20 36 4 -12
BITMAP
0FFFF0
0FFFF0
0FFFF0
0FFFF0
F000F0
F000F0
F000F0
F000F0
F000F0
F000F0
F000F0
F000F0
F000F0
F000F0
F000F0
F000F0
F000F0
F000F0
F000F0
F000F0
0FFFF0
0FFFF0
0FFFF0
0FFFF0
0000F0
0000F0
0000F0
0000F0
0000F0
0000F0
0000F0
0000F0
0FFF00
0FFF00
0FFF00
0FFF00
ENDCHAR
STARTCHAR h
ENCODING 104
SWIDTH 2000 0
DWIDTH 24 0
BBX 20 36 4 0
BITMAP
F00000
F00000
F00000
F00000
F00000
F00000
F00000
F00000
F00000
F00000
F00000
F00000
FFFF00
FFFF00
FFFF00
FFFF00
F000F0
F000F0
F000F0
F000F0
F000F0
F000F0
F000F0
F000F0
F000F0
F000F0
F000F0
F000F0
F000F0
F000F0
F000F0
F000F0
F000F0
F000F0
F000F0
F000F0
ENDCHAR
STARTCHAR i
ENCODING 105
SWIDTH 2000 0
DWIDTH 24 0
BBX 16 32 8 0
BITMAP
0F00
0F00
0F00
0F00
0000
0000
0000
0000
FF00
FF00
FF00
FF00
0F00
0F00
0F00
0F00
0F00
0F00
0F00
0F00
0F00
0F00
0F00
0F00
0F00
0F00
0F00
0F00
00FF
00FF
00FF
00FF
ENDCHAR
STARTCHAR j
ENCODING 106
SWIDTH 2000 0
DWIDTH 24 0
BBX 12 40 8 -8
BITMAP
00F0
00F0
00F0
00F0
0000
0000
0000
0000
0FF0
0FF0
0FF0
0FF0
00F0
00F0
00F0
00F0
00F0
00F0
00F0
00F0
00F0
00F0
00F0
00F0
00F0
00F0
00F0
00F0
00F0
00F0
00F0
00F0
F0F0
F0F0
F0F0
F0F0
0F00
0F00
0F00
0F00
ENDCHAR
STARTCHAR k
ENCODING 107
SWIDTH 2000 0
DWIDTH 24 0
BBX 20 36 4 0
BITMAP
F00000
F00000
F00000
F00000
F00000
F00000
F00000
F00000
F00000
F00000
F00000
F00000
F000F0
F000F0
F000F0
F000F0
F00F00
F00F00
F00F00
F00F00
F0F000
F0F000
F0F000
F0F000
FFF000
FFF000
FFF000
FFF000
F00F00
F00F00
F00F00
F00F00
F000F0
F000F0
F000F0
F000F0
ENDCHAR
STARTCHAR l
ENCODING 108
SWIDTH 2000 0
DWIDTH 24 0
BBX 12 36 8 0
BITMAP
FF00
FF00
FF00
FF00
0F00
0F00
0F00
0F00
0F00
0F00
0F00
0F00
0F00
0F00
0F00
0F00
0F00
0F00
0F00
0F00
0F00
0F00
0F00
0F00
0F00
0F00
0F00
0F00
0F00
0F00
0F00
0F00
0FF0
0FF0
0FF0
0FF0
ENDCHAR
STARTCHAR m
ENCODING 109
SWIDTH 2000 0
DWIDTH 24 0
BBX 20 24 4 0
BITMAP
FF0F00
FF0F00
FF0F00
FF0F00
F0F0F0
F0F0F0
F0F0F0
F0F0F0
F0F0F0
F0F0F0
F0F0F0
F0F0F0
F0F0F0
F0F0F0
F0F0F0
F0F0F0
F0F0F0
F0F0F0
F0F0F0
F0F0F0
F0F0F0
F0F0F0
F0F0F0
F0F0F0
ENDCHAR
STARTCHAR n
ENCODING 110
SWIDTH 2000 0
DWIDTH 24 0
BBX 20 24 4 0
BITMAP
FFFF00
FFFF00
FFFF00
FFFF00
F000F0
F000F0
F000F0
F000F0
F000F0
F000F0
F000F0
F000F0
F000F0
F000F0
F000F0
F000F0
F000F0
F000F0
F000F0
F000F0
F000F0
F000F0
F000F0
F000F0
ENDCHAR
STARTCHAR o
ENCODING 111
SWIDTH 2000 0
DWIDTH 24 0
BBX 20 24 4 0
BITMAP
0FFF00
0FFF00
0FFF00
0FFF00
F000F0
F000F0
F000F0
F000F0
F000F0
F000F0
F000F0
F000F0
F000F0
F000F0
F000F0
F000F0
F000F0
F000F0
F000F0
F000F0
0FFF00
0FFF00
0FFF00
0FFF00
ENDCHAR
STARTCHAR p
ENCODING 112
SWIDTH 2000 0
DWIDTH 24 0
BBX 20 36 4 -12
BITMAP
FFFF00
FFFF00
FFFF00
FFFF00
F000F0
F000F0
F000F0
F000F0
F000F0
F000F0
F000F0
F000F0
F000F0
F000F0
F000F0
F000F0
F000F0
F000F0
F000F0
F000F0
FFFF00
FFFF00
FFFF00
FFFF00
F00000
F00000
F00000
F00000
F00000
F00000
F00000
F00000
F00000
F00000
F00000
F00000
ENDCHAR
STARTCHAR q
ENCODING 113
SWIDTH 2000 0
DWIDTH 24 0
BBX 24 36 4 -12
BITMAP
0FFFF0
0FFFF0
0FFFF0
0FFFF0
F000F0
F000F0
F000F0
F000F0
F000F0
F000F0
F000F0
F000F0
F000F0
F000F0
F000F0
F000F0
F000F0
F000F0
F000F0
F000F0
0FFFF0
0FFFF0
0FFFF0
0FFFF0
0000F0
0000F0
0000F0
0000F0
0000F0
0000F0
0000F0
0000F0
0000FF
0000FF
0000FF
0000FF
ENDCHAR
STARTCHAR r
ENCODING 114
SWIDTH 2000 0
DWIDTH 24 0
BBX 20 24 4 0
BITMAP
FFFF00
FFFF00
FFFF00
FFFF00
F000F0
F000F0
F000F0
F000F0
F00000
F00000
F00000
F00000
F00000
F00000
F00000
F00000
F00000
F00000
F00000
F00000
F00000
F00000
F00000
F00000
ENDCHAR
STARTCHAR s
ENCODING 115
SWIDTH 2000 0
DWIDTH 24 0
BBX 20 24 4 0
BITMAP
0FFFF0
0FFFF0
0FFFF0
0FFFF0
F00000
F00000
F00000
F00000
0FFF00
0FFF00
0FFF00
0FFF00
0000F0
0000F0
0000F0
0000F0
0000F0
0000F0
0000F0
0000F0
FFFF00
FFFF00
FFFF00
FFFF00
ENDCHAR
STARTCHAR t
ENCODING 116
SWIDTH 2000 0
DWIDTH 24 0
BBX 20 32 4 0
BITMAP
0F0000
0F0000
0F0000
0F0000
0F0000
0F0000
0F0000
0F0000
FFFF00
FFFF00
FFFF00
FFFF00
0F0000
0F0000
0F0000
0F0000
0F0000
0F0000
0F0000
0F0000
0F0000
0F0000
0F0000
0F0000
0F0000
0F0000
0F0000
0F0000
00FFF0
00FFF0
00FFF0
00FFF0
ENDCHAR
STARTCHAR u
ENCODING 117
SWIDTH 2000 0
DWIDTH 24 0
BBX 20 24 4 0
BITMAP
F000F0
F000F0
F000F0
F000F0
F000F0
F000F0
F000F0
F000F0
F000F0
F000F0
F000F0
F000F0
F000F0
F000F0
F000F0
F000F0
F000F0
F000F0
F000F0
F000F0
0FFFF0
0FFFF0
0FFFF0
0FFFF0
ENDCHAR
STARTCHAR v
ENCODING 118
SWIDTH 2000 0
DWIDTH 24 0
BBX 20 24 4 0
BITMAP
F000F0
F000F0
F000F0
F000F0
F000F0
F000F0
F000F0
F000F0
0F0F00
0F0F00
0F0F00
0F0F00
0F0F00
0F0F00
0F0F00
0F0F00
00F000
00F000
00F000
00F000
00F000
00F000
00F000
00F000
ENDCHAR
STARTCHAR w
ENCODING 119
SWIDTH 2000 0
DWIDTH 24 0
BBX 20 24 4 0
BITMAP
F000F0
F000F0
F000F0
F000F0
F000F0
F000F0
F000F0
F000F0
F0F0F0
F0F0F0
F0F0F0
F0F0F0
F0F0F0
F0F0F0
F0F0F0
F0F0F0
0F0F00
0F0F00
0F0F00
0F0F00
0F0F00
0F0F00
0F0F00
0F0F00
ENDCHAR
STARTCHAR x
ENCODING 120
SWIDTH 2000 0
DWIDTH 24 0
BBX 20 24 4 0
BITMAP
F000F0
F000F0
F000F0
F000F0
0F0F00
0F0F00
0F0F00
0F0F00
00F000
00F000
00F000
00F000
00F000
00F000
00F000
00F000
0F0F00
0F0F00
0F0F00
0F0F00
F000F0
F000F0
F000F0
F000F0
ENDCHAR
STARTCHAR y
ENCODING 121
SWIDTH 2000 0
DWIDTH 24 0
BBX 20 36 4 -12
BITMAP
F000F0
F000F0
F000F0
F000F0
F000F0
F000F0
F000F0
F000F0
F000F0
F000F0
F000F0
F000F0
F000F0
F000F0
F000F0
F000F0
F000F0
F000F0
F000F0
F000F0
0FFFF0
0FFFF0
0FFFF0
0FFFF0
0000F0
0000F0
0000F0
0000F0
0000F0
0000F0
0000F0
0000F0
0FFF00
0FFF00
0FFF00
0FFF00
ENDCHAR
STARTCHAR z
ENCODING 122
SWIDTH 2000 0
DWIDTH 24 0
BBX 20 24 4 0
BITMAP
FFFFF0
FFFFF0
FFFFF0
FFFFF0
000F00
000F00
000F00
000F00
00F000
00F000
00F000
00F000
0F0000
0F0000
0F0000
0F0000
F00000
F00000
F00000
F00000
FFFFF0
FFFFF0
FFFFF0
FFFFF0
ENDCHAR
STARTCHAR braceleft
ENCODING 123
SWIDTH 2000 0
DWIDTH 24 0
BBX 20 44 4 -8
BITMAP
000FF0
000FF0
000FF0
000FF0
00F000
00F000
00F000
00F000
00F000
00F000
00F000
00F000
00F000
00F000
00F000
00F000
00F000
00F000
00F000
00F000
FF0000
FF0000
FF0000
FF0000
00F000
00F000
00F000
00F000
00F000
00F000
00F000
00F000
00F000
00F000
00F000
00F000
00F000
00F000
00F000
00F000
000FF0
000FF0
000FF0
000FF0
ENDCHAR
STARTCHAR bar
ENCODING 124
SWIDTH 2000 0
DWIDTH 24 0
BBX 4 44 12 -8
BITMAP
F0
F0
F0
F0
F0
F0
F0
F0
F0
F0
F0
F0
F0
F0
F0
F0
F0
F0
F0
F0
F0
F0
F0
F0
F0
F0
F0
F0
F0
F0
F0
F0
F0
F0
F0
F0
F0
F0
F0
F0
F0
F0
F0
F0
ENDCHAR
STARTCHAR braceright
ENCODING 125
SWIDTH 2000 0
DWIDTH 24 0
BBX 20 44 4 -8
BITMAP
FF0000
FF0000
FF0000
FF0000
00F000
00F000
00F000
00F000
00F000
00F000
00F000
00F000
00F000
00F000
00F000
00F000
00F000
00F000
00F000
00F000
000FF0
000FF0
000FF0
000FF0
00F000
00F000
00F000
00F000
00F000
00F000
00F000
00F000
00F000
00F000
00F000
00F000
00F000
00F000
00F000
00F000
FF0000
FF0000
FF0000
FF0000
ENDCHAR
STARTCHAR asciitilde
ENCODING 126
SWIDTH 2000 0
DWIDTH 24 0
BBX 20 12 4 8
BITMAP
0F00F0
0F00F0
0F00F0
0F00F0
F0F0F0
F0F0F0
F0F0F0
F0F0F0
F00F00
F00F00
F00F00
F00F00
ENDCHAR
STARTCHAR uni007F
ENCODING 127
SWIDTH 2000 0
DWIDTH 24 0
BBX 4 4 0 0
BITMAP
F0
F0
F0
F0
ENDCHAR
STARTCHAR uni00A0
ENCODING 160
SWIDTH 2000 0
DWIDTH 24 0
BBX 4 4 24 -4
BITMAP
F0
F0
F0
F0
ENDCHAR
STARTCHAR exclamdown
ENCODING 161
SWIDTH 2000 0
DWIDTH 24 0
BBX 4 32 12 -8
BITMAP
F0
F0
F0
F0
00
00
00
00
F0
F0
F0
F0
F0
F0
F0
F0
F0
F0
F0
F0
F0
F0
F0
F0
F0
F0
F0
F0
F0
F0
F0
F0
ENDCHAR
STARTCHAR cent
ENCODING 162
SWIDTH 2000 0
DWIDTH 24 0
BBX 20 32 4 -4
BITMAP
00F000
00F000
00F000
00F000
0FFF00
0FFF00
0FFF00
0FFF00
F0F0F0
F0F0F0
F0F0F0
F0F0F0
F0F000
F0F000
F0F000
F0F000
F0F000
F0F000
F0F000
F0F000
F0F0F0
F0F0F0
F0F0F0
F0F0F0
0FFF00
0FFF00
0FFF00
0FFF00
00F000
00F000
00F000
00F000
ENDCHAR
STARTCHAR sterling
ENCODING 163
SWIDTH 2000 0
DWIDTH 24 0
BBX 20 32 4 0
BITMAP
00FF00
00FF00
00FF00
00FF00
0F0000
0F0000
0F0000
0F0000
0F0000
0F0000
0F0000
0F0000
FFFF00
FFFF00
FFFF00
FFFF00
0F0000
0F0000
0F0000
0F0000
0F0000
0F0000
0F0000
0F0000
0F0000
0F0000
0F0000
0F0000
F0FFF0
F0FFF0
F0FFF0
F0FFF0
ENDCHAR
STARTCHAR currency
ENCODING 164
SWIDTH 2000 0
DWIDTH 24 0
BBX 20 24 4 0
BITMAP
F000F0
F000F0
F000F0
F000F0
0FFF00
0FFF00
0FFF00
0FFF00
0F0F00
0F0F00
0F0F00
0F0F00
0F0F00
0F0F00
0F0F00
0F0F00
0FFF00
0FFF00
0FFF00
0FFF00
F000F0
F000F0
F000F0
F000F0
ENDCHAR
STARTCHAR yen
ENCODING 165
SWIDTH 2000 0
DWIDTH 24 0
BBX 20 36 4 0
BITMAP
F000F0
F000F0
F000F0
F000F0
F000F0
F000F0
F000F0
F000F0
F000F0
F000F0
F000F0
F000F0
0F0F00
0F0F00
0F0F00
0F0F00
00F000
00F000
00F000
00F000
FFFFF0
FFFFF0
FFFFF0
FFFFF0
00F000
00F000
00F000
00F000
FFFFF0
FFFFF0
FFFFF0
FFFFF0
00F000
00F000
00F000
00F000
ENDCHAR
STARTCHAR brokenbar
ENCODING 166
SWIDTH 2000 0
DWIDTH 24 0
BBX 4 44 12 -8
BITMAP
F0
F0
F0
F0
F0
F0
F0
F0
F0
F0
F0
F0
F0
F0
F0
F0
00
00
00
00
00
00
00
00
00
00
00
00
F0
F0
F0
F0
F0
F0
F0
F0
F0
F0
F0
F0
F0
F0
F0
F0
ENDCHAR
STARTCHAR section
ENCODING 167
SWIDTH 2000 0
DWIDTH 24 0
BBX 20 40 4 -4
BITMAP
0FFF00
0FFF00
0FFF00
0FFF00
F000F0
F000F0
F000F0
F000F0
F00000
F00000
F00000
F00000
0FF000
0FF000
0FF000
0FF000
0F0F00
0F0F00
0F0F00
0F0F00
0F0F00
0F0F00
0F0F00
0F0F00
00FF00
00FF00
00FF00
00FF00
0000F0
0000F0
0000F0
0000F0
F000F0
F000F0
F000F0
F000F0
0FFF00
0FFF00
0FFF00
0FFF00
ENDCHAR
STARTCHAR dieresis
ENCODING 168
SWIDTH 2000 0
DWIDTH 24 0
BBX 12 4 8 32
BITMAP
FFF0
FFF0
FFF0
FFF0
ENDCHAR
STARTCHAR copyright
ENCODING 169
SWIDTH 2000 0
DWIDTH 24 0
BBX 28 28 0 0
BITMAP
00FFF000
00FFF000
00FFF000
00FFF000
0F000F00
0F000F00
0F000F00
0F000F00
F0FFF0F0
F0FFF0F0
F0FFF0F0
F0FFF0F0
F0F000F0
F0F000F0
F0F000F0
F0F000F0
F0FFF0F0
F0FFF0F0
F0FFF0F0
F0FFF0F0
0F000F00
0F000F00
0F000F00
0F000F00
00FFF000
00FFF000
00FFF000
00FFF000
ENDCHAR
STARTCHAR ordfeminine
ENCODING 170
SWIDTH 2000 0
DWIDTH 24 0
BBX 16 20 8 12
BITMAP
0FF0
0FF0
0FF0
0FF0
000F
000F
000F
000F
0FFF
0FFF
0FFF
0FFF
F00F
F00F
F00F
F00F
0FFF
0FFF
0FFF
0FFF
ENDCHAR
STARTCHAR guillemotleft
ENCODING 171
SWIDTH 2000 0
DWIDTH 24 0
BBX 20 20 4 4
BITMAP
00F0F0
00F0F0
00F0F0
00F0F0
0F0F00
0F0F00
0F0F00
0F0F00
F0F000
F0F000
F0F000
F0F000
0F0F00
0F0F00
0F0F00
0F0F00
00F0F0
00F0F0
00F0F0
00F0F0
ENDCHAR
STARTCHAR logicalnot
ENCODING 172
SWIDTH 2000 0
DWIDTH 24 0
BBX 16 16 4 0
BITMAP
FFFF
FFFF
FFFF
FFFF
000F
000F
000F
000F
000F
000F
000F
000F
000F
000F
000F
000F
ENDCHAR
STARTCHAR uni00AD
ENCODING 173
SWIDTH 2000 0
DWIDTH 24 0
BBX 12 4 8 12
BITMAP
FFF0
FFF0
FFF0
FFF0
ENDCHAR
STARTCHAR registered
ENCODING 174
SWIDTH 2000 0
DWIDTH 24 0
BBX 28 28 0 0
BITMAP
00FFF000
00FFF000
00FFF000
00FFF000
0F000F00
0F000F00
0F000F00
0F000F00
F0FFF0F0
F0FFF0F0
F0FFF0F0
F0FFF0F0
F0F000F0
F0F000F0
F0F000F0
F0F000F0
F0F000F0
F0F000F0
F0F000F0
F0F000F0
0F000F00
0F000F00
0F000F00
0F000F00
00FFF000
00FFF000
00FFF000
00FFF000
ENDCHAR
STARTCHAR macron
ENCODING 175
SWIDTH 2000 0
DWIDTH 24 0
BBX 28 4 0 36
BITMAP
FFFFFFF0
FFFFFFF0
FFFFFFF0
FFFFFFF0
ENDCHAR
STARTCHAR degree
ENCODING 176
SWIDTH 2000 0
DWIDTH 24 0
BBX 16 16 4 16
BITMAP
0FF0
0FF0
0FF0
0FF0
F00F
F00F
F00F
F00F
F00F
F00F
F00F
F00F
0FF0
0FF0
0FF0
0FF0
ENDCHAR
STARTCHAR plusminus
ENCODING 177
SWIDTH 2000 0
DWIDTH 24 0
BBX 20 28 4 0
BITMAP
00F000
00F000
00F000
00F000
00F000
00F000
00F000
00F000
FFFFF0
FFFFF0
FFFFF0
FFFFF0
00F000
00F000
00F000
00F000
00F000
00F000
00F000
00F000
000000
000000
000000
000000
FFFFF0
FFFFF0
FFFFF0
FFFFF0
ENDCHAR
STARTCHAR uni00B2
ENCODING 178
SWIDTH 2000 0
DWIDTH 24 0
BBX 16 20 4 16
BITMAP
0FF0
0FF0
0FF0
0FF0
F00F
F00F
F00F
F00F
00F0
00F0
00F0
00F0
0F00
0F00
0F00
0F00
FFFF
FFFF
FFFF
FFFF
ENDCHAR
STARTCHAR uni00B3
ENCODING 179
SWIDTH 2000 0
DWIDTH 24 0
BBX 16 20 4 16
BITMAP
FFF0
FFF0
FFF0
FFF0
000F
000F
000F
000F
0FF0
0FF0
0FF0
0FF0
000F
000F
000F
000F
FFF0
FFF0
FFF0
FFF0
ENDCHAR
STARTCHAR acute
ENCODING 180
SWIDTH 2000 0
DWIDTH 24 0
BBX 8 8 12 28
BITMAP
0F
0F
0F
0F
F0
F0
F0
F0
ENDCHAR
STARTCHAR mu
ENCODING 181
SWIDTH 2000 0
DWIDTH 24 0
BBX 20 32 4 -8
BITMAP
0F00F0
0F00F0
0F00F0
0F00F0
0F00F0
0F00F0
0F00F0
0F00F0
0F00F0
0F00F0
0F00F0
0F00F0
0F00F0
0F00F0
0F00F0
0F00F0
0FF0F0
0FF0F0
0FF0F0
0FF0F0
0F0F00
0F0F00
0F0F00
0F0F00
0F0000
0F0000
0F0000
0F0000
F00000
F00000
F00000
F00000
ENDCHAR
STARTCHAR paragraph
ENCODING 182
SWIDTH 2000 0
DWIDTH 24 0
BBX 20 36 4 -4
BITMAP
0FFFF0
0FFFF0
0FFFF0
0FFFF0
FFF0F0
FFF0F0
FFF0F0
FFF0F0
FFF0F0
FFF0F0
FFF0F0
FFF0F0
0FF0F0
0FF0F0
0FF0F0
0FF0F0
00F0F0
00F0F0
00F0F0
00F0F0
00F0F0
00F0F0
00F0F0
00F0F0
00F0F0
00F0F0
00F0F0
00F0F0
00F0F0
00F0F0
00F0F0
00F0F0
00F0F0
00F0F0
00F0F0
00F0F0
ENDCHAR
STARTCHAR periodcentered
ENCODING 183
SWIDTH 2000 0
DWIDTH 24 0
BBX 12 12 8 8
BITMAP
0F00
0F00
0F00
0F00
FFF0
FFF0
FFF0
FFF0
0F00
0F00
0F00
0F00
ENDCHAR
STARTCHAR cedilla
ENCODING 184
SWIDTH 2000 0
DWIDTH 24 0
BBX 12 12 8 -8
BITMAP
0F00
0F00
0F00
0F00
00F0
00F0
00F0
00F0
FF00
FF00
FF00
FF00
ENDCHAR
STARTCHAR uni00B9
ENCODING 185
SWIDTH 2000 0
DWIDTH 24 0
BBX 12 20 4 16
BITMAP
0F00
0F00
0F00
0F00
FF00
FF00
FF00
FF00
0F00
0F00
0F00
0F00
0F00
0F00
0F00
0F00
FFF0
FFF0
FFF0
FFF0
ENDCHAR
STARTCHAR ordmasculine
ENCODING 186
SWIDTH 2000 0
DWIDTH 24 0
BBX 12 20 12 12
BITMAP
0F00
0F00
0F00
0F00
F0F0
F0F0
F0F0
F0F0
0F00
0F00
0F00
0F00
0000
0000
0000
0000
FFF0
FFF0
FFF0
FFF0
ENDCHAR
STARTCHAR guillemotright
ENCODING 187
SWIDTH 2000 0
DWIDTH 24 0
BBX 20 20 4 4
BITMAP
F0F000
F0F000
F0F000
F0F000
0F0F00
0F0F00
0F0F00
0F0F00
00F0F0
00F0F0
00F0F0
00F0F0
0F0F00
0F0F00
0F0F00
0F0F00
F0F000
F0F000
F0F000
F0F000
ENDCHAR
STARTCHAR onequarter
ENCODING 188
SWIDTH 2000 0
DWIDTH 24 0
BBX 20 36 4 0
BITMAP
F000F0
F000F0
F000F0
F000F0
F00F00
F00F00
F00F00
F00F00
F00F00
F00F00
F00F00
F00F00
F0F000
F0F000
F0F000
F0F000
00F000
00F000
00F000
00F000
0F00F0
0F00F0
0F00F0
0F00F0
0F0FF0
0F0FF0
0F0FF0
0F0FF0
F0FFF0
F0FFF0
F0FFF0
F0FFF0
F000F0
F000F0
F000F0
F000F0
ENDCHAR
STARTCHAR onehalf
ENCODING 189
SWIDTH 2000 0
DWIDTH 24 0
BBX 20 36 4 0
BITMAP
F000F0
F000F0
F000F0
F000F0
F00F00
F00F00
F00F00
F00F00
F00F00
F00F00
F00F00
F00F00
F0F000
F0F000
F0F000
F0F000
00F000
00F000
00F000
00F000
0F0F00
0F0F00
0F0F00
0F0F00
0F00F0
0F00F0
0F00F0
0F00F0
F00F00
F00F00
F00F00
F00F00
F00FF0
F00FF0
F00FF0
F00FF0
ENDCHAR
STARTCHAR threequarters
ENCODING 190
SWIDTH 2000 0
DWIDTH 24 0
BBX 20 36 4 0
BITMAP
FF00F0
FF00F0
FF00F0
FF00F0
0F0F00
0F0F00
0F0F00
0F0F00
F00F00
F00F00
F00F00
F00F00
0FF000
0FF000
0FF000
0FF000
FFF000
FFF000
FFF000
FFF000
0F00F0
0F00F0
0F00F0
0F00F0
0F0FF0
0F0FF0
0F0FF0
0F0FF0
F0FFF0
F0FFF0
F0FFF0
F0FFF0
F000F0
F000F0
F000F0
F000F0
ENDCHAR
STARTCHAR questiondown
ENCODING 191
SWIDTH 2000 0
DWIDTH 24 0
BBX 20 32 4 -8
BITMAP
00F000
00F000
00F000
00F000
000000
000000
000000
000000
00F000
00F000
00F000
00F000
00F000
00F000
00F000
00F000
0F0000
0F0000
0F0000
0F0000
F00000
F00000
F00000
F00000
F000F0
F000F0
F000F0
F000F0
0FFF00
0FFF00
0FFF00
0FFF00
ENDCHAR
STARTCHAR Agrave
ENCODING 192
SWIDTH 2000 0
DWIDTH 24 0
BBX 20 40 4 0
BITMAP
0F0000
0F0000
0F0000
0F0000
00F000
00F000
00F000
00F000
000000
000000
000000
000000
0FFF00
0FFF00
0FFF00
0FFF00
F000F0
F000F0
F000F0
F000F0
F000F0
F000F0
F000F0
F000F0
FFFFF0
FFFFF0
FFFFF0
FFFFF0
F000F0
F000F0
F000F0
F000F0
F000F0
F000F0
F000F0
F000F0
F000F0
F000F0
F000F0
F000F0
ENDCHAR
STARTCHAR Aacute
ENCODING 193
SWIDTH 2000 0
DWIDTH 24 0
BBX 20 40 4 0
BITMAP
000F00
000F00
000F00
000F00
00F000
00F000
00F000
00F000
000000
000000
000000
000000
0FFF00
0FFF00
0FFF00
0FFF00
F000F0
F000F0
F000F0
F000F0
F000F0
F000F0
F000F0
F000F0
FFFFF0
FFFFF0
FFFFF0
FFFFF0
F000F0
F000F0
F000F0
F000F0
F000F0
F000F0
F000F0
F000F0
F000F0
F000F0
F000F0
F000F0
ENDCHAR
STARTCHAR Acircumflex
ENCODING 194
SWIDTH 2000 0
DWIDTH 24 0
BBX 20 40 4 0
BITMAP
00F000
00F000
00F000
00F000
0F0F00
0F0F00
0F0F00
0F0F00
000000
000000
000000
000000
0FFF00
0FFF00
0FFF00
0FFF00
F000F0
F000F0
F000F0
F000F0
F000F0
F000F0
F000F0
F000F0
FFFFF0
FFFFF0
FFFFF0
FFFFF0
F000F0
F000F0
F000F0
F000F0
F000F0
F000F0
F000F0
F000F0
F000F0
F000F0
F000F0
F000F0
ENDCHAR
STARTCHAR Atilde
ENCODING 195
SWIDTH 2000 0
DWIDTH 24 0
BBX 20 40 4 0
BITMAP
0FF0F0
0FF0F0
0FF0F0
0FF0F0
F0FF00
F0FF00
F0FF00
F0FF00
000000
000000
000000
000000
0FFF00
0FFF00
0FFF00
0FFF00
F000F0
F000F0
F000F0
F000F0
F000F0
F000F0
F000F0
F000F0
FFFFF0
FFFFF0
FFFFF0
FFFFF0
F000F0
F000F0
F000F0
F000F0
F000F0
F000F0
F000F0
F000F0
F000F0
F000F0
F000F0
F000F0
ENDCHAR
STARTCHAR Adieresis
ENCODING 196
SWIDTH 2000 0
DWIDTH 24 0
BBX 20 40 4 0
BITMAP
0F0F00
0F0F00
0F0F00
0F0F00
000000
000000
000000
000000
0FFF00
0FFF00
0FFF00
0FFF00
F000F0
F000F0
F000F0
F000F0
F000F0
F000F0
F000F0
F000F0
F000F0
F000F0
F000F0
F000F0
FFFFF0
FFFFF0
FFFFF0
FFFFF0
F000F0
F000F0
F000F0
F000F0
F000F0
F000F0
F000F0
F000F0
F000F0
F000F0
F000F0
F000F0
ENDCHAR
STARTCHAR Aring
ENCODING 197
SWIDTH 2000 0
DWIDTH 24 0
BBX 20 40 4 0
BITMAP
00F000
00F000
00F000
00F000
0F0F00
0F0F00
0F0F00
0F0F00
00F000
00F000
00F000
00F000
000000
000000
000000
000000
0FFF00
0FFF00
0FFF00
0FFF00
F000F0
F000F0
F000F0
F000F0
F000F0
F000F0
F000F0
F000F0
FFFFF0
FFFFF0
FFFFF0
FFFFF0
F000F0
F000F0
F000F0
F000F0
F000F0
F000F0
F000F0
F000F0
ENDCHAR
STARTCHAR AE
ENCODING 198
SWIDTH 2000 0
DWIDTH 24 0
BBX 20 32 4 0
BITMAP
0FFFF0
0FFFF0
0FFFF0
0FFFF0
F0F000
F0F000
F0F000
F0F000
F0F000
F0F000
F0F000
F0F000
F0FFF0
F0FFF0
F0FFF0
F0FFF0
FFF000
FFF000
FFF000
FFF000
F0F000
F0F000
F0F000
F0F000
F0F000
F0F000
F0F000
F0F000
F0FFF0
F0FFF0
F0FFF0
F0FFF0
ENDCHAR
STARTCHAR Ccedilla
ENCODING 199
SWIDTH 2000 0
DWIDTH 24 0
BBX 20 44 4 -12
BITMAP
0FFF00
0FFF00
0FFF00
0FFF00
F000F0
F000F0
F000F0
F000F0
F00000
F00000
F00000
F00000
F00000
F00000
F00000
F00000
F00000
F00000
F00000
F00000
F00000
F00000
F00000
F00000
F000F0
F000F0
F000F0
F000F0
0FFF00
0FFF00
0FFF00
0FFF00
00F000
00F000
00F000
00F000
00F000
00F000
00F000
00F000
0F0000
0F0000
0F0000
0F0000
ENDCHAR
STARTCHAR Egrave
ENCODING 200
SWIDTH 2000 0
DWIDTH 24 0
BBX 20 40 4 0
BITMAP
0F0000
0F0000
0F0000
0F0000
00F000
00F000
00F000
00F000
000000
000000
000000
000000
FFFFF0
FFFFF0
FFFFF0
FFFFF0
F00000
F00000
F00000
F00000
F00000
F00000
F00000
F00000
FFFF00
FFFF00
FFFF00
FFFF00
F00000
F00000
F00000
F00000
F00000
F00000
F00000
F00000
FFFFF0
FFFFF0
FFFFF0
FFFFF0
ENDCHAR
STARTCHAR Eacute
ENCODING 201
SWIDTH 2000 0
DWIDTH 24 0
BBX 20 40 4 0
BITMAP
000F00
000F00
000F00
000F00
00F000
00F000
00F000
00F000
000000
000000
000000
000000
FFFFF0
FFFFF0
FFFFF0
FFFFF0
F00000
F00000
F00000
F00000
F00000
F00000
F00000
F00000
FFFF00
FFFF00
FFFF00
FFFF00
F00000
F00000
F00000
F00000
F00000
F00000
F00000
F00000
FFFFF0
FFFFF0
FFFFF0
FFFFF0
ENDCHAR
STARTCHAR Ecircumflex
ENCODING 202
SWIDTH 2000 0
DWIDTH 24 0
BBX 20 40 4 0
BITMAP
00F000
00F000
00F000
00F000
0F0F00
0F0F00
0F0F00
0F0F00
000000
000000
000000
000000
FFFFF0
FFFFF0
FFFFF0
FFFFF0
F00000
F00000
F00000
F00000
F00000
F00000
F00000
F00000
FFFF00
FFFF00
FFFF00
FFFF00
F00000
F00000
F00000
F00000
F00000
F00000
F00000
F00000
FFFFF0
FFFFF0
FFFFF0
FFFFF0
ENDCHAR
STARTCHAR Edieresis
ENCODING 203
SWIDTH 2000 0
DWIDTH 24 0
BBX 20 40 4 0
BITMAP
0F0F00
0F0F00
0F0F00
0F0F00
000000
000000
000000
000000
FFFFF0
FFFFF0
FFFFF0
FFFFF0
F00000
F00000
F00000
F00000
F00000
F00000
F00000
F00000
FFFF00
FFFF00
FFFF00
FFFF00
F00000
F00000
F00000
F00000
F00000
F00000
F00000
F00000
F00000
F00000
F00000
F00000
FFFFF0
FFFFF0
FFFFF0
FFFFF0
ENDCHAR
STARTCHAR Igrave
ENCODING 204
SWIDTH 2000 0
DWIDTH 24 0
BBX 12 40 8 0
BITMAP
F000
F000
F000
F000
0F00
0F00
0F00
0F00
0000
0000
0000
0000
FFF0
FFF0
FFF0
FFF0
0F00
0F00
0F00
0F00
0F00
0F00
0F00
0F00
0F00
0F00
0F00
0F00
0F00
0F00
0F00
0F00
0F00
0F00
0F00
0F00
FFF0
FFF0
FFF0
FFF0
ENDCHAR
STARTCHAR Iacute
ENCODING 205
SWIDTH 2000 0
DWIDTH 24 0
BBX 12 40 8 0
BITMAP
00F0
00F0
00F0
00F0
0F00
0F00
0F00
0F00
0000
0000
0000
0000
FFF0
FFF0
FFF0
FFF0
0F00
0F00
0F00
0F00
0F00
0F00
0F00
0F00
0F00
0F00
0F00
0F00
0F00
0F00
0F00
0F00
0F00
0F00
0F00
0F00
FFF0
FFF0
FFF0
FFF0
ENDCHAR
STARTCHAR Icircumflex
ENCODING 206
SWIDTH 2000 0
DWIDTH 24 0
BBX 12 40 8 0
BITMAP
0F00
0F00
0F00
0F00
F0F0
F0F0
F0F0
F0F0
0000
0000
0000
0000
FFF0
FFF0
FFF0
FFF0
0F00
0F00
0F00
0F00
0F00
0F00
0F00
0F00
0F00
0F00
0F00
0F00
0F00
0F00
0F00
0F00
0F00
0F00
0F00
0F00
FFF0
FFF0
FFF0
FFF0
ENDCHAR
STARTCHAR Idieresis
ENCODING 207
SWIDTH 2000 0
DWIDTH 24 0
BBX 12 40 8 0
BITMAP
F0F0
F0F0
F0F0
F0F0
0000
0000
0000
0000
FFF0
FFF0
FFF0
FFF0
0F00
0F00
0F00
0F00
0F00
0F00
0F00
0F00
0F00
0F00
0F00
0F00
0F00
0F00
0F00
0F00
0F00
0F00
0F00
0F00
0F00
0F00
0F00
0F00
FFF0
FFF0
FFF0
FFF0
ENDCHAR
STARTCHAR Eth
ENCODING 208
SWIDTH 2000 0
DWIDTH 24 0
BBX 20 28 4 0
BITMAP
0FFF00
0FFF00
0FFF00
0FFF00
0F00F0
0F00F0
0F00F0
0F00F0
0F00F0
0F00F0
0F00F0
0F00F0
FFF0F0
FFF0F0
FFF0F0
FFF0F0
0F00F0
0F00F0
0F00F0
0F00F0
0F00F0
0F00F0
0F00F0
0F00F0
0FFF00
0FFF00
0FFF00
0FFF00
ENDCHAR
STARTCHAR Ntilde
ENCODING 209
SWIDTH 2000 0
DWIDTH 24 0
BBX 20 40 4 0
BITMAP
0FF0F0
0FF0F0
0FF0F0
0FF0F0
F0FF00
F0FF00
F0FF00
F0FF00
000000
000000
000000
000000
F000F0
F000F0
F000F0
F000F0
FF00F0
FF00F0
FF00F0
FF00F0
FF00F0
FF00F0
FF00F0
FF00F0
F0F0F0
F0F0F0
F0F0F0
F0F0F0
F00FF0
F00FF0
F00FF0
F00FF0
F00FF0
F00FF0
F00FF0
F00FF0
F000F0
F000F0
F000F0
F000F0
ENDCHAR
STARTCHAR Ograve
ENCODING 210
SWIDTH 2000 0
DWIDTH 24 0
BBX 20 40 4 0
BITMAP
0F0000
0F0000
0F0000
0F0000
00F000
00F000
00F000
00F000
000000
000000
000000
000000
0FFF00
0FFF00
0FFF00
0FFF00
F000F0
F000F0
F000F0
F000F0
F000F0
F000F0
F000F0
F000F0
F000F0
F000F0
F000F0
F000F0
F000F0
F000F0
F000F0
F000F0
F000F0
F000F0
F000F0
F000F0
0FFF00
0FFF00
0FFF00
0FFF00
ENDCHAR
STARTCHAR Oacute
ENCODING 211
SWIDTH 2000 0
DWIDTH 24 0
BBX 20 40 4 0
BITMAP
000F00
000F00
000F00
000F00
00F000
00F000
00F000
00F000
000000
000000
000000
000000
0FFF00
0FFF00
0FFF00
0FFF00
F000F0
F000F0
F000F0
F000F0
F000F0
F000F0
F000F0
F000F0
F000F0
F000F0
F000F0
F000F0
F000F0
F000F0
F000F0
F000F0
F000F0
F000F0
F000F0
F000F0
0FFF00
0FFF00
0FFF00
0FFF00
ENDCHAR
STARTCHAR Ocircumflex
ENCODING 212
SWIDTH 2000 0
DWIDTH 24 0
BBX 20 40 4 0
BITMAP
00F000
00F000
00F000
00F000
0F0F00
0F0F00
0F0F00
0F0F00
000000
000000
000000
000000
0FFF00
0FFF00
0FFF00
0FFF00
F000F0
F000F0
F000F0
F000F0
F000F0
F000F0
F000F0
F000F0
F000F0
F000F0
F000F0
F000F0
F000F0
F000F0
F000F0
F000F0
F000F0
F000F0
F000F0
F000F0
0FFF00
0FFF00
0FFF00
0FFF00
ENDCHAR
STARTCHAR Otilde
ENCODING 213
SWIDTH 2000 0
DWIDTH 24 0
BBX 20 40 4 0
BITMAP
0FF0F0
0FF0F0
0FF0F0
0FF0F0
F0FF00
F0FF00
F0FF00
F0FF00
000000
000000
000000
000000
0FFF00
0FFF00
0FFF00
0FFF00
F000F0
F000F0
F000F0
F000F0
F000F0
F000F0
F000F0
F000F0
F000F0
F000F0
F000F0
F000F0
F000F0
F000F0
F000F0
F000F0
F000F0
F000F0
F000F0
F000F0
0FFF00
0FFF00
0FFF00
0FFF00
ENDCHAR
STARTCHAR Odieresis
ENCODING 214
SWIDTH 2000 0
DWIDTH 24 0
BBX 20 40 4 0
BITMAP
0F0F00
0F0F00
0F0F00
0F0F00
000000
000000
000000
000000
0FFF00
0FFF00
0FFF00
0FFF00
F000F0
F000F0
F000F0
F000F0
F000F0
F000F0
F000F0
F000F0
F000F0
F000F0
F000F0
F000F0
F000F0
F000F0
F000F0
F000F0
F000F0
F000F0
F000F0
F000F0
F000F0
F000F0
F000F0
F000F0
0FFF00
0FFF00
0FFF00
0FFF00
ENDCHAR
STARTCHAR multiply
ENCODING 215
SWIDTH 2000 0
DWIDTH 24 0
BBX 20 20 4 4
BITMAP
F000F0
F000F0
F000F0
F000F0
0F0F00
0F0F00
0F0F00
0F0F00
00F000
00F000
00F000
00F000
0F0F00
0F0F00
0F0F00
0F0F00
F000F0
F000F0
F000F0
F000F0
ENDCHAR
STARTCHAR Oslash
ENCODING 216
SWIDTH 2000 0
DWIDTH 24 0
BBX 20 40 4 -4
BITMAP
0000F0
0000F0
0000F0
0000F0
0FFF00
0FFF00
0FFF00
0FFF00
F00FF0
F00FF0
F00FF0
F00FF0
F00FF0
F00FF0
F00FF0
F00FF0
F0F0F0
F0F0F0
F0F0F0
F0F0F0
F0F0F0
F0F0F0
F0F0F0
F0F0F0
FF00F0
FF00F0
FF00F0
FF00F0
FF00F0
FF00F0
FF00F0
FF00F0
0FFF00
0FFF00
0FFF00
0FFF00
F00000
F00000
F00000
F00000
ENDCHAR
STARTCHAR Ugrave
ENCODING 217
SWIDTH 2000 0
DWIDTH 24 0
BBX 20 40 4 0
BITMAP
0F0000
0F0000
0F0000
0F0000
00F000
00F000
00F000
00F000
000000
000000
000000
000000
F000F0
F000F0
F000F0
F000F0
F000F0
F000F0
F000F0
F000F0
F000F0
F000F0
F000F0
F000F0
F000F0
F000F0
F000F0
F000F0
F000F0
F000F0
F000F0
F000F0
F000F0
F000F0
F000F0
F000F0
0FFF00
0FFF00
0FFF00
0FFF00
ENDCHAR
STARTCHAR Uacute
ENCODING 218
SWIDTH 2000 0
DWIDTH 24 0
BBX 20 40 4 0
BITMAP
000F00
000F00
000F00
000F00
00F000
00F000
00F000
00F000
000000
000000
000000
000000
F000F0
F000F0
F000F0
F000F0
F000F0
F000F0
F000F0
F000F0
F000F0
F000F0
F000F0
F000F0
F000F0
F000F0
F000F0
F000F0
F000F0
F000F0
F000F0
F000F0
F000F0
F000F0
F000F0
F000F0
0FFF00
0FFF00
0FFF00
0FFF00
ENDCHAR
STARTCHAR Ucircumflex
ENCODING 219
SWIDTH 2000 0
DWIDTH 24 0
BBX 20 40 4 0
BITMAP
00F000
00F000
00F000
00F000
0F0F00
0F0F00
0F0F00
0F0F00
000000
000000
000000
000000
F000F0
F000F0
F000F0
F000F0
F000F0
F000F0
F000F0
F000F0
F000F0
F000F0
F000F0
F000F0
F000F0
F000F0
F000F0
F000F0
F000F0
F000F0
F000F0
F000F0
F000F0
F000F0
F000F0
F000F0
0FFF00
0FFF00
0FFF00
0FFF00
ENDCHAR
STARTCHAR Udieresis
ENCODING 220
SWIDTH 2000 0
DWIDTH 24 0
BBX 20 40 4 0
BITMAP
0F0F00
0F0F00
0F0F00
0F0F00
000000
000000
000000
000000
F000F0
F000F0
F000F0
F000F0
F000F0
F000F0
F000F0
F000F0
F000F0
F000F0
F000F0
F000F0
F000F0
F000F0
F000F0
F000F0
F000F0
F000F0
F000F0
F000F0
F000F0
F000F0
F000F0
F000F0
F000F0
F000F0
F000F0
F000F0
0FFF00
0FFF00
0FFF00
0FFF00
ENDCHAR
STARTCHAR Yacute
ENCODING 221
SWIDTH 2000 0
DWIDTH 24 0
BBX 20 40 4 0
BITMAP
000F00
000F00
000F00
000F00
00F000
00F000
00F000
00F000
000000
000000
000000
000000
F000F0
F000F0
F000F0
F000F0
F000F0
F000F0
F000F0
F000F0
F000F0
F000F0
F000F0
F000F0
0F0F00
0F0F00
0F0F00
0F0F00
00F000
00F000
00F000
00F000
00F000
00F000
00F000
00F000
00F000
00F000
00F000
00F000
ENDCHAR
STARTCHAR Thorn
ENCODING 222
SWIDTH 2000 0
DWIDTH 24 0
BBX 20 32 4 0
BITMAP
F00000
F00000
F00000
F00000
F00000
F00000
F00000
F00000
FFFF00
FFFF00
FFFF00
FFFF00
F000F0
F000F0
F000F0
F000F0
F000F0
F000F0
F000F0
F000F0
FFFF00
FFFF00
FFFF00
FFFF00
F00000
F00000
F00000
F00000
F00000
F00000
F00000
F00000
ENDCHAR
STARTCHAR germandbls
ENCODING 223
SWIDTH 2000 0
DWIDTH 24 0
BBX 20 32 4 0
BITMAP
0FF000
0FF000
0FF000
0FF000
F00F00
F00F00
F00F00
F00F00
F00F00
F00F00
F00F00
F00F00
F0F000
F0F000
F0F000
F0F000
F00F00
F00F00
F00F00
F00F00
F000F0
F000F0
F000F0
F000F0
F000F0
F000F0
F000F0
F000F0
F0FF00
F0FF00
F0FF00
F0FF00
ENDCHAR
STARTCHAR agrave
ENCODING 224
SWIDTH 2000 0
DWIDTH 24 0
BBX 20 36 4 0
BITMAP
0F0000
0F0000
0F0000
0F0000
00F000
00F000
00F000
00F000
000000
000000
000000
000000
0FFFF0
0FFFF0
0FFFF0
0FFFF0
F000F0
F000F0
F000F0
F000F0
F000F0
F000F0
F000F0
F000F0
F000F0
F000F0
F000F0
F000F0
F00FF0
F00FF0
F00FF0
F00FF0
0FF0F0
0FF0F0
0FF0F0
0FF0F0
ENDCHAR
STARTCHAR aacute
ENCODING 225
SWIDTH 2000 0
DWIDTH 24 0
BBX 20 36 4 0
BITMAP
000F00
000F00
000F00
000F00
00F000
00F000
00F000
00F000
000000
000000
000000
000000
0FFFF0
0FFFF0
0FFFF0
0FFFF0
F000F0
F000F0
F000F0
F000F0
F000F0
F000F0
F000F0
F000F0
F000F0
F000F0
F000F0
F000F0
F00FF0
F00FF0
F00FF0
F00FF0
0FF0F0
0FF0F0
0FF0F0
0FF0F0
ENDCHAR
STARTCHAR acircumflex
ENCODING 226
SWIDTH 2000 0
DWIDTH 24 0
BBX 20 36 4 0
BITMAP
00F000
00F000
00F000
00F000
0F0F00
0F0F00
0F0F00
0F0F00
000000
000000
000000
000000
0FFFF0
0FFFF0
0FFFF0
0FFFF0
F000F0
F000F0
F000F0
F000F0
F000F0
F000F0
F000F0
F000F0
F000F0
F000F0
F000F0
F000F0
F00FF0
F00FF0
F00FF0
F00FF0
0FF0F0
0FF0F0
0FF0F0
0FF0F0
ENDCHAR
STARTCHAR atilde
ENCODING 227
SWIDTH 2000 0
DWIDTH 24 0
BBX 20 36 4 0
BITMAP
0FF0F0
0FF0F0
0FF0F0
0FF0F0
F0FF00
F0FF00
F0FF00
F0FF00
000000
000000
000000
000000
0FFFF0
0FFFF0
0FFFF0
0FFFF0
F000F0
F000F0
F000F0
F000F0
F000F0
F000F0
F000F0
F000F0
F000F0
F000F0
F000F0
F000F0
F00FF0
F00FF0
F00FF0
F00FF0
0FF0F0
0FF0F0
0FF0F0
0FF0F0
ENDCHAR
STARTCHAR adieresis
ENCODING 228
SWIDTH 2000 0
DWIDTH 24 0
BBX 20 32 4 0
BITMAP
0F0F00
0F0F00
0F0F00
0F0F00
000000
000000
000000
000000
0FFFF0
0FFFF0
0FFFF0
0FFFF0
F000F0
F000F0
F000F0
F000F0
F000F0
F000F0
F000F0
F000F0
F000F0
F000F0
F000F0
F000F0
F00FF0
F00FF0
F00FF0
F00FF0
0FF0F0
0FF0F0
0FF0F0
0FF0F0
ENDCHAR
STARTCHAR aring
ENCODING 229
SWIDTH 2000 0
DWIDTH 24 0
BBX 20 40 4 0
BITMAP
00F000
00F000
00F000
00F000
0F0F00
0F0F00
0F0F00
0F0F00
00F000
00F000
00F000
00F000
000000
000000
000000
000000
0FFFF0
0FFFF0
0FFFF0
0FFFF0
F000F0
F000F0
F000F0
F000F0
F000F0
F000F0
F000F0
F000F0
F000F0
F000F0
F000F0
F000F0
F00FF0
F00FF0
F00FF0
F00FF0
0FF0F0
0FF0F0
0FF0F0
0FF0F0
ENDCHAR
STARTCHAR ae
ENCODING 230
SWIDTH 2000 0
DWIDTH 24 0
BBX 20 24 4 0
BITMAP
0FFF00
0FFF00
0FFF00
0FFF00
F0F0F0
F0F0F0
F0F0F0
F0F0F0
F0FFF0
F0FFF0
F0FFF0
F0FFF0
F0F000
F0F000
F0F000
F0F000
F0F0F0
F0F0F0
F0F0F0
F0F0F0
0F0F00
0F0F00
0F0F00
0F0F00
ENDCHAR
STARTCHAR ccedilla
ENCODING 231
SWIDTH 2000 0
DWIDTH 24 0
BBX 20 36 4 -12
BITMAP
0FFF00
0FFF00
0FFF00
0FFF00
F000F0
F000F0
F000F0
F000F0
F00000
F00000
F00000
F00000
F00000
F00000
F00000
F00000
F000F0
F000F0
F000F0
F000F0
0FFF00
0FFF00
0FFF00
0FFF00
00F000
00F000
00F000
00F000
000F00
000F00
000F00
000F00
0FF000
0FF000
0FF000
0FF000
ENDCHAR
STARTCHAR egrave
ENCODING 232
SWIDTH 2000 0
DWIDTH 24 0
BBX 20 36 4 0
BITMAP
0F0000
0F0000
0F0000
0F0000
00F000
00F000
00F000
00F000
000000
000000
000000
000000
0FFF00
0FFF00
0FFF00
0FFF00
F000F0
F000F0
F000F0
F000F0
FFFFF0
FFFFF0
FFFFF0
FFFFF0
F00000
F00000
F00000
F00000
F000F0
F000F0
F000F0
F000F0
0FFF00
0FFF00
0FFF00
0FFF00
ENDCHAR
STARTCHAR eacute
ENCODING 233
SWIDTH 2000 0
DWIDTH 24 0
BBX 20 36 4 0
BITMAP
000F00
000F00
000F00
000F00
00F000
00F000
00F000
00F000
000000
000000
000000
000000
0FFF00
0FFF00
0FFF00
0FFF00
F000F0
F000F0
F000F0
F000F0
FFFFF0
FFFFF0
FFFFF0
FFFFF0
F00000
F00000
F00000
F00000
F000F0
F000F0
F000F0
F000F0
0FFF00
0FFF00
0FFF00
0FFF00
ENDCHAR
STARTCHAR ecircumflex
ENCODING 234
SWIDTH 2000 0
DWIDTH 24 0
BBX 20 36 4 0
BITMAP
00F000
00F000
00F000
00F000
0F0F00
0F0F00
0F0F00
0F0F00
000000
000000
000000
000000
0FFF00
0FFF00
0FFF00
0FFF00
F000F0
F000F0
F000F0
F000F0
FFFFF0
FFFFF0
FFFFF0
FFFFF0
F00000
F00000
F00000
F00000
F000F0
F000F0
F000F0
F000F0
0FFF00
0FFF00
0FFF00
0FFF00
ENDCHAR
STARTCHAR edieresis
ENCODING 235
SWIDTH 2000 0
DWIDTH 24 0
BBX 20 32 4 0
BITMAP
0F0F00
0F0F00
0F0F00
0F0F00
000000
000000
000000
000000
0FFF00
0FFF00
0FFF00
0FFF00
F000F0
F000F0
F000F0
F000F0
FFFFF0
FFFFF0
FFFFF0
FFFFF0
F00000
F00000
F00000
F00000
F000F0
F000F0
F000F0
F000F0
0FFF00
0FFF00
0FFF00
0FFF00
ENDCHAR
STARTCHAR igrave
ENCODING 236
SWIDTH 2000 0
DWIDTH 24 0
BBX 16 36 8 0
BITMAP
F000
F000
F000
F000
0F00
0F00
0F00
0F00
0000
0000
0000
0000
FF00
FF00
FF00
FF00
0F00
0F00
0F00
0F00
0F00
0F00
0F00
0F00
0F00
0F00
0F00
0F00
0F00
0F00
0F00
0F00
00FF
00FF
00FF
00FF
ENDCHAR
STARTCHAR iacute
ENCODING 237
SWIDTH 2000 0
DWIDTH 24 0
BBX 16 36 8 0
BITMAP
00F0
00F0
00F0
00F0
0F00
0F00
0F00
0F00
0000
0000
0000
0000
FF00
FF00
FF00
FF00
0F00
0F00
0F00
0F00
0F00
0F00
0F00
0F00
0F00
0F00
0F00
0F00
0F00
0F00
0F00
0F00
00FF
00FF
00FF
00FF
ENDCHAR
STARTCHAR icircumflex
ENCODING 238
SWIDTH 2000 0
DWIDTH 24 0
BBX 16 36 8 0
BITMAP
0F00
0F00
0F00
0F00
F0F0
F0F0
F0F0
F0F0
0000
0000
0000
0000
FF00
FF00
FF00
FF00
0F00
0F00
0F00
0F00
0F00
0F00
0F00
0F00
0F00
0F00
0F00
0F00
0F00
0F00
0F00
0F00
00FF
00FF
00FF
00FF
ENDCHAR
STARTCHAR idieresis
ENCODING 239
SWIDTH 2000 0
DWIDTH 24 0
BBX 16 32 8 0
BITMAP
F0F0
F0F0
F0F0
F0F0
0000
0000
0000
0000
FF00
FF00
FF00
FF00
0F00
0F00
0F00
0F00
0F00
0F00
0F00
0F00
0F00
0F00
0F00
0F00
0F00
0F00
0F00
0F00
00FF
00FF
00FF
00FF
ENDCHAR
STARTCHAR eth
ENCODING 240
SWIDTH 2000 0
DWIDTH 24 0
BBX 20 36 4 0
BITMAP
0FF0F0
0FF0F0
0FF0F0
0FF0F0
000F00
000F00
000F00
000F00
00F0F0
00F0F0
00F0F0
00F0F0
0000F0
0000F0
0000F0
0000F0
0FFFF0
0FFFF0
0FFFF0
0FFFF0
F000F0
F000F0
F000F0
F000F0
F000F0
F000F0
F000F0
F000F0
F000F0
F000F0
F000F0
F000F0
0FFF00
0FFF00
0FFF00
0FFF00
ENDCHAR
STARTCHAR ntilde
ENCODING 241
SWIDTH 2000 0
DWIDTH 24 0
BBX 20 36 4 0
BITMAP
0FF0F0
0FF0F0
0FF0F0
0FF0F0
F0FF00
F0FF00
F0FF00
F0FF00
000000
000000
000000
000000
FFFF00
FFFF00
FFFF00
FFFF00
F000F0
F000F0
F000F0
F000F0
F000F0
F000F0
F000F0
F000F0
F000F0
F000F0
F000F0
F000F0
F000F0
F000F0
F000F0
F000F0
F000F0
F000F0
F000F0
F000F0
ENDCHAR
STARTCHAR ograve
ENCODING 242
SWIDTH 2000 0
DWIDTH 24 0
BBX 20 36 4 0
BITMAP
0F0000
0F0000
0F0000
0F0000
00F000
00F000
00F000
00F000
000000
000000
000000
000000
0FFF00
0FFF00
0FFF00
0FFF00
F000F0
F000F0
F000F0
F000F0
F000F0
F000F0
F000F0
F000F0
F000F0
F000F0
F000F0
F000F0
F000F0
F000F0
F000F0
F000F0
0FFF00
0FFF00
0FFF00
0FFF00
ENDCHAR
STARTCHAR oacute
ENCODING 243
SWIDTH 2000 0
DWIDTH 24 0
BBX 20 36 4 0
BITMAP
000F00
000F00
000F00
000F00
00F000
00F000
00F000
00F000
000000
000000
000000
000000
0FFF00
0FFF00
0FFF00
0FFF00
F000F0
F000F0
F000F0
F000F0
F000F0
F000F0
F000F0
F000F0
F000F0
F000F0
F000F0
F000F0
F000F0
F000F0
F000F0
F000F0
0FFF00
0FFF00
0FFF00
0FFF00
ENDCHAR
STARTCHAR ocircumflex
ENCODING 244
SWIDTH 2000 0
DWIDTH 24 0
BBX 20 36 4 0
BITMAP
00F000
00F000
00F000
00F000
0F0F00
0F0F00
0F0F00
0F0F00
000000
000000
000000
000000
0FFF00
0FFF00
0FFF00
0FFF00
F000F0
F000F0
F000F0
F000F0
F000F0
F000F0
F000F0
F000F0
F000F0
F000F0
F000F0
F000F0
F000F0
F000F0
F000F0
F000F0
0FFF00
0FFF00
0FFF00
0FFF00
ENDCHAR
STARTCHAR otilde
ENCODING 245
SWIDTH 2000 0
DWIDTH 24 0
BBX 20 36 4 0
BITMAP
0FF0F0
0FF0F0
0FF0F0
0FF0F0
F0FF00
F0FF00
F0FF00
F0FF00
000000
000000
000000
000000
0FFF00
0FFF00
0FFF00
0FFF00
F000F0
F000F0
F000F0
F000F0
F000F0
F000F0
F000F0
F000F0
F000F0
F000F0
F000F0
F000F0
F000F0
F000F0
F000F0
F000F0
0FFF00
0FFF00
0FFF00
0FFF00
ENDCHAR
STARTCHAR odieresis
ENCODING 246
SWIDTH 2000 0
DWIDTH 24 0
BBX 20 32 4 0
BITMAP
0F0F00
0F0F00
0F0F00
0F0F00
000000
000000
000000
000000
0FFF00
0FFF00
0FFF00
0FFF00
F000F0
F000F0
F000F0
F000F0
F000F0
F000F0
F000F0
F000F0
F000F0
F000F0
F000F0
F000F0
F000F0
F000F0
F000F0
F000F0
0FFF00
0FFF00
0FFF00
0FFF00
ENDCHAR
STARTCHAR divide
ENCODING 247
SWIDTH 2000 0
DWIDTH 24 0
BBX 20 20 4 4
BITMAP
00F000
00F000
00F000
00F000
000000
000000
000000
000000
FFFFF0
FFFFF0
FFFFF0
FFFFF0
000000
000000
000000
000000
00F000
00F000
00F000
00F000
ENDCHAR
STARTCHAR oslash
ENCODING 248
SWIDTH 2000 0
DWIDTH 24 0
BBX 20 32 4 -4
BITMAP
0000F0
0000F0
0000F0
0000F0
0FFF00
0FFF00
0FFF00
0FFF00
F00FF0
F00FF0
F00FF0
F00FF0
F0F0F0
F0F0F0
F0F0F0
F0F0F0
F0F0F0
F0F0F0
F0F0F0
F0F0F0
FF00F0
FF00F0
FF00F0
FF00F0
0FFF00
0FFF00
0FFF00
0FFF00
F00000
F00000
F00000
F00000
ENDCHAR
STARTCHAR ugrave
ENCODING 249
SWIDTH 2000 0
DWIDTH 24 0
BBX 20 36 4 0
BITMAP
0F0000
0F0000
0F0000
0F0000
00F000
00F000
00F000
00F000
000000
000000
000000
000000
F000F0
F000F0
F000F0
F000F0
F000F0
F000F0
F000F0
F000F0
F000F0
F000F0
F000F0
F000F0
F000F0
F000F0
F000F0
F000F0
F000F0
F000F0
F000F0
F000F0
0FFFF0
0FFFF0
0FFFF0
0FFFF0
ENDCHAR
STARTCHAR uacute
ENCODING 250
SWIDTH 2000 0
DWIDTH 24 0
BBX 20 36 4 0
BITMAP
000F00
000F00
000F00
000F00
00F000
00F000
00F000
00F000
000000
000000
000000
000000
F000F0
F000F0
F000F0
F000F0
F000F0
F000F0
F000F0
F000F0
F000F0
F000F0
F000F0
F000F0
F000F0
F000F0
F000F0
F000F0
F000F0
F000F0
F000F0
F000F0
0FFFF0
0FFFF0
0FFFF0
0FFFF0
ENDCHAR
STARTCHAR ucircumflex
ENCODING 251
SWIDTH 2000 0
DWIDTH 24 0
BBX 20 36 4 0
BITMAP
00F000
00F000
00F000
00F000
0F0F00
0F0F00
0F0F00
0F0F00
000000
000000
000000
000000
F000F0
F000F0
F000F0
F000F0
F000F0
F000F0
F000F0
F000F0
F000F0
F000F0
F000F0
F000F0
F000F0
F000F0
F000F0
F000F0
F000F0
F000F0
F000F0
F000F0
0FFFF0
0FFFF0
0FFFF0
0FFFF0
ENDCHAR
STARTCHAR udieresis
ENCODING 252
SWIDTH 2000 0
DWIDTH 24 0
BBX 20 32 4 0
BITMAP
0F0F00
0F0F00
0F0F00
0F0F00
000000
000000
000000
000000
F000F0
F000F0
F000F0
F000F0
F000F0
F000F0
F000F0
F000F0
F000F0
F000F0
F000F0
F000F0
F000F0
F000F0
F000F0
F000F0
F000F0
F000F0
F000F0
F000F0
0FFFF0
0FFFF0
0FFFF0
0FFFF0
ENDCHAR
STARTCHAR yacute
ENCODING 253
SWIDTH 2000 0
DWIDTH 24 0
BBX 20 48 4 -12
BITMAP
000F00
000F00
000F00
000F00
00F000
00F000
00F000
00F000
000000
000000
000000
000000
F000F0
F000F0
F000F0
F000F0
F000F0
F000F0
F000F0
F000F0
F000F0
F000F0
F000F0
F000F0
F000F0
F000F0
F000F0
F000F0
F000F0
F000F0
F000F0
F000F0
0FFFF0
0FFFF0
0FFFF0
0FFFF0
0000F0
0000F0
0000F0
0000F0
0000F0
0000F0
0000F0
0000F0
0FFF00
0FFF00
0FFF00
0FFF00
ENDCHAR
STARTCHAR thorn
ENCODING 254
SWIDTH 2000 0
DWIDTH 24 0
BBX 20 40 4 -8
BITMAP
F00000
F00000
F00000
F00000
F00000
F00000
F00000
F00000
FFFF00
FFFF00
FFFF00
FFFF00
F000F0
F000F0
F000F0
F000F0
F000F0
F000F0
F000F0
F000F0
F000F0
F000F0
F000F0
F000F0
F000F0
F000F0
F000F0
F000F0
FFFF00
FFFF00
FFFF00
FFFF00
F00000
F00000
F00000
F00000
F00000
F00000
F00000
F00000
ENDCHAR
STARTCHAR ydieresis
ENCODING 255
SWIDTH 2000 0
DWIDTH 24 0
BBX 20 44 4 -12
BITMAP
0F0F00
0F0F00
0F0F00
0F0F00
000000
000000
000000
000000
F000F0
F000F0
F000F0
F000F0
F000F0
F000F0
F000F0
F000F0
F000F0
F000F0
F000F0
F000F0
F000F0
F000F0
F000F0
F000F0
F000F0
F000F0
F000F0
F000F0
0FFFF0
0FFFF0
0FFFF0
0FFFF0
0000F0
0000F0
0000F0
0000F0
0000F0
0000F0
0000F0
0000F0
0FFF00
0FFF00
0FFF00
0FFF00
ENDCHAR
STARTCHAR Amacron
ENCODING 256
SWIDTH 2000 0
DWIDTH 24 0
BBX 20 36 4 0
BITMAP
0FFF00
0FFF00
0FFF00
0FFF00
000000
000000
000000
000000
0FFF00
0FFF00
0FFF00
0FFF00
F000F0
F000F0
F000F0
F000F0
F000F0
F000F0
F000F0
F000F0
FFFFF0
FFFFF0
FFFFF0
FFFFF0
F000F0
F000F0
F000F0
F000F0
F000F0
F000F0
F000F0
F000F0
F000F0
F000F0
F000F0
F000F0
ENDCHAR
STARTCHAR amacron
ENCODING 257
SWIDTH 2000 0
DWIDTH 24 0
BBX 20 32 4 0
BITMAP
0FFF00
0FFF00
0FFF00
0FFF00
000000
000000
000000
000000
0FFFF0
0FFFF0
0FFFF0
0FFFF0
F000F0
F000F0
F000F0
F000F0
F000F0
F000F0
F000F0
F000F0
F000F0
F000F0
F000F0
F000F0
F00FF0
F00FF0
F00FF0
F00FF0
0FF0F0
0FF0F0
0FF0F0
0FF0F0
ENDCHAR
STARTCHAR Abreve
ENCODING 258
SWIDTH 2000 0
DWIDTH 24 0
BBX 20 40 4 0
BITMAP
0F0F00
0F0F00
0F0F00
0F0F00
0FFF00
0FFF00
0FFF00
0FFF00
000000
000000
000000
000000
0FFF00
0FFF00
0FFF00
0FFF00
F000F0
F000F0
F000F0
F000F0
F000F0
F000F0
F000F0
F000F0
FFFFF0
FFFFF0
FFFFF0
FFFFF0
F000F0
F000F0
F000F0
F000F0
F000F0
F000F0
F000F0
F000F0
F000F0
F000F0
F000F0
F000F0
ENDCHAR
STARTCHAR abreve
ENCODING 259
SWIDTH 2000 0
DWIDTH 24 0
BBX 20 36 4 0
BITMAP
0F0F00
0F0F00
0F0F00
0F0F00
0FFF00
0FFF00
0FFF00
0FFF00
000000
000000
000000
000000
0FFFF0
0FFFF0
0FFFF0
0FFFF0
F000F0
F000F0
F000F0
F000F0
F000F0
F000F0
F000F0
F000F0
F000F0
F000F0
F000F0
F000F0
F00FF0
F00FF0
F00FF0
F00FF0
0FF0F0
0FF0F0
0FF0F0
0FF0F0
ENDCHAR
STARTCHAR Aogonek
ENCODING 260
SWIDTH 2000 0
DWIDTH 24 0
BBX 20 40 4 -8
BITMAP
0FFF00
0FFF00
0FFF00
0FFF00
F000F0
F000F0
F000F0
F000F0
F000F0
F000F0
F000F0
F000F0
F000F0
F000F0
F000F0
F000F0
FFFFF0
FFFFF0
FFFFF0
FFFFF0
F000F0
F000F0
F000F0
F000F0
F000F0
F000F0
F000F0
F000F0
F000F0
F000F0
F000F0
F000F0
000F00
000F00
000F00
000F00
000FF0
000FF0
000FF0
000FF0
ENDCHAR
STARTCHAR aogonek
ENCODING 261
SWIDTH 2000 0
DWIDTH 24 0
BBX 20 32 4 -8
BITMAP
0FFF00
0FFF00
0FFF00
0FFF00
F000F0
F000F0
F000F0
F000F0
F000F0
F000F0
F000F0
F000F0
F000F0
F000F0
F000F0
F000F0
F00FF0
F00FF0
F00FF0
F00FF0
0FF0F0
0FF0F0
0FF0F0
0FF0F0
000F00
000F00
000F00
000F00
000FF0
000FF0
000FF0
000FF0
ENDCHAR
STARTCHAR Cacute
ENCODING 262
SWIDTH 2000 0
DWIDTH 24 0
BBX 20 40 4 0
BITMAP
000F00
000F00
000F00
000F00
00F000
00F000
00F000
00F000
000000
000000
000000
000000
0FFF00
0FFF00
0FFF00
0FFF00
F000F0
F000F0
F000F0
F000F0
F00000
F00000
F00000
F00000
F00000
F00000
F00000
F00000
F00000
F00000
F00000
F00000
F000F0
F000F0
F000F0
F000F0
0FFF00
0FFF00
0FFF00
0FFF00
ENDCHAR
STARTCHAR cacute
ENCODING 263
SWIDTH 2000 0
DWIDTH 24 0
BBX 20 36 4 0
BITMAP
000F00
000F00
000F00
000F00
00F000
00F000
00F000
00F000
000000
000000
000000
000000
0FFF00
0FFF00
0FFF00
0FFF00
F000F0
F000F0
F000F0
F000F0
F00000
F00000
F00000
F00000
F00000
F00000
F00000
F00000
F000F0
F000F0
F000F0
F000F0
0FFF00
0FFF00
0FFF00
0FFF00
ENDCHAR
STARTCHAR Ccircumflex
ENCODING 264
SWIDTH 2000 0
DWIDTH 24 0
BBX 20 40 4 0
BITMAP
00F000
00F000
00F000
00F000
0F0F00
0F0F00
0F0F00
0F0F00
000000
000000
000000
000000
0FFF00
0FFF00
0FFF00
0FFF00
F000F0
F000F0
F000F0
F000F0
F00000
F00000
F00000
F00000
F00000
F00000
F00000
F00000
F00000
F00000
F00000
F00000
F000F0
F000F0
F000F0
F000F0
0FFF00
0FFF00
0FFF00
0FFF00
ENDCHAR
STARTCHAR ccircumflex
ENCODING 265
SWIDTH 2000 0
DWIDTH 24 0
BBX 20 36 4 0
BITMAP
00F000
00F000
00F000
00F000
0F0F00
0F0F00
0F0F00
0F0F00
000000
000000
000000
000000
0FFF00
0FFF00
0FFF00
0FFF00
F000F0
F000F0
F000F0
F000F0
F00000
F00000
F00000
F00000
F00000
F00000
F00000
F00000
F000F0
F000F0
F000F0
F000F0
0FFF00
0FFF00
0FFF00
0FFF00
ENDCHAR
STARTCHAR Cdotaccent
ENCODING 266
SWIDTH 2000 0
DWIDTH 24 0
BBX 20 40 4 0
BITMAP
00F000
00F000
00F000
00F000
000000
000000
000000
000000
0FFF00
0FFF00
0FFF00
0FFF00
F000F0
F000F0
F000F0
F000F0
F00000
F00000
F00000
F00000
F00000
F00000
F00000
F00000
F00000
F00000
F00000
F00000
F00000
F00000
F00000
F00000
F000F0
F000F0
F000F0
F000F0
0FFF00
0FFF00
0FFF00
0FFF00
ENDCHAR
STARTCHAR cdotaccent
ENCODING 267
SWIDTH 2000 0
DWIDTH 24 0
BBX 20 32 4 0
BITMAP
00F000
00F000
00F000
00F000
000000
000000
000000
000000
0FFF00
0FFF00
0FFF00
0FFF00
F000F0
F000F0
F000F0
F000F0
F00000
F00000
F00000
F00000
F00000
F00000
F00000
F00000
F000F0
F000F0
F000F0
F000F0
0FFF00
0FFF00
0FFF00
0FFF00
ENDCHAR
STARTCHAR Ccaron
ENCODING 268
SWIDTH 2000 0
DWIDTH 24 0
BBX 20 40 4 0
BITMAP
0F0F00
0F0F00
0F0F00
0F0F00
00F000
00F000
00F000
00F000
000000
000000
000000
000000
0FFF00
0FFF00
0FFF00
0FFF00
F000F0
F000F0
F000F0
F000F0
F00000
F00000
F00000
F00000
F00000
F00000
F00000
F00000
F00000
F00000
F00000
F00000
F000F0
F000F0
F000F0
F000F0
0FFF00
0FFF00
0FFF00
0FFF00
ENDCHAR
STARTCHAR ccaron
ENCODING 269
SWIDTH 2000 0
DWIDTH 24 0
BBX 20 36 4 0
BITMAP
0F0F00
0F0F00
0F0F00
0F0F00
00F000
00F000
00F000
00F000
000000
000000
000000
000000
0FFF00
0FFF00
0FFF00
0FFF00
F000F0
F000F0
F000F0
F000F0
F00000
F00000
F00000
F00000
F00000
F00000
F00000
F00000
F000F0
F000F0
F000F0
F000F0
0FFF00
0FFF00
0FFF00
0FFF00
ENDCHAR
STARTCHAR Dcaron
ENCODING 270
SWIDTH 2000 0
DWIDTH 24 0
BBX 20 40 4 0
BITMAP
0F0F00
0F0F00
0F0F00
0F0F00
00F000
00F000
00F000
00F000
000000
000000
000000
000000
FFF000
FFF000
FFF000
FFF000
F00F00
F00F00
F00F00
F00F00
F000F0
F000F0
F000F0
F000F0
F000F0
F000F0
F000F0
F000F0
F000F0
F000F0
F000F0
F000F0
F00F00
F00F00
F00F00
F00F00
FFF000
FFF000
FFF000
FFF000
ENDCHAR
STARTCHAR dcaron
ENCODING 271
SWIDTH 2000 0
DWIDTH 24 0
BBX 24 36 4 0
BITMAP
000F0F
000F0F
000F0F
000F0F
000FF0
000FF0
000FF0
000FF0
000F00
000F00
000F00
000F00
0FFF00
0FFF00
0FFF00
0FFF00
F00F00
F00F00
F00F00
F00F00
F00F00
F00F00
F00F00
F00F00
F00F00
F00F00
F00F00
F00F00
F00F00
F00F00
F00F00
F00F00
0FFF00
0FFF00
0FFF00
0FFF00
ENDCHAR
STARTCHAR Dcroat
ENCODING 272
SWIDTH 2000 0
DWIDTH 24 0
BBX 20 32 4 0
BITMAP
0FF000
0FF000
0FF000
0FF000
0F0F00
0F0F00
0F0F00
0F0F00
0F00F0
0F00F0
0F00F0
0F00F0
0F00F0
0F00F0
0F00F0
0F00F0
FFF0F0
FFF0F0
FFF0F0
FFF0F0
0F00F0
0F00F0
0F00F0
0F00F0
0F0F00
0F0F00
0F0F00
0F0F00
0FF000
0FF000
0FF000
0FF000
ENDCHAR
STARTCHAR dcroat
ENCODING 273
SWIDTH 2000 0
DWIDTH 24 0
BBX 20 36 4 0
BITMAP
000F00
000F00
000F00
000F00
0FFFF0
0FFFF0
0FFFF0
0FFFF0
000F00
000F00
000F00
000F00
0FFF00
0FFF00
0FFF00
0FFF00
F00F00
F00F00
F00F00
F00F00
F00F00
F00F00
F00F00
F00F00
F00F00
F00F00
F00F00
F00F00
F00F00
F00F00
F00F00
F00F00
0FFF00
0FFF00
0FFF00
0FFF00
ENDCHAR
STARTCHAR Emacron
ENCODING 274
SWIDTH 2000 0
DWIDTH 24 0
BBX 20 40 4 0
BITMAP
0FFF00
0FFF00
0FFF00
0FFF00
000000
000000
000000
000000
FFFFF0
FFFFF0
FFFFF0
FFFFF0
F00000
F00000
F00000
F00000
F00000
F00000
F00000
F00000
FFFF00
FFFF00
FFFF00
FFFF00
F00000
F00000
F00000
F00000
F00000
F00000
F00000
F00000
F00000
F00000
F00000
F00000
FFFFF0
FFFFF0
FFFFF0
FFFFF0
ENDCHAR
STARTCHAR emacron
ENCODING 275
SWIDTH 2000 0
DWIDTH 24 0
BBX 20 32 4 0
BITMAP
0FFF00
0FFF00
0FFF00
0FFF00
000000
000000
000000
000000
0FFF00
0FFF00
0FFF00
0FFF00
F000F0
F000F0
F000F0
F000F0
FFFFF0
FFFFF0
FFFFF0
FFFFF0
F00000
F00000
F00000
F00000
F000F0
F000F0
F000F0
F000F0
0FFF00
0FFF00
0FFF00
0FFF00
ENDCHAR
STARTCHAR Ebreve
ENCODING 276
SWIDTH 2000 0
DWIDTH 24 0
BBX 20 40 4 0
BITMAP
0F0F00
0F0F00
0F0F00
0F0F00
0FFF00
0FFF00
0FFF00
0FFF00
000000
000000
000000
000000
FFFFF0
FFFFF0
FFFFF0
FFFFF0
F00000
F00000
F00000
F00000
F00000
F00000
F00000
F00000
FFFF00
FFFF00
FFFF00
FFFF00
F00000
F00000
F00000
F00000
F00000
F00000
F00000
F00000
FFFFF0
FFFFF0
FFFFF0
FFFFF0
ENDCHAR
STARTCHAR ebreve
ENCODING 277
SWIDTH 2000 0
DWIDTH 24 0
BBX 20 36 4 0
BITMAP
0F0F00
0F0F00
0F0F00
0F0F00
0FFF00
0FFF00
0FFF00
0FFF00
000000
000000
000000
000000
0FFF00
0FFF00
0FFF00
0FFF00
F000F0
F000F0
F000F0
F000F0
FFFFF0
FFFFF0
FFFFF0
FFFFF0
F00000
F00000
F00000
F00000
F000F0
F000F0
F000F0
F000F0
0FFF00
0FFF00
0FFF00
0FFF00
ENDCHAR
STARTCHAR Edotaccent
ENCODING 278
SWIDTH 2000 0
DWIDTH 24 0
BBX 20 40 4 0
BITMAP
00F000
00F000
00F000
00F000
000000
000000
000000
000000
FFFFF0
FFFFF0
FFFFF0
FFFFF0
F00000
F00000
F00000
F00000
F00000
F00000
F00000
F00000
FFFF00
FFFF00
FFFF00
FFFF00
F00000
F00000
F00000
F00000
F00000
F00000
F00000
F00000
F00000
F00000
F00000
F00000
FFFFF0
FFFFF0
FFFFF0
FFFFF0
ENDCHAR
STARTCHAR edotaccent
ENCODING 279
SWIDTH 2000 0
DWIDTH 24 0
BBX 20 32 4 0
BITMAP
00F000
00F000
00F000
00F000
000000
000000
000000
000000
0FFF00
0FFF00
0FFF00
0FFF00
F000F0
F000F0
F000F0
F000F0
FFFFF0
FFFFF0
FFFFF0
FFFFF0
F00000
F00000
F00000
F00000
F000F0
F000F0
F000F0
F000F0
0FFF00
0FFF00
0FFF00
0FFF00
ENDCHAR
STARTCHAR Eogonek
ENCODING 280
SWIDTH 2000 0
DWIDTH 24 0
BBX 20 40 4 -8
BITMAP
FFFFF0
FFFFF0
FFFFF0
FFFFF0
F00000
F00000
F00000
F00000
F00000
F00000
F00000
F00000
FFFF00
FFFF00
FFFF00
FFFF00
F00000
F00000
F00000
F00000
F00000
F00000
F00000
F00000
F00000
F00000
F00000
F00000
FFFFF0
FFFFF0
FFFFF0
FFFFF0
000F00
000F00
000F00
000F00
000FF0
000FF0
000FF0
000FF0
ENDCHAR
STARTCHAR eogonek
ENCODING 281
SWIDTH 2000 0
DWIDTH 24 0
BBX 20 32 4 -8
BITMAP
0FFF00
0FFF00
0FFF00
0FFF00
F000F0
F000F0
F000F0
F000F0
FFFFF0
FFFFF0
FFFFF0
FFFFF0
F00000
F00000
F00000
F00000
F000F0
F000F0
F000F0
F000F0
0FFF00
0FFF00
0FFF00
0FFF00
000F00
000F00
000F00
000F00
000FF0
000FF0
000FF0
000FF0
ENDCHAR
STARTCHAR Ecaron
ENCODING 282
SWIDTH 2000 0
DWIDTH 24 0
BBX 20 40 4 0
BITMAP
0F0F00
0F0F00
0F0F00
0F0F00
00F000
00F000
00F000
00F000
000000
000000
000000
000000
FFFFF0
FFFFF0
FFFFF0
FFFFF0
F00000
F00000
F00000
F00000
F00000
F00000
F00000
F00000
FFFF00
FFFF00
FFFF00
FFFF00
F00000
F00000
F00000
F00000
F00000
F00000
F00000
F00000
FFFFF0
FFFFF0
FFFFF0
FFFFF0
ENDCHAR
STARTCHAR ecaron
ENCODING 283
SWIDTH 2000 0
DWIDTH 24 0
BBX 20 36 4 0
BITMAP
0F0F00
0F0F00
0F0F00
0F0F00
00F000
00F000
00F000
00F000
000000
000000
000000
000000
0FFF00
0FFF00
0FFF00
0FFF00
F000F0
F000F0
F000F0
F000F0
FFFFF0
FFFFF0
FFFFF0
FFFFF0
F00000
F00000
F00000
F00000
F000F0
F000F0
F000F0
F000F0
0FFF00
0FFF00
0FFF00
0FFF00
ENDCHAR
STARTCHAR Gcircumflex
ENCODING 284
SWIDTH 2000 0
DWIDTH 24 0
BBX 20 40 4 0
BITMAP
00F000
00F000
00F000
00F000
0F0F00
0F0F00
0F0F00
0F0F00
000000
000000
000000
000000
0FFF00
0FFF00
0FFF00
0FFF00
F000F0
F000F0
F000F0
F000F0
F00000
F00000
F00000
F00000
F00FF0
F00FF0
F00FF0
F00FF0
F000F0
F000F0
F000F0
F000F0
F000F0
F000F0
F000F0
F000F0
0FFF00
0FFF00
0FFF00
0FFF00
ENDCHAR
STARTCHAR gcircumflex
ENCODING 285
SWIDTH 2000 0
DWIDTH 24 0
BBX 20 48 4 -12
BITMAP
00F000
00F000
00F000
00F000
0F0F00
0F0F00
0F0F00
0F0F00
000000
000000
000000
000000
0FFFF0
0FFFF0
0FFFF0
0FFFF0
F000F0
F000F0
F000F0
F000F0
F000F0
F000F0
F000F0
F000F0
F000F0
F000F0
F000F0
F000F0
F000F0
F000F0
F000F0
F000F0
0FFFF0
0FFFF0
0FFFF0
0FFFF0
0000F0
0000F0
0000F0
0000F0
0000F0
0000F0
0000F0
0000F0
0FFF00
0FFF00
0FFF00
0FFF00
ENDCHAR
STARTCHAR Gbreve
ENCODING 286
SWIDTH 2000 0
DWIDTH 24 0
BBX 20 40 4 0
BITMAP
0F0F00
0F0F00
0F0F00
0F0F00
0FFF00
0FFF00
0FFF00
0FFF00
000000
000000
000000
000000
0FFF00
0FFF00
0FFF00
0FFF00
F000F0
F000F0
F000F0
F000F0
F00000
F00000
F00000
F00000
F00FF0
F00FF0
F00FF0
F00FF0
F000F0
F000F0
F000F0
F000F0
F000F0
F000F0
F000F0
F000F0
0FFF00
0FFF00
0FFF00
0FFF00
ENDCHAR
STARTCHAR gbreve
ENCODING 287
SWIDTH 2000 0
DWIDTH 24 0
BBX 20 48 4 -12
BITMAP
0F0F00
0F0F00
0F0F00
0F0F00
0FFF00
0FFF00
0FFF00
0FFF00
000000
000000
000000
000000
0FFFF0
0FFFF0
0FFFF0
0FFFF0
F000F0
F000F0
F000F0
F000F0
F000F0
F000F0
F000F0
F000F0
F000F0
F000F0
F000F0
F000F0
F000F0
F000F0
F000F0
F000F0
0FFFF0
0FFFF0
0FFFF0
0FFFF0
0000F0
0000F0
0000F0
0000F0
0000F0
0000F0
0000F0
0000F0
0FFF00
0FFF00
0FFF00
0FFF00
ENDCHAR
STARTCHAR Gdotaccent
ENCODING 288
SWIDTH 2000 0
DWIDTH 24 0
BBX 20 40 4 0
BITMAP
00F000
00F000
00F000
00F000
000000
000000
000000
000000
0FFF00
0FFF00
0FFF00
0FFF00
F000F0
F000F0
F000F0
F000F0
F00000
F00000
F00000
F00000
F00000
F00000
F00000
F00000
F00FF0
F00FF0
F00FF0
F00FF0
F000F0
F000F0
F000F0
F000F0
F000F0
F000F0
F000F0
F000F0
0FFF00
0FFF00
0FFF00
0FFF00
ENDCHAR
STARTCHAR gdotaccent
ENCODING 289
SWIDTH 2000 0
DWIDTH 24 0
BBX 20 44 4 -12
BITMAP
00F000
00F000
00F000
00F000
000000
000000
000000
000000
0FFFF0
0FFFF0
0FFFF0
0FFFF0
F000F0
F000F0
F000F0
F000F0
F000F0
F000F0
F000F0
F000F0
F000F0
F000F0
F000F0
F000F0
F000F0
F000F0
F000F0
F000F0
0FFFF0
0FFFF0
0FFFF0
0FFFF0
0000F0
0000F0
0000F0
0000F0
0000F0
0000F0
0000F0
0000F0
0FFF00
0FFF00
0FFF00
0FFF00
ENDCHAR
STARTCHAR Gcommaaccent
ENCODING 290
SWIDTH 2000 0
DWIDTH 24 0
BBX 20 44 4 -12
BITMAP
0FFF00
0FFF00
0FFF00
0FFF00
F000F0
F000F0
F000F0
F000F0
F00000
F00000
F00000
F00000
F00000
F00000
F00000
F00000
F00FF0
F00FF0
F00FF0
F00FF0
F000F0
F000F0
F000F0
F000F0
F000F0
F000F0
F000F0
F000F0
0FFF00
0FFF00
0FFF00
0FFF00
000000
000000
000000
000000
00F000
00F000
00F000
00F000
0F0000
0F0000
0F0000
0F0000
ENDCHAR
STARTCHAR gcommaaccent
ENCODING 291
SWIDTH 2000 0
DWIDTH 24 0
BBX 20 48 4 -12
BITMAP
000F00
000F00
000F00
000F00
00F000
00F000
00F000
00F000
000000
000000
000000
000000
0FFFF0
0FFFF0
0FFFF0
0FFFF0
F000F0
F000F0
F000F0
F000F0
F000F0
F000F0
F000F0
F000F0
F000F0
F000F0
F000F0
F000F0
F000F0
F000F0
F000F0
F000F0
0FFFF0
0FFFF0
0FFFF0
0FFFF0
0000F0
0000F0
0000F0
0000F0
0000F0
0000F0
0000F0
0000F0
0FFF00
0FFF00
0FFF00
0FFF00
ENDCHAR
STARTCHAR Hcircumflex
ENCODING 292
SWIDTH 2000 0
DWIDTH 24 0
BBX 20 40 4 0
BITMAP
00F000
00F000
00F000
00F000
0F0F00
0F0F00
0F0F00
0F0F00
000000
000000
000000
000000
F000F0
F000F0
F000F0
F000F0
F000F0
F000F0
F000F0
F000F0
F000F0
F000F0
F000F0
F000F0
FFFFF0
FFFFF0
FFFFF0
FFFFF0
F000F0
F000F0
F000F0
F000F0
F000F0
F000F0
F000F0
F000F0
F000F0
F000F0
F000F0
F000F0
ENDCHAR
STARTCHAR hcircumflex
ENCODING 293
SWIDTH 2000 0
DWIDTH 24 0
BBX 16 40 8 0
BITMAP
0F00
0F00
0F00
0F00
F0F0
F0F0
F0F0
F0F0
0000
0000
0000
0000
F000
F000
F000
F000
F000
F000
F000
F000
FFF0
FFF0
FFF0
FFF0
F00F
F00F
F00F
F00F
F00F
F00F
F00F
F00F
F00F
F00F
F00F
F00F
F00F
F00F
F00F
F00F
ENDCHAR
STARTCHAR Hbar
ENCODING 294
SWIDTH 2000 0
DWIDTH 24 0
BBX 28 32 0 0
BITMAP
0F000F00
0F000F00
0F000F00
0F000F00
FFFFFFF0
FFFFFFF0
FFFFFFF0
FFFFFFF0
0F000F00
0F000F00
0F000F00
0F000F00
0FFFFF00
0FFFFF00
0FFFFF00
0FFFFF00
0F000F00
0F000F00
0F000F00
0F000F00
0F000F00
0F000F00
0F000F00
0F000F00
0F000F00
0F000F00
0F000F00
0F000F00
0F000F00
0F000F00
0F000F00
0F000F00
ENDCHAR
STARTCHAR hbar
ENCODING 295
SWIDTH 2000 0
DWIDTH 24 0
BBX 20 36 4 0
BITMAP
0F0000
0F0000
0F0000
0F0000
FFF000
FFF000
FFF000
FFF000
0F0000
0F0000
0F0000
0F0000
0FFF00
0FFF00
0FFF00
0FFF00
0F00F0
0F00F0
0F00F0
0F00F0
0F00F0
0F00F0
0F00F0
0F00F0
0F00F0
0F00F0
0F00F0
0F00F0
0F00F0
0F00F0
0F00F0
0F00F0
0F00F0
0F00F0
0F00F0
0F00F0
ENDCHAR
STARTCHAR Itilde
ENCODING 296
SWIDTH 2000 0
DWIDTH 24 0
BBX 20 40 4 0
BITMAP
0FF0F0
0FF0F0
0FF0F0
0FF0F0
F0FF00
F0FF00
F0FF00
F0FF00
000000
000000
000000
000000
0FFF00
0FFF00
0FFF00
0FFF00
00F000
00F000
00F000
00F000
00F000
00F000
00F000
00F000
00F000
00F000
00F000
00F000
00F000
00F000
00F000
00F000
00F000
00F000
00F000
00F000
0FFF00
0FFF00
0FFF00
0FFF00
ENDCHAR
STARTCHAR itilde
ENCODING 297
SWIDTH 2000 0
DWIDTH 24 0
BBX 20 36 4 0
BITMAP
0FF0F0
0FF0F0
0FF0F0
0FF0F0
F0FF00
F0FF00
F0FF00
F0FF00
000000
000000
000000
000000
0FF000
0FF000
0FF000
0FF000
00F000
00F000
00F000
00F000
00F000
00F000
00F000
00F000
00F000
00F000
00F000
00F000
00F000
00F000
00F000
00F000
000FF0
000FF0
000FF0
000FF0
ENDCHAR
STARTCHAR Imacron
ENCODING 298
SWIDTH 2000 0
DWIDTH 24 0
BBX 12 40 8 0
BITMAP
FFF0
FFF0
FFF0
FFF0
0000
0000
0000
0000
FFF0
FFF0
FFF0
FFF0
0F00
0F00
0F00
0F00
0F00
0F00
0F00
0F00
0F00
0F00
0F00
0F00
0F00
0F00
0F00
0F00
0F00
0F00
0F00
0F00
0F00
0F00
0F00
0F00
FFF0
FFF0
FFF0
FFF0
ENDCHAR
STARTCHAR imacron
ENCODING 299
SWIDTH 2000 0
DWIDTH 24 0
BBX 16 32 8 0
BITMAP
FFF0
FFF0
FFF0
FFF0
0000
0000
0000
0000
FF00
FF00
FF00
FF00
0F00
0F00
0F00
0F00
0F00
0F00
0F00
0F00
0F00
0F00
0F00
0F00
0F00
0F00
0F00
0F00
00FF
00FF
00FF
00FF
ENDCHAR
STARTCHAR Ibreve
ENCODING 300
SWIDTH 2000 0
DWIDTH 24 0
BBX 12 40 8 0
BITMAP
F0F0
F0F0
F0F0
F0F0
FFF0
FFF0
FFF0
FFF0
0000
0000
0000
0000
FFF0
FFF0
FFF0
FFF0
0F00
0F00
0F00
0F00
0F00
0F00
0F00
0F00
0F00
0F00
0F00
0F00
0F00
0F00
0F00
0F00
0F00
0F00
0F00
0F00
FFF0
FFF0
FFF0
FFF0
ENDCHAR
STARTCHAR ibreve
ENCODING 301
SWIDTH 2000 0
DWIDTH 24 0
BBX 16 36 8 0
BITMAP
F0F0
F0F0
F0F0
F0F0
FFF0
FFF0
FFF0
FFF0
0000
0000
0000
0000
FF00
FF00
FF00
FF00
0F00
0F00
0F00
0F00
0F00
0F00
0F00
0F00
0F00
0F00
0F00
0F00
0F00
0F00
0F00
0F00
00FF
00FF
00FF
00FF
ENDCHAR
STARTCHAR Iogonek
ENCODING 302
SWIDTH 2000 0
DWIDTH 24 0
BBX 12 40 8 -8
BITMAP
FFF0
FFF0
FFF0
FFF0
0F00
0F00
0F00
0F00
0F00
0F00
0F00
0F00
0F00
0F00
0F00
0F00
0F00
0F00
0F00
0F00
0F00
0F00
0F00
0F00
0F00
0F00
0F00
0F00
FFF0
FFF0
FFF0
FFF0
0F00
0F00
0F00
0F00
0FF0
0FF0
0FF0
0FF0
ENDCHAR
STARTCHAR iogonek
ENCODING 303
SWIDTH 2000 0
DWIDTH 24 0
BBX 16 40 8 -8
BITMAP
0F00
0F00
0F00
0F00
0000
0000
0000
0000
FF00
FF00
FF00
FF00
0F00
0F00
0F00
0F00
0F00
0F00
0F00
0F00
0F00
0F00
0F00
0F00
0F00
0F00
0F00
0F00
00FF
00FF
00FF
00FF
00F0
00F0
00F0
00F0
00FF
00FF
00FF
00FF
ENDCHAR
STARTCHAR Idotaccent
ENCODING 304
SWIDTH 2000 0
DWIDTH 24 0
BBX 12 40 8 0
BITMAP
0F00
0F00
0F00
0F00
0000
0000
0000
0000
FFF0
FFF0
FFF0
FFF0
0F00
0F00
0F00
0F00
0F00
0F00
0F00
0F00
0F00
0F00
0F00
0F00
0F00
0F00
0F00
0F00
0F00
0F00
0F00
0F00
0F00
0F00
0F00
0F00
FFF0
FFF0
FFF0
FFF0
ENDCHAR
STARTCHAR dotlessi
ENCODING 305
SWIDTH 2000 0
DWIDTH 24 0
BBX 16 24 8 0
BITMAP
FF00
FF00
FF00
FF00
0F00
0F00
0F00
0F00
0F00
0F00
0F00
0F00
0F00
0F00
0F00
0F00
0F00
0F00
0F00
0F00
00FF
00FF
00FF
00FF
ENDCHAR
STARTCHAR IJ
ENCODING 306
SWIDTH 2000 0
DWIDTH 24 0
BBX 20 44 4 -8
BITMAP
FFFFF0
FFFFF0
FFFFF0
FFFFF0
0F00F0
0F00F0
0F00F0
0F00F0
0F00F0
0F00F0
0F00F0
0F00F0
0F00F0
0F00F0
0F00F0
0F00F0
0F00F0
0F00F0
0F00F0
0F00F0
0F00F0
0F00F0
0F00F0
0F00F0
0F00F0
0F00F0
0F00F0
0F00F0
0F00F0
0F00F0
0F00F0
0F00F0
FFF0F0
FFF0F0
FFF0F0
FFF0F0
0000F0
0000F0
0000F0
0000F0
000F00
000F00
000F00
000F00
ENDCHAR
STARTCHAR ij
ENCODING 307
SWIDTH 2000 0
DWIDTH 24 0
BBX 20 40 4 -8
BITMAP
0F00F0
0F00F0
0F00F0
0F00F0
000000
000000
000000
000000
FF0FF0
FF0FF0
FF0FF0
FF0FF0
0F00F0
0F00F0
0F00F0
0F00F0
0F00F0
0F00F0
0F00F0
0F00F0
0F00F0
0F00F0
0F00F0
0F00F0
0F00F0
0F00F0
0F00F0
0F00F0
00F0F0
00F0F0
00F0F0
00F0F0
0000F0
0000F0
0000F0
0000F0
000F00
000F00
000F00
000F00
ENDCHAR
STARTCHAR Jcircumflex
ENCODING 308
SWIDTH 2000 0
DWIDTH 24 0
BBX 20 40 4 0
BITMAP
000F00
000F00
000F00
000F00
00F0F0
00F0F0
00F0F0
00F0F0
000000
000000
000000
000000
00FFF0
00FFF0
00FFF0
00FFF0
0000F0
0000F0
0000F0
0000F0
0000F0
0000F0
0000F0
0000F0
0000F0
0000F0
0000F0
0000F0
F000F0
F000F0
F000F0
F000F0
F000F0
F000F0
F000F0
F000F0
0FFF00
0FFF00
0FFF00
0FFF00
ENDCHAR
STARTCHAR jcircumflex
ENCODING 309
SWIDTH 2000 0
DWIDTH 24 0
BBX 20 44 4 -8
BITMAP
000F00
000F00
000F00
000F00
00F0F0
00F0F0
00F0F0
00F0F0
000000
000000
000000
000000
00FF00
00FF00
00FF00
00FF00
000F00
000F00
000F00
000F00
000F00
000F00
000F00
000F00
000F00
000F00
000F00
000F00
000F00
000F00
000F00
000F00
000F00
000F00
000F00
000F00
000F00
000F00
000F00
000F00
FFF000
FFF000
FFF000
FFF000
ENDCHAR
STARTCHAR Kcommaaccent
ENCODING 310
SWIDTH 2000 0
DWIDTH 24 0
BBX 20 40 4 -8
BITMAP
F000F0
F000F0
F000F0
F000F0
F00F00
F00F00
F00F00
F00F00
F0F000
F0F000
F0F000
F0F000
FFF000
FFF000
FFF000
FFF000
F00F00
F00F00
F00F00
F00F00
F00F00
F00F00
F00F00
F00F00
F000F0
F000F0
F000F0
F000F0
F000F0
F000F0
F000F0
F000F0
00F000
00F000
00F000
00F000
0F0000
0F0000
0F0000
0F0000
ENDCHAR
STARTCHAR kcommaaccent
ENCODING 311
SWIDTH 2000 0
DWIDTH 24 0
BBX 20 44 4 -8
BITMAP
F00000
F00000
F00000
F00000
F00000
F00000
F00000
F00000
F00000
F00000
F00000
F00000
F000F0
F000F0
F000F0
F000F0
F00F00
F00F00
F00F00
F00F00
F0F000
F0F000
F0F000
F0F000
FFF000
FFF000
FFF000
FFF000
F00F00
F00F00
F00F00
F00F00
F000F0
F000F0
F000F0
F000F0
00F000
00F000
00F000
00F000
0F0000
0F0000
0F0000
0F0000
ENDCHAR
STARTCHAR kgreenlandic
ENCODING 312
SWIDTH 2000 0
DWIDTH 24 0
BBX 20 24 4 0
BITMAP
F000F0
F000F0
F000F0
F000F0
F00F00
F00F00
F00F00
F00F00
F0F000
F0F000
F0F000
F0F000
FFF000
FFF000
FFF000
FFF000
F00F00
F00F00
F00F00
F00F00
F000F0
F000F0
F000F0
F000F0
ENDCHAR
STARTCHAR Lacute
ENCODING 313
SWIDTH 2000 0
DWIDTH 24 0
BBX 20 40 4 0
BITMAP
0F0000
0F0000
0F0000
0F0000
F00000
F00000
F00000
F00000
000000
000000
000000
000000
F00000
F00000
F00000
F00000
F00000
F00000
F00000
F00000
F00000
F00000
F00000
F00000
F00000
F00000
F00000
F00000
F00000
F00000
F00000
F00000
F00000
F00000
F00000
F00000
FFFFF0
FFFFF0
FFFFF0
FFFFF0
ENDCHAR
STARTCHAR lacute
ENCODING 314
SWIDTH 2000 0
DWIDTH 24 0
BBX 12 40 8 0
BITMAP
00F0
00F0
00F0
00F0
0F00
0F00
0F00
0F00
0000
0000
0000
0000
FF00
FF00
FF00
FF00
0F00
0F00
0F00
0F00
0F00
0F00
0F00
0F00
0F00
0F00
0F00
0F00
0F00
0F00
0F00
0F00
0F00
0F00
0F00
0F00
0FF0
0FF0
0FF0
0FF0
ENDCHAR
STARTCHAR Lcommaaccent
ENCODING 315
SWIDTH 2000 0
DWIDTH 24 0
BBX 20 44 4 -12
BITMAP
F00000
F00000
F00000
F00000
F00000
F00000
F00000
F00000
F00000
F00000
F00000
F00000
F00000
F00000
F00000
F00000
F00000
F00000
F00000
F00000
F00000
F00000
F00000
F00000
F00000
F00000
F00000
F00000
FFFFF0
FFFFF0
FFFFF0
FFFFF0
000000
000000
000000
000000
00F000
00F000
00F000
00F000
0F0000
0F0000
0F0000
0F0000
ENDCHAR
STARTCHAR lcommaaccent
ENCODING 316
SWIDTH 2000 0
DWIDTH 24 0
BBX 12 48 8 -12
BITMAP
FF00
FF00
FF00
FF00
0F00
0F00
0F00
0F00
0F00
0F00
0F00
0F00
0F00
0F00
0F00
0F00
0F00
0F00
0F00
0F00
0F00
0F00
0F00
0F00
0F00
0F00
0F00
0F00
0F00
0F00
0F00
0F00
0FF0
0FF0
0FF0
0FF0
0000
0000
0000
0000
0F00
0F00
0F00
0F00
F000
F000
F000
F000
ENDCHAR
STARTCHAR Lcaron
ENCODING 317
SWIDTH 2000 0
DWIDTH 24 0
BBX 20 36 4 0
BITMAP
00F000
00F000
00F000
00F000
F0F000
F0F000
F0F000
F0F000
F00000
F00000
F00000
F00000
F00000
F00000
F00000
F00000
F00000
F00000
F00000
F00000
F00000
F00000
F00000
F00000
F00000
F00000
F00000
F00000
F00000
F00000
F00000
F00000
FFFFF0
FFFFF0
FFFFF0
FFFFF0
ENDCHAR
STARTCHAR lcaron
ENCODING 318
SWIDTH 2000 0
DWIDTH 24 0
BBX 16 40 8 0
BITMAP
000F
000F
000F
000F
FF0F
FF0F
FF0F
FF0F
0F00
0F00
0F00
0F00
0F00
0F00
0F00
0F00
0F00
0F00
0F00
0F00
0F00
0F00
0F00
0F00
0F00
0F00
0F00
0F00
0F00
0F00
0F00
0F00
0F00
0F00
0F00
0F00
0FF0
0FF0
0FF0
0FF0
ENDCHAR
STARTCHAR Ldot
ENCODING 319
SWIDTH 2000 0
DWIDTH 24 0
BBX 20 32 4 0
BITMAP
F00000
F00000
F00000
F00000
F00000
F00000
F00000
F00000
F00000
F00000
F00000
F00000
F0F000
F0F000
F0F000
F0F000
F00000
F00000
F00000
F00000
F00000
F00000
F00000
F00000
F00000
F00000
F00000
F00000
FFFFF0
FFFFF0
FFFFF0
FFFFF0
ENDCHAR
STARTCHAR ldot
ENCODING 320
SWIDTH 2000 0
DWIDTH 24 0
BBX 16 36 8 0
BITMAP
FF00
FF00
FF00
FF00
0F00
0F00
0F00
0F00
0F00
0F00
0F00
0F00
0F00
0F00
0F00
0F00
0F0F
0F0F
0F0F
0F0F
0F00
0F00
0F00
0F00
0F00
0F00
0F00
0F00
0F00
0F00
0F00
0F00
0FF0
0FF0
0FF0
0FF0
ENDCHAR
STARTCHAR Lslash
ENCODING 321
SWIDTH 2000 0
DWIDTH 24 0
BBX 20 32 4 0
BITMAP
0F0000
0F0000
0F0000
0F0000
0F0000
0F0000
0F0000
0F0000
0F0F00
0F0F00
0F0F00
0F0F00
0FF000
0FF000
0FF000
0FF000
0F0000
0F0000
0F0000
0F0000
FF0000
FF0000
FF0000
FF0000
0F0000
0F0000
0F0000
0F0000
0FFFF0
0FFFF0
0FFFF0
0FFFF0
ENDCHAR
STARTCHAR lslash
ENCODING 322
SWIDTH 2000 0
DWIDTH 24 0
BBX 12 36 8 0
BITMAP
FF00
FF00
FF00
FF00
0F00
0F00
0F00
0F00
0F00
0F00
0F00
0F00
0FF0
0FF0
0FF0
0FF0
FF00
FF00
FF00
FF00
0F00
0F00
0F00
0F00
0F00
0F00
0F00
0F00
0F00
0F00
0F00
0F00
0FF0
0FF0
0FF0
0FF0
ENDCHAR
STARTCHAR Nacute
ENCODING 323
SWIDTH 2000 0
DWIDTH 24 0
BBX 20 40 4 0
BITMAP
000F00
000F00
000F00
000F00
00F000
00F000
00F000
00F000
000000
000000
000000
000000
F000F0
F000F0
F000F0
F000F0
FF00F0
FF00F0
FF00F0
FF00F0
FF00F0
FF00F0
FF00F0
FF00F0
F0F0F0
F0F0F0
F0F0F0
F0F0F0
F00FF0
F00FF0
F00FF0
F00FF0
F00FF0
F00FF0
F00FF0
F00FF0
F000F0
F000F0
F000F0
F000F0
ENDCHAR
STARTCHAR nacute
ENCODING 324
SWIDTH 2000 0
DWIDTH 24 0
BBX 20 36 4 0
BITMAP
000F00
000F00
000F00
000F00
00F000
00F000
00F000
00F000
000000
000000
000000
000000
FFFF00
FFFF00
FFFF00
FFFF00
F000F0
F000F0
F000F0
F000F0
F000F0
F000F0
F000F0
F000F0
F000F0
F000F0
F000F0
F000F0
F000F0
F000F0
F000F0
F000F0
F000F0
F000F0
F000F0
F000F0
ENDCHAR
STARTCHAR Ncommaaccent
ENCODING 325
SWIDTH 2000 0
DWIDTH 24 0
BBX 20 44 4 -12
BITMAP
F000F0
F000F0
F000F0
F000F0
FF00F0
FF00F0
FF00F0
FF00F0
FF00F0
FF00F0
FF00F0
FF00F0
F0F0F0
F0F0F0
F0F0F0
F0F0F0
F0F0F0
F0F0F0
F0F0F0
F0F0F0
F00FF0
F00FF0
F00FF0
F00FF0
F00FF0
F00FF0
F00FF0
F00FF0
F000F0
F000F0
F000F0
F000F0
000000
000000
000000
000000
00F000
00F000
00F000
00F000
0F0000
0F0000
0F0000
0F0000
ENDCHAR
STARTCHAR ncommaaccent
ENCODING 326
SWIDTH 2000 0
DWIDTH 24 0
BBX 20 32 4 -8
BITMAP
FFFF00
FFFF00
FFFF00
FFFF00
F000F0
F000F0
F000F0
F000F0
F000F0
F000F0
F000F0
F000F0
F000F0
F000F0
F000F0
F000F0
F000F0
F000F0
F000F0
F000F0
F000F0
F000F0
F000F0
F000F0
00F000
00F000
00F000
00F000
0F0000
0F0000
0F0000
0F0000
ENDCHAR
STARTCHAR Ncaron
ENCODING 327
SWIDTH 2000 0
DWIDTH 24 0
BBX 20 40 4 0
BITMAP
0F0F00
0F0F00
0F0F00
0F0F00
00F000
00F000
00F000
00F000
F000F0
F000F0
F000F0
F000F0
FF00F0
FF00F0
FF00F0
FF00F0
FF00F0
FF00F0
FF00F0
FF00F0
F0F0F0
F0F0F0
F0F0F0
F0F0F0
F0F0F0
F0F0F0
F0F0F0
F0F0F0
F00FF0
F00FF0
F00FF0
F00FF0
F00FF0
F00FF0
F00FF0
F00FF0
F000F0
F000F0
F000F0
F000F0
ENDCHAR
STARTCHAR ncaron
ENCODING 328
SWIDTH 2000 0
DWIDTH 24 0
BBX 20 36 4 0
BITMAP
0F0F00
0F0F00
0F0F00
0F0F00
00F000
00F000
00F000
00F000
000000
000000
000000
000000
FFFF00
FFFF00
FFFF00
FFFF00
F000F0
F000F0
F000F0
F000F0
F000F0
F000F0
F000F0
F000F0
F000F0
F000F0
F000F0
F000F0
F000F0
F000F0
F000F0
F000F0
F000F0
F000F0
F000F0
F000F0
ENDCHAR
STARTCHAR napostrophe
ENCODING 329
SWIDTH 2000 0
DWIDTH 24 0
BBX 24 40 0 0
BITMAP
FF0000
FF0000
FF0000
FF0000
0F0000
0F0000
0F0000
0F0000
F00000
F00000
F00000
F00000
000000
000000
000000
000000
0FFFF0
0FFFF0
0FFFF0
0FFFF0
0F000F
0F000F
0F000F
0F000F
0F000F
0F000F
0F000F
0F000F
0F000F
0F000F
0F000F
0F000F
0F000F
0F000F
0F000F
0F000F
0F000F
0F000F
0F000F
0F000F
ENDCHAR
STARTCHAR Eng
ENCODING 330
SWIDTH 2000 0
DWIDTH 24 0
BBX 20 40 4 -8
BITMAP
F0FF00
F0FF00
F0FF00
F0FF00
FF00F0
FF00F0
FF00F0
FF00F0
F000F0
F000F0
F000F0
F000F0
F000F0
F000F0
F000F0
F000F0
F000F0
F000F0
F000F0
F000F0
F000F0
F000F0
F000F0
F000F0
F000F0
F000F0
F000F0
F000F0
F000F0
F000F0
F000F0
F000F0
0000F0
0000F0
0000F0
0000F0
000F00
000F00
000F00
000F00
ENDCHAR
STARTCHAR eng
ENCODING 331
SWIDTH 2000 0
DWIDTH 24 0
BBX 20 32 4 -8
BITMAP
F0FF00
F0FF00
F0FF00
F0FF00
FF00F0
FF00F0
FF00F0
FF00F0
F000F0
F000F0
F000F0
F000F0
F000F0
F000F0
F000F0
F000F0
F000F0
F000F0
F000F0
F000F0
F000F0
F000F0
F000F0
F000F0
0000F0
0000F0
0000F0
0000F0
000F00
000F00
000F00
000F00
ENDCHAR
STARTCHAR Omacron
ENCODING 332
SWIDTH 2000 0
DWIDTH 24 0
BBX 20 40 4 0
BITMAP
0FFF00
0FFF00
0FFF00
0FFF00
000000
000000
000000
000000
0FFF00
0FFF00
0FFF00
0FFF00
F000F0
F000F0
F000F0
F000F0
F000F0
F000F0
F000F0
F000F0
F000F0
F000F0
F000F0
F000F0
F000F0
F000F0
F000F0
F000F0
F000F0
F000F0
F000F0
F000F0
F000F0
F000F0
F000F0
F000F0
0FFF00
0FFF00
0FFF00
0FFF00
ENDCHAR
STARTCHAR omacron
ENCODING 333
SWIDTH 2000 0
DWIDTH 24 0
BBX 20 32 4 0
BITMAP
0FFF00
0FFF00
0FFF00
0FFF00
000000
000000
000000
000000
0FFF00
0FFF00
0FFF00
0FFF00
F000F0
F000F0
F000F0
F000F0
F000F0
F000F0
F000F0
F000F0
F000F0
F000F0
F000F0
F000F0
F000F0
F000F0
F000F0
F000F0
0FFF00
0FFF00
0FFF00
0FFF00
ENDCHAR
STARTCHAR Obreve
ENCODING 334
SWIDTH 2000 0
DWIDTH 24 0
BBX 20 40 4 0
BITMAP
0F0F00
0F0F00
0F0F00
0F0F00
0FFF00
0FFF00
0FFF00
0FFF00
000000
000000
000000
000000
0FFF00
0FFF00
0FFF00
0FFF00
F000F0
F000F0
F000F0
F000F0
F000F0
F000F0
F000F0
F000F0
F000F0
F000F0
F000F0
F000F0
F000F0
F000F0
F000F0
F000F0
F000F0
F000F0
F000F0
F000F0
0FFF00
0FFF00
0FFF00
0FFF00
ENDCHAR
STARTCHAR obreve
ENCODING 335
SWIDTH 2000 0
DWIDTH 24 0
BBX 20 36 4 0
BITMAP
0F0F00
0F0F00
0F0F00
0F0F00
0FFF00
0FFF00
0FFF00
0FFF00
000000
000000
000000
000000
0FFF00
0FFF00
0FFF00
0FFF00
F000F0
F000F0
F000F0
F000F0
F000F0
F000F0
F000F0
F000F0
F000F0
F000F0
F000F0
F000F0
F000F0
F000F0
F000F0
F000F0
0FFF00
0FFF00
0FFF00
0FFF00
ENDCHAR
STARTCHAR Ohungarumlaut
ENCODING 336
SWIDTH 2000 0
DWIDTH 24 0
BBX 20 40 4 0
BITMAP
0F00F0
0F00F0
0F00F0
0F00F0
F00F00
F00F00
F00F00
F00F00
000000
000000
000000
000000
0FFF00
0FFF00
0FFF00
0FFF00
F000F0
F000F0
F000F0
F000F0
F000F0
F000F0
F000F0
F000F0
F000F0
F000F0
F000F0
F000F0
F000F0
F000F0
F000F0
F000F0
F000F0
F000F0
F000F0
F000F0
0FFF00
0FFF00
0FFF00
0FFF00
ENDCHAR
STARTCHAR ohungarumlaut
ENCODING 337
SWIDTH 2000 0
DWIDTH 24 0
BBX 20 36 4 0
BITMAP
0F00F0
0F00F0
0F00F0
0F00F0
F00F00
F00F00
F00F00
F00F00
000000
000000
000000
000000
0FFF00
0FFF00
0FFF00
0FFF00
F000F0
F000F0
F000F0
F000F0
F000F0
F000F0
F000F0
F000F0
F000F0
F000F0
F000F0
F000F0
F000F0
F000F0
F000F0
F000F0
0FFF00
0FFF00
0FFF00
0FFF00
ENDCHAR
STARTCHAR OE
ENCODING 338
SWIDTH 2000 0
DWIDTH 24 0
BBX 20 32 4 0
BITMAP
0FFFF0
0FFFF0
0FFFF0
0FFFF0
F0F000
F0F000
F0F000
F0F000
F0F000
F0F000
F0F000
F0F000
F0FF00
F0FF00
F0FF00
F0FF00
F0F000
F0F000
F0F000
F0F000
F0F000
F0F000
F0F000
F0F000
F0F000
F0F000
F0F000
F0F000
0FFFF0
0FFFF0
0FFFF0
0FFFF0
ENDCHAR
STARTCHAR oe
ENCODING 339
SWIDTH 2000 0
DWIDTH 24 0
BBX 20 24 4 0
BITMAP
0F0F00
0F0F00
0F0F00
0F0F00
F0F0F0
F0F0F0
F0F0F0
F0F0F0
F0FFF0
F0FFF0
F0FFF0
F0FFF0
F0F000
F0F000
F0F000
F0F000
F0F0F0
F0F0F0
F0F0F0
F0F0F0
0F0F00
0F0F00
0F0F00
0F0F00
ENDCHAR
STARTCHAR Racute
ENCODING 340
SWIDTH 2000 0
DWIDTH 24 0
BBX 20 40 4 0
BITMAP
000F00
000F00
000F00
000F00
00F000
00F000
00F000
00F000
000000
000000
000000
000000
FFFF00
FFFF00
FFFF00
FFFF00
F000F0
F000F0
F000F0
F000F0
F000F0
F000F0
F000F0
F000F0
FFFF00
FFFF00
FFFF00
FFFF00
F00F00
F00F00
F00F00
F00F00
F000F0
F000F0
F000F0
F000F0
F000F0
F000F0
F000F0
F000F0
ENDCHAR
STARTCHAR racute
ENCODING 341
SWIDTH 2000 0
DWIDTH 24 0
BBX 20 36 4 0
BITMAP
000F00
000F00
000F00
000F00
00F000
00F000
00F000
00F000
000000
000000
000000
000000
FFFF00
FFFF00
FFFF00
FFFF00
F000F0
F000F0
F000F0
F000F0
F00000
F00000
F00000
F00000
F00000
F00000
F00000
F00000
F00000
F00000
F00000
F00000
F00000
F00000
F00000
F00000
ENDCHAR
STARTCHAR Rcommaaccent
ENCODING 342
SWIDTH 2000 0
DWIDTH 24 0
BBX 20 40 4 -8
BITMAP
FFFF00
FFFF00
FFFF00
FFFF00
F000F0
F000F0
F000F0
F000F0
F000F0
F000F0
F000F0
F000F0
FFFF00
FFFF00
FFFF00
FFFF00
F00F00
F00F00
F00F00
F00F00
F000F0
F000F0
F000F0
F000F0
F000F0
F000F0
F000F0
F000F0
F000F0
F000F0
F000F0
F000F0
00F000
00F000
00F000
00F000
0F0000
0F0000
0F0000
0F0000
ENDCHAR
STARTCHAR rcommaaccent
ENCODING 343
SWIDTH 2000 0
DWIDTH 24 0
BBX 24 36 0 -12
BITMAP
0FFFF0
0FFFF0
0FFFF0
0FFFF0
0F000F
0F000F
0F000F
0F000F
0F0000
0F0000
0F0000
0F0000
0F0000
0F0000
0F0000
0F0000
0F0000
0F0000
0F0000
0F0000
0F0000
0F0000
0F0000
0F0000
000000
000000
000000
000000
0F0000
0F0000
0F0000
0F0000
F00000
F00000
F00000
F00000
ENDCHAR
STARTCHAR Rcaron
ENCODING 344
SWIDTH 2000 0
DWIDTH 24 0
BBX 20 40 4 0
BITMAP
0F0F00
0F0F00
0F0F00
0F0F00
00F000
00F000
00F000
00F000
000000
000000
000000
000000
FFFF00
FFFF00
FFFF00
FFFF00
F000F0
F000F0
F000F0
F000F0
F000F0
F000F0
F000F0
F000F0
FFFF00
FFFF00
FFFF00
FFFF00
F00F00
F00F00
F00F00
F00F00
F000F0
F000F0
F000F0
F000F0
F000F0
F000F0
F000F0
F000F0
ENDCHAR
STARTCHAR rcaron
ENCODING 345
SWIDTH 2000 0
DWIDTH 24 0
BBX 20 36 4 0
BITMAP
0F0F00
0F0F00
0F0F00
0F0F00
00F000
00F000
00F000
00F000
000000
000000
000000
000000
FFFF00
FFFF00
FFFF00
FFFF00
F000F0
F000F0
F000F0
F000F0
F00000
F00000
F00000
F00000
F00000
F00000
F00000
F00000
F00000
F00000
F00000
F00000
F00000
F00000
F00000
F00000
ENDCHAR
STARTCHAR Sacute
ENCODING 346
SWIDTH 2000 0
DWIDTH 24 0
BBX 20 40 4 0
BITMAP
000F00
000F00
000F00
000F00
00F000
00F000
00F000
00F000
000000
000000
000000
000000
0FFF00
0FFF00
0FFF00
0FFF00
F000F0
F000F0
F000F0
F000F0
F00000
F00000
F00000
F00000
0FFF00
0FFF00
0FFF00
0FFF00
0000F0
0000F0
0000F0
0000F0
F000F0
F000F0
F000F0
F000F0
0FFF00
0FFF00
0FFF00
0FFF00
ENDCHAR
STARTCHAR sacute
ENCODING 347
SWIDTH 2000 0
DWIDTH 24 0
BBX 20 36 4 0
BITMAP
000F00
000F00
000F00
000F00
00F000
00F000
00F000
00F000
000000
000000
000000
000000
0FFFF0
0FFFF0
0FFFF0
0FFFF0
F00000
F00000
F00000
F00000
0FFF00
0FFF00
0FFF00
0FFF00
0000F0
0000F0
0000F0
0000F0
0000F0
0000F0
0000F0
0000F0
FFFF00
FFFF00
FFFF00
FFFF00
ENDCHAR
STARTCHAR Scircumflex
ENCODING 348
SWIDTH 2000 0
DWIDTH 24 0
BBX 20 40 4 0
BITMAP
00F000
00F000
00F000
00F000
0F0F00
0F0F00
0F0F00
0F0F00
000000
000000
000000
000000
0FFF00
0FFF00
0FFF00
0FFF00
F000F0
F000F0
F000F0
F000F0
F00000
F00000
F00000
F00000
0FFF00
0FFF00
0FFF00
0FFF00
0000F0
0000F0
0000F0
0000F0
F000F0
F000F0
F000F0
F000F0
0FFF00
0FFF00
0FFF00
0FFF00
ENDCHAR
STARTCHAR scircumflex
ENCODING 349
SWIDTH 2000 0
DWIDTH 24 0
BBX 20 36 4 0
BITMAP
00F000
00F000
00F000
00F000
0F0F00
0F0F00
0F0F00
0F0F00
000000
000000
000000
000000
0FFFF0
0FFFF0
0FFFF0
0FFFF0
F00000
F00000
F00000
F00000
0FFF00
0FFF00
0FFF00
0FFF00
0000F0
0000F0
0000F0
0000F0
0000F0
0000F0
0000F0
0000F0
FFFF00
FFFF00
FFFF00
FFFF00
ENDCHAR
STARTCHAR Scedilla
ENCODING 350
SWIDTH 2000 0
DWIDTH 24 0
BBX 20 44 4 -12
BITMAP
0FFF00
0FFF00
0FFF00
0FFF00
F000F0
F000F0
F000F0
F000F0
F00000
F00000
F00000
F00000
0FFF00
0FFF00
0FFF00
0FFF00
0000F0
0000F0
0000F0
0000F0
0000F0
0000F0
0000F0
0000F0
F000F0
F000F0
F000F0
F000F0
0FFF00
0FFF00
0FFF00
0FFF00
00F000
00F000
00F000
00F000
000F00
000F00
000F00
000F00
0FF000
0FF000
0FF000
0FF000
ENDCHAR
STARTCHAR scedilla
ENCODING 351
SWIDTH 2000 0
DWIDTH 24 0
BBX 20 36 4 -12
BITMAP
0FFFF0
0FFFF0
0FFFF0
0FFFF0
F00000
F00000
F00000
F00000
0FFF00
0FFF00
0FFF00
0FFF00
0000F0
0000F0
0000F0
0000F0
0000F0
0000F0
0000F0
0000F0
FFFF00
FFFF00
FFFF00
FFFF00
00F000
00F000
00F000
00F000
000F00
000F00
000F00
000F00
0FF000
0FF000
0FF000
0FF000
ENDCHAR
STARTCHAR Scaron
ENCODING 352
SWIDTH 2000 0
DWIDTH 24 0
BBX 20 40 4 0
BITMAP
0F0F00
0F0F00
0F0F00
0F0F00
00F000
00F000
00F000
00F000
000000
000000
000000
000000
0FFF00
0FFF00
0FFF00
0FFF00
F000F0
F000F0
F000F0
F000F0
F00000
F00000
F00000
F00000
0FFF00
0FFF00
0FFF00
0FFF00
0000F0
0000F0
0000F0
0000F0
F000F0
F000F0
F000F0
F000F0
0FFF00
0FFF00
0FFF00
0FFF00
ENDCHAR
STARTCHAR scaron
ENCODING 353
SWIDTH 2000 0
DWIDTH 24 0
BBX 20 36 4 0
BITMAP
0F0F00
0F0F00
0F0F00
0F0F00
00F000
00F000
00F000
00F000
000000
000000
000000
000000
0FFFF0
0FFFF0
0FFFF0
0FFFF0
F00000
F00000
F00000
F00000
0FFF00
0FFF00
0FFF00
0FFF00
0000F0
0000F0
0000F0
0000F0
0000F0
0000F0
0000F0
0000F0
FFFF00
FFFF00
FFFF00
FFFF00
ENDCHAR
STARTCHAR Tcommaaccent
ENCODING 354
SWIDTH 2000 0
DWIDTH 24 0
BBX 20 40 4 -8
BITMAP
FFFFF0
FFFFF0
FFFFF0
FFFFF0
00F000
00F000
00F000
00F000
00F000
00F000
00F000
00F000
00F000
00F000
00F000
00F000
00F000
00F000
00F000
00F000
00F000
00F000
00F000
00F000
00F000
00F000
00F000
00F000
00F000
00F000
00F000
00F000
000F00
000F00
000F00
000F00
0FF000
0FF000
0FF000
0FF000
ENDCHAR
STARTCHAR tcommaaccent
ENCODING 355
SWIDTH 2000 0
DWIDTH 24 0
BBX 20 44 4 -12
BITMAP
0F0000
0F0000
0F0000
0F0000
0F0000
0F0000
0F0000
0F0000
FFFF00
FFFF00
FFFF00
FFFF00
0F0000
0F0000
0F0000
0F0000
0F0000
0F0000
0F0000
0F0000
0F0000
0F0000
0F0000
0F0000
0F0000
0F0000
0F0000
0F0000
00FFF0
00FFF0
00FFF0
00FFF0
00F000
00F000
00F000
00F000
000F00
000F00
000F00
000F00
0FF000
0FF000
0FF000
0FF000
ENDCHAR
STARTCHAR Tcaron
ENCODING 356
SWIDTH 2000 0
DWIDTH 24 0
BBX 20 40 4 0
BITMAP
0F0F00
0F0F00
0F0F00
0F0F00
00F000
00F000
00F000
00F000
000000
000000
000000
000000
FFFFF0
FFFFF0
FFFFF0
FFFFF0
00F000
00F000
00F000
00F000
00F000
00F000
00F000
00F000
00F000
00F000
00F000
00F000
00F000
00F000
00F000
00F000
00F000
00F000
00F000
00F000
00F000
00F000
00F000
00F000
ENDCHAR
STARTCHAR tcaron
ENCODING 357
SWIDTH 2000 0
DWIDTH 24 0
BBX 20 36 4 0
BITMAP
000F00
000F00
000F00
000F00
0F0F00
0F0F00
0F0F00
0F0F00
0F0000
0F0000
0F0000
0F0000
FFFF00
FFFF00
FFFF00
FFFF00
0F0000
0F0000
0F0000
0F0000
0F0000
0F0000
0F0000
0F0000
0F0000
0F0000
0F0000
0F0000
0F0000
0F0000
0F0000
0F0000
00FFF0
00FFF0
00FFF0
00FFF0
ENDCHAR
STARTCHAR Tbar
ENCODING 358
SWIDTH 2000 0
DWIDTH 24 0
BBX 20 32 4 0
BITMAP
FFFFF0
FFFFF0
FFFFF0
FFFFF0
00F000
00F000
00F000
00F000
00F000
00F000
00F000
00F000
0FFF00
0FFF00
0FFF00
0FFF00
00F000
00F000
00F000
00F000
00F000
00F000
00F000
00F000
00F000
00F000
00F000
00F000
00F000
00F000
00F000
00F000
ENDCHAR
STARTCHAR tbar
ENCODING 359
SWIDTH 2000 0
DWIDTH 24 0
BBX 20 32 4 0
BITMAP
0F0000
0F0000
0F0000
0F0000
0F0000
0F0000
0F0000
0F0000
FFFF00
FFFF00
FFFF00
FFFF00
0F0000
0F0000
0F0000
0F0000
FFFF00
FFFF00
FFFF00
FFFF00
0F0000
0F0000
0F0000
0F0000
0F0000
0F0000
0F0000
0F0000
00FFF0
00FFF0
00FFF0
00FFF0
ENDCHAR
STARTCHAR Utilde
ENCODING 360
SWIDTH 2000 0
DWIDTH 24 0
BBX 20 40 4 0
BITMAP
0FF0F0
0FF0F0
0FF0F0
0FF0F0
F0FF00
F0FF00
F0FF00
F0FF00
000000
000000
000000
000000
F000F0
F000F0
F000F0
F000F0
F000F0
F000F0
F000F0
F000F0
F000F0
F000F0
F000F0
F000F0
F000F0
F000F0
F000F0
F000F0
F000F0
F000F0
F000F0
F000F0
F000F0
F000F0
F000F0
F000F0
0FFF00
0FFF00
0FFF00
0FFF00
ENDCHAR
STARTCHAR utilde
ENCODING 361
SWIDTH 2000 0
DWIDTH 24 0
BBX 20 36 4 0
BITMAP
0FF0F0
0FF0F0
0FF0F0
0FF0F0
F0FF00
F0FF00
F0FF00
F0FF00
000000
000000
000000
000000
F000F0
F000F0
F000F0
F000F0
F000F0
F000F0
F000F0
F000F0
F000F0
F000F0
F000F0
F000F0
F000F0
F000F0
F000F0
F000F0
F000F0
F000F0
F000F0
F000F0
0FFFF0
0FFFF0
0FFFF0
0FFFF0
ENDCHAR
STARTCHAR Umacron
ENCODING 362
SWIDTH 2000 0
DWIDTH 24 0
BBX 20 40 4 0
BITMAP
0FFF00
0FFF00
0FFF00
0FFF00
000000
000000
000000
000000
F000F0
F000F0
F000F0
F000F0
F000F0
F000F0
F000F0
F000F0
F000F0
F000F0
F000F0
F000F0
F000F0
F000F0
F000F0
F000F0
F000F0
F000F0
F000F0
F000F0
F000F0
F000F0
F000F0
F000F0
F000F0
F000F0
F000F0
F000F0
0FFF00
0FFF00
0FFF00
0FFF00
ENDCHAR
STARTCHAR umacron
ENCODING 363
SWIDTH 2000 0
DWIDTH 24 0
BBX 20 32 4 0
BITMAP
0FFF00
0FFF00
0FFF00
0FFF00
000000
000000
000000
000000
F000F0
F000F0
F000F0
F000F0
F000F0
F000F0
F000F0
F000F0
F000F0
F000F0
F000F0
F000F0
F000F0
F000F0
F000F0
F000F0
F000F0
F000F0
F000F0
F000F0
0FFFF0
0FFFF0
0FFFF0
0FFFF0
ENDCHAR
STARTCHAR Ubreve
ENCODING 364
SWIDTH 2000 0
DWIDTH 24 0
BBX 20 40 4 0
BITMAP
0F0F00
0F0F00
0F0F00
0F0F00
0FFF00
0FFF00
0FFF00
0FFF00
000000
000000
000000
000000
F000F0
F000F0
F000F0
F000F0
F000F0
F000F0
F000F0
F000F0
F000F0
F000F0
F000F0
F000F0
F000F0
F000F0
F000F0
F000F0
F000F0
F000F0
F000F0
F000F0
F000F0
F000F0
F000F0
F000F0
0FFF00
0FFF00
0FFF00
0FFF00
ENDCHAR
STARTCHAR ubreve
ENCODING 365
SWIDTH 2000 0
DWIDTH 24 0
BBX 20 36 4 0
BITMAP
0F0F00
0F0F00
0F0F00
0F0F00
0FFF00
0FFF00
0FFF00
0FFF00
000000
000000
000000
000000
F000F0
F000F0
F000F0
F000F0
F000F0
F000F0
F000F0
F000F0
F000F0
F000F0
F000F0
F000F0
F000F0
F000F0
F000F0
F000F0
F000F0
F000F0
F000F0
F000F0
0FFFF0
0FFFF0
0FFFF0
0FFFF0
ENDCHAR
STARTCHAR Uring
ENCODING 366
SWIDTH 2000 0
DWIDTH 24 0
BBX 20 40 4 0
BITMAP
00F000
00F000
00F000
00F000
0F0F00
0F0F00
0F0F00
0F0F00
00F000
00F000
00F000
00F000
F000F0
F000F0
F000F0
F000F0
F000F0
F000F0
F000F0
F000F0
F000F0
F000F0
F000F0
F000F0
F000F0
F000F0
F000F0
F000F0
F000F0
F000F0
F000F0
F000F0
F000F0
F000F0
F000F0
F000F0
0FFF00
0FFF00
0FFF00
0FFF00
ENDCHAR
STARTCHAR uring
ENCODING 367
SWIDTH 2000 0
DWIDTH 24 0
BBX 20 40 4 0
BITMAP
00F000
00F000
00F000
00F000
0F0F00
0F0F00
0F0F00
0F0F00
00F000
00F000
00F000
00F000
000000
000000
000000
000000
F000F0
F000F0
F000F0
F000F0
F000F0
F000F0
F000F0
F000F0
F000F0
F000F0
F000F0
F000F0
F000F0
F000F0
F000F0
F000F0
F000F0
F000F0
F000F0
F000F0
0FFFF0
0FFFF0
0FFFF0
0FFFF0
ENDCHAR
STARTCHAR Uhungarumlaut
ENCODING 368
SWIDTH 2000 0
DWIDTH 24 0
BBX 20 40 4 0
BITMAP
0F00F0
0F00F0
0F00F0
0F00F0
F00F00
F00F00
F00F00
F00F00
000000
000000
000000
000000
F000F0
F000F0
F000F0
F000F0
F000F0
F000F0
F000F0
F000F0
F000F0
F000F0
F000F0
F000F0
F000F0
F000F0
F000F0
F000F0
F000F0
F000F0
F000F0
F000F0
F000F0
F000F0
F000F0
F000F0
0FFF00
0FFF00
0FFF00
0FFF00
ENDCHAR
STARTCHAR uhungarumlaut
ENCODING 369
SWIDTH 2000 0
DWIDTH 24 0
BBX 20 36 4 0
BITMAP
0F00F0
0F00F0
0F00F0
0F00F0
F00F00
F00F00
F00F00
F00F00
000000
000000
000000
000000
F000F0
F000F0
F000F0
F000F0
F000F0
F000F0
F000F0
F000F0
F000F0
F000F0
F000F0
F000F0
F000F0
F000F0
F000F0
F000F0
F000F0
F000F0
F000F0
F000F0
0FFFF0
0FFFF0
0FFFF0
0FFFF0
ENDCHAR
STARTCHAR Uogonek
ENCODING 370
SWIDTH 2000 0
DWIDTH 24 0
BBX 20 40 4 -8
BITMAP
F000F0
F000F0
F000F0
F000F0
F000F0
F000F0
F000F0
F000F0
F000F0
F000F0
F000F0
F000F0
F000F0
F000F0
F000F0
F000F0
F000F0
F000F0
F000F0
F000F0
F000F0
F000F0
F000F0
F000F0
F000F0
F000F0
F000F0
F000F0
0FFF00
0FFF00
0FFF00
0FFF00
00F000
00F000
00F000
00F000
00FF00
00FF00
00FF00
00FF00
ENDCHAR
STARTCHAR uogonek
ENCODING 371
SWIDTH 2000 0
DWIDTH 24 0
BBX 20 32 4 -8
BITMAP
F000F0
F000F0
F000F0
F000F0
F000F0
F000F0
F000F0
F000F0
F000F0
F000F0
F000F0
F000F0
F000F0
F000F0
F000F0
F000F0
F000F0
F000F0
F000F0
F000F0
0FFFF0
0FFFF0
0FFFF0
0FFFF0
000F00
000F00
000F00
000F00
000FF0
000FF0
000FF0
000FF0
ENDCHAR
STARTCHAR Wcircumflex
ENCODING 372
SWIDTH 2000 0
DWIDTH 24 0
BBX 20 40 4 0
BITMAP
00F000
00F000
00F000
00F000
0F0F00
0F0F00
0F0F00
0F0F00
000000
000000
000000
000000
F000F0
F000F0
F000F0
F000F0
F000F0
F000F0
F000F0
F000F0
F0F0F0
F0F0F0
F0F0F0
F0F0F0
F0F0F0
F0F0F0
F0F0F0
F0F0F0
0FFF00
0FFF00
0FFF00
0FFF00
0F0F00
0F0F00
0F0F00
0F0F00
0F0F00
0F0F00
0F0F00
0F0F00
ENDCHAR
STARTCHAR wcircumflex
ENCODING 373
SWIDTH 2000 0
DWIDTH 24 0
BBX 20 36 4 0
BITMAP
00F000
00F000
00F000
00F000
0F0F00
0F0F00
0F0F00
0F0F00
000000
000000
000000
000000
F000F0
F000F0
F000F0
F000F0
F000F0
F000F0
F000F0
F000F0
F0F0F0
F0F0F0
F0F0F0
F0F0F0
F0F0F0
F0F0F0
F0F0F0
F0F0F0
0F0F00
0F0F00
0F0F00
0F0F00
0F0F00
0F0F00
0F0F00
0F0F00
ENDCHAR
STARTCHAR Ycircumflex
ENCODING 374
SWIDTH 2000 0
DWIDTH 24 0
BBX 20 40 4 0
BITMAP
00F000
00F000
00F000
00F000
0F0F00
0F0F00
0F0F00
0F0F00
000000
000000
000000
000000
F000F0
F000F0
F000F0
F000F0
F000F0
F000F0
F000F0
F000F0
F000F0
F000F0
F000F0
F000F0
0F0F00
0F0F00
0F0F00
0F0F00
00F000
00F000
00F000
00F000
00F000
00F000
00F000
00F000
00F000
00F000
00F000
00F000
ENDCHAR
STARTCHAR ycircumflex
ENCODING 375
SWIDTH 2000 0
DWIDTH 24 0
BBX 20 48 4 -12
BITMAP
00F000
00F000
00F000
00F000
0F0F00
0F0F00
0F0F00
0F0F00
000000
000000
000000
000000
F000F0
F000F0
F000F0
F000F0
F000F0
F000F0
F000F0
F000F0
F000F0
F000F0
F000F0
F000F0
F000F0
F000F0
F000F0
F000F0
F000F0
F000F0
F000F0
F000F0
0FFFF0
0FFFF0
0FFFF0
0FFFF0
0000F0
0000F0
0000F0
0000F0
0000F0
0000F0
0000F0
0000F0
0FFF00
0FFF00
0FFF00
0FFF00
ENDCHAR
STARTCHAR Ydieresis
ENCODING 376
SWIDTH 2000 0
DWIDTH 24 0
BBX 20 36 4 0
BITMAP
0F0F00
0F0F00
0F0F00
0F0F00
000000
000000
000000
000000
F000F0
F000F0
F000F0
F000F0
F000F0
F000F0
F000F0
F000F0
F000F0
F000F0
F000F0
F000F0
0F0F00
0F0F00
0F0F00
0F0F00
00F000
00F000
00F000
00F000
00F000
00F000
00F000
00F000
00F000
00F000
00F000
00F000
ENDCHAR
STARTCHAR Zacute
ENCODING 377
SWIDTH 2000 0
DWIDTH 24 0
BBX 20 40 4 0
BITMAP
000F00
000F00
000F00
000F00
00F000
00F000
00F000
00F000
000000
000000
000000
000000
FFFFF0
FFFFF0
FFFFF0
FFFFF0
0000F0
0000F0
0000F0
0000F0
000F00
000F00
000F00
000F00
00F000
00F000
00F000
00F000
0F0000
0F0000
0F0000
0F0000
F00000
F00000
F00000
F00000
FFFFF0
FFFFF0
FFFFF0
FFFFF0
ENDCHAR
STARTCHAR zacute
ENCODING 378
SWIDTH 2000 0
DWIDTH 24 0
BBX 20 36 4 0
BITMAP
000F00
000F00
000F00
000F00
00F000
00F000
00F000
00F000
000000
000000
000000
000000
FFFFF0
FFFFF0
FFFFF0
FFFFF0
000F00
000F00
000F00
000F00
00F000
00F000
00F000
00F000
0F0000
0F0000
0F0000
0F0000
F00000
F00000
F00000
F00000
FFFFF0
FFFFF0
FFFFF0
FFFFF0
ENDCHAR
STARTCHAR Zdotaccent
ENCODING 379
SWIDTH 2000 0
DWIDTH 24 0
BBX 20 40 4 0
BITMAP
00F000
00F000
00F000
00F000
000000
000000
000000
000000
FFFFF0
FFFFF0
FFFFF0
FFFFF0
000F00
000F00
000F00
000F00
00F000
00F000
00F000
00F000
00F000
00F000
00F000
00F000
0F0000
0F0000
0F0000
0F0000
0F0000
0F0000
0F0000
0F0000
F00000
F00000
F00000
F00000
FFFFF0
FFFFF0
FFFFF0
FFFFF0
ENDCHAR
STARTCHAR zdotaccent
ENCODING 380
SWIDTH 2000 0
DWIDTH 24 0
BBX 20 32 4 0
BITMAP
00F000
00F000
00F000
00F000
000000
000000
000000
000000
FFFFF0
FFFFF0
FFFFF0
FFFFF0
000F00
000F00
000F00
000F00
00F000
00F000
00F000
00F000
0F0000
0F0000
0F0000
0F0000
F00000
F00000
F00000
F00000
FFFFF0
FFFFF0
FFFFF0
FFFFF0
ENDCHAR
STARTCHAR Zcaron
ENCODING 381
SWIDTH 2000 0
DWIDTH 24 0
BBX 20 40 4 0
BITMAP
0F0F00
0F0F00
0F0F00
0F0F00
00F000
00F000
00F000
00F000
000000
000000
000000
000000
FFFFF0
FFFFF0
FFFFF0
FFFFF0
0000F0
0000F0
0000F0
0000F0
000F00
000F00
000F00
000F00
00F000
00F000
00F000
00F000
0F0000
0F0000
0F0000
0F0000
F00000
F00000
F00000
F00000
FFFFF0
FFFFF0
FFFFF0
FFFFF0
ENDCHAR
STARTCHAR zcaron
ENCODING 382
SWIDTH 2000 0
DWIDTH 24 0
BBX 20 36 4 0
BITMAP
0F0F00
0F0F00
0F0F00
0F0F00
00F000
00F000
00F000
00F000
000000
000000
000000
000000
FFFFF0
FFFFF0
FFFFF0
FFFFF0
000F00
000F00
000F00
000F00
00F000
00F000
00F000
00F000
0F0000
0F0000
0F0000
0F0000
F00000
F00000
F00000
F00000
FFFFF0
FFFFF0
FFFFF0
FFFFF0
ENDCHAR
STARTCHAR longs
ENCODING 383
SWIDTH 2000 0
DWIDTH 24 0
BBX 16 32 8 0
BITMAP
00FF
00FF
00FF
00FF
0F00
0F00
0F00
0F00
FF00
FF00
FF00
FF00
0F00
0F00
0F00
0F00
0F00
0F00
0F00
0F00
0F00
0F00
0F00
0F00
0F00
0F00
0F00
0F00
0F00
0F00
0F00
0F00
ENDCHAR
STARTCHAR uni0180
ENCODING 384
SWIDTH 2000 0
DWIDTH 24 0
BBX 20 36 4 0
BITMAP
F00000
F00000
F00000
F00000
FFFF00
FFFF00
FFFF00
FFFF00
F00000
F00000
F00000
F00000
FFFF00
FFFF00
FFFF00
FFFF00
F000F0
F000F0
F000F0
F000F0
F000F0
F000F0
F000F0
F000F0
F000F0
F000F0
F000F0
F000F0
F000F0
F000F0
F000F0
F000F0
FFFF00
FFFF00
FFFF00
FFFF00
ENDCHAR
STARTCHAR uni0181
ENCODING 385
SWIDTH 2000 0
DWIDTH 24 0
BBX 20 32 4 0
BITMAP
FFFF00
FFFF00
FFFF00
FFFF00
0F00F0
0F00F0
0F00F0
0F00F0
0F00F0
0F00F0
0F00F0
0F00F0
0FFF00
0FFF00
0FFF00
0FFF00
0F00F0
0F00F0
0F00F0
0F00F0
0F00F0
0F00F0
0F00F0
0F00F0
0F00F0
0F00F0
0F00F0
0F00F0
0FFF00
0FFF00
0FFF00
0FFF00
ENDCHAR
STARTCHAR uni0182
ENCODING 386
SWIDTH 2000 0
DWIDTH 24 0
BBX 20 32 4 0
BITMAP
FFFFF0
FFFFF0
FFFFF0
FFFFF0
F000F0
F000F0
F000F0
F000F0
F00000
F00000
F00000
F00000
FFFF00
FFFF00
FFFF00
FFFF00
F000F0
F000F0
F000F0
F000F0
F000F0
F000F0
F000F0
F000F0
F000F0
F000F0
F000F0
F000F0
FFFF00
FFFF00
FFFF00
FFFF00
ENDCHAR
STARTCHAR uni0183
ENCODING 387
SWIDTH 2000 0
DWIDTH 24 0
BBX 20 36 4 0
BITMAP
FFFF00
FFFF00
FFFF00
FFFF00
F00F00
F00F00
F00F00
F00F00
F00000
F00000
F00000
F00000
FFFF00
FFFF00
FFFF00
FFFF00
F000F0
F000F0
F000F0
F000F0
F000F0
F000F0
F000F0
F000F0
F000F0
F000F0
F000F0
F000F0
F000F0
F000F0
F000F0
F000F0
FFFF00
FFFF00
FFFF00
FFFF00
ENDCHAR
STARTCHAR uni0184
ENCODING 388
SWIDTH 2000 0
DWIDTH 24 0
BBX 20 32 4 0
BITMAP
0F0000
0F0000
0F0000
0F0000
FF0000
FF0000
FF0000
FF0000
0F0000
0F0000
0F0000
0F0000
0FFF00
0FFF00
0FFF00
0FFF00
0F00F0
0F00F0
0F00F0
0F00F0
0F00F0
0F00F0
0F00F0
0F00F0
0F00F0
0F00F0
0F00F0
0F00F0
0FFF00
0FFF00
0FFF00
0FFF00
ENDCHAR
STARTCHAR uni0185
ENCODING 389
SWIDTH 2000 0
DWIDTH 24 0
BBX 20 36 4 0
BITMAP
0F0000
0F0000
0F0000
0F0000
FF0000
FF0000
FF0000
FF0000
0F0000
0F0000
0F0000
0F0000
0FFF00
0FFF00
0FFF00
0FFF00
0F00F0
0F00F0
0F00F0
0F00F0
0F00F0
0F00F0
0F00F0
0F00F0
0F00F0
0F00F0
0F00F0
0F00F0
0F00F0
0F00F0
0F00F0
0F00F0
0FFF00
0FFF00
0FFF00
0FFF00
ENDCHAR
STARTCHAR uni0186
ENCODING 390
SWIDTH 2000 0
DWIDTH 24 0
BBX 20 32 4 0
BITMAP
0FFF00
0FFF00
0FFF00
0FFF00
F000F0
F000F0
F000F0
F000F0
0000F0
0000F0
0000F0
0000F0
0000F0
0000F0
0000F0
0000F0
0000F0
0000F0
0000F0
0000F0
0000F0
0000F0
0000F0
0000F0
F000F0
F000F0
F000F0
F000F0
0FFF00
0FFF00
0FFF00
0FFF00
ENDCHAR
STARTCHAR uni0187
ENCODING 391
SWIDTH 2000 0
DWIDTH 24 0
BBX 20 40 4 0
BITMAP
0000F0
0000F0
0000F0
0000F0
0000F0
0000F0
0000F0
0000F0
0FFF00
0FFF00
0FFF00
0FFF00
F00000
F00000
F00000
F00000
F00000
F00000
F00000
F00000
F00000
F00000
F00000
F00000
F00000
F00000
F00000
F00000
F00000
F00000
F00000
F00000
F000F0
F000F0
F000F0
F000F0
0FFF00
0FFF00
0FFF00
0FFF00
ENDCHAR
STARTCHAR uni0188
ENCODING 392
SWIDTH 2000 0
DWIDTH 24 0
BBX 20 32 4 0
BITMAP
0000F0
0000F0
0000F0
0000F0
0000F0
0000F0
0000F0
0000F0
0FFF00
0FFF00
0FFF00
0FFF00
F00000
F00000
F00000
F00000
F00000
F00000
F00000
F00000
F00000
F00000
F00000
F00000
F000F0
F000F0
F000F0
F000F0
0FFF00
0FFF00
0FFF00
0FFF00
ENDCHAR
STARTCHAR uni0189
ENCODING 393
SWIDTH 2000 0
DWIDTH 24 0
BBX 20 32 4 0
BITMAP
0FF000
0FF000
0FF000
0FF000
0F0F00
0F0F00
0F0F00
0F0F00
0F00F0
0F00F0
0F00F0
0F00F0
FFF0F0
FFF0F0
FFF0F0
FFF0F0
0F00F0
0F00F0
0F00F0
0F00F0
0F00F0
0F00F0
0F00F0
0F00F0
0F0F00
0F0F00
0F0F00
0F0F00
0FF000
0FF000
0FF000
0FF000
ENDCHAR
STARTCHAR uni018A
ENCODING 394
SWIDTH 2000 0
DWIDTH 24 0
BBX 20 32 4 0
BITMAP
FFF000
FFF000
FFF000
FFF000
0F0F00
0F0F00
0F0F00
0F0F00
0F00F0
0F00F0
0F00F0
0F00F0
0F00F0
0F00F0
0F00F0
0F00F0
0F00F0
0F00F0
0F00F0
0F00F0
0F00F0
0F00F0
0F00F0
0F00F0
0F0F00
0F0F00
0F0F00
0F0F00
0FF000
0FF000
0FF000
0FF000
ENDCHAR
STARTCHAR uni018B
ENCODING 395
SWIDTH 2000 0
DWIDTH 24 0
BBX 20 36 4 0
BITMAP
FFFFF0
FFFFF0
FFFFF0
FFFFF0
F000F0
F000F0
F000F0
F000F0
0000F0
0000F0
0000F0
0000F0
0FFFF0
0FFFF0
0FFFF0
0FFFF0
F000F0
F000F0
F000F0
F000F0
F000F0
F000F0
F000F0
F000F0
F000F0
F000F0
F000F0
F000F0
F000F0
F000F0
F000F0
F000F0
0FFFF0
0FFFF0
0FFFF0
0FFFF0
ENDCHAR
STARTCHAR uni018C
ENCODING 396
SWIDTH 2000 0
DWIDTH 24 0
BBX 20 36 4 0
BITMAP
0FFFF0
0FFFF0
0FFFF0
0FFFF0
0F00F0
0F00F0
0F00F0
0F00F0
0000F0
0000F0
0000F0
0000F0
0FFFF0
0FFFF0
0FFFF0
0FFFF0
F000F0
F000F0
F000F0
F000F0
F000F0
F000F0
F000F0
F000F0
F000F0
F000F0
F000F0
F000F0
F000F0
F000F0
F000F0
F000F0
0FFFF0
0FFFF0
0FFFF0
0FFFF0
ENDCHAR
STARTCHAR uni018D
ENCODING 397
SWIDTH 2000 0
DWIDTH 24 0
BBX 20 36 4 -12
BITMAP
0FFF00
0FFF00
0FFF00
0FFF00
F000F0
F000F0
F000F0
F000F0
F000F0
F000F0
F000F0
F000F0
F000F0
F000F0
F000F0
F000F0
F000F0
F000F0
F000F0
F000F0
0FFF00
0FFF00
0FFF00
0FFF00
00F000
00F000
00F000
00F000
000F00
000F00
000F00
000F00
0FF000
0FF000
0FF000
0FF000
ENDCHAR
STARTCHAR uni018E
ENCODING 398
SWIDTH 2000 0
DWIDTH 24 0
BBX 20 32 4 0
BITMAP
FFFFF0
FFFFF0
FFFFF0
FFFFF0
0000F0
0000F0
0000F0
0000F0
0000F0
0000F0
0000F0
0000F0
0000F0
0000F0
0000F0
0000F0
0FFFF0
0FFFF0
0FFFF0
0FFFF0
0000F0
0000F0
0000F0
0000F0
0000F0
0000F0
0000F0
0000F0
FFFFF0
FFFFF0
FFFFF0
FFFFF0
ENDCHAR
STARTCHAR uni018F
ENCODING 399
SWIDTH 2000 0
DWIDTH 24 0
BBX 20 32 4 0
BITMAP
0FFF00
0FFF00
0FFF00
0FFF00
F000F0
F000F0
F000F0
F000F0
0000F0
0000F0
0000F0
0000F0
0000F0
0000F0
0000F0
0000F0
FFFFF0
FFFFF0
FFFFF0
FFFFF0
F000F0
F000F0
F000F0
F000F0
F000F0
F000F0
F000F0
F000F0
0FFF00
0FFF00
0FFF00
0FFF00
ENDCHAR
STARTCHAR uni0190
ENCODING 400
SWIDTH 2000 0
DWIDTH 24 0
BBX 20 32 4 0
BITMAP
0FFF00
0FFF00
0FFF00
0FFF00
F000F0
F000F0
F000F0
F000F0
F00000
F00000
F00000
F00000
0FFF00
0FFF00
0FFF00
0FFF00
F00000
F00000
F00000
F00000
F00000
F00000
F00000
F00000
F000F0
F000F0
F000F0
F000F0
0FFF00
0FFF00
0FFF00
0FFF00
ENDCHAR
STARTCHAR uni0191
ENCODING 401
SWIDTH 2000 0
DWIDTH 24 0
BBX 28 44 -4 -12
BITMAP
00FFFFF0
00FFFFF0
00FFFFF0
00FFFFF0
00F00000
00F00000
00F00000
00F00000
00F00000
00F00000
00F00000
00F00000
00FFFF00
00FFFF00
00FFFF00
00FFFF00
00F00000
00F00000
00F00000
00F00000
00F00000
00F00000
00F00000
00F00000
00F00000
00F00000
00F00000
00F00000
00F00000
00F00000
00F00000
00F00000
00F00000
00F00000
00F00000
00F00000
00F00000
00F00000
00F00000
00F00000
FF000000
FF000000
FF000000
FF000000
ENDCHAR
STARTCHAR florin
ENCODING 402
SWIDTH 2000 0
DWIDTH 24 0
BBX 20 44 4 -8
BITMAP
000FF0
000FF0
000FF0
000FF0
00F000
00F000
00F000
00F000
00F000
00F000
00F000
00F000
0FFFF0
0FFFF0
0FFFF0
0FFFF0
00F000
00F000
00F000
00F000
00F000
00F000
00F000
00F000
00F000
00F000
00F000
00F000
00F000
00F000
00F000
00F000
00F000
00F000
00F000
00F000
00F000
00F000
00F000
00F000
FF0000
FF0000
FF0000
FF0000
ENDCHAR
STARTCHAR uni0193
ENCODING 403
SWIDTH 2000 0
DWIDTH 24 0
BBX 20 32 4 0
BITMAP
0FFF00
0FFF00
0FFF00
0FFF00
F000F0
F000F0
F000F0
F000F0
F00000
F00000
F00000
F00000
F00000
F00000
F00000
F00000
F00FF0
F00FF0
F00FF0
F00FF0
F000F0
F000F0
F000F0
F000F0
F000F0
F000F0
F000F0
F000F0
0FFF00
0FFF00
0FFF00
0FFF00
ENDCHAR
STARTCHAR uni0194
ENCODING 404
SWIDTH 2000 0
DWIDTH 24 0
BBX 20 40 4 -8
BITMAP
F000F0
F000F0
F000F0
F000F0
F000F0
F000F0
F000F0
F000F0
F000F0
F000F0
F000F0
F000F0
F000F0
F000F0
F000F0
F000F0
0F0F00
0F0F00
0F0F00
0F0F00
0F0F00
0F0F00
0F0F00
0F0F00
00F000
00F000
00F000
00F000
0F0F00
0F0F00
0F0F00
0F0F00
0F0F00
0F0F00
0F0F00
0F0F00
00F000
00F000
00F000
00F000
ENDCHAR
STARTCHAR uni0195
ENCODING 405
SWIDTH 2000 0
DWIDTH 24 0
BBX 20 32 4 0
BITMAP
F00000
F00000
F00000
F00000
F00000
F00000
F00000
F00000
F00000
F00000
F00000
F00000
FF00F0
FF00F0
FF00F0
FF00F0
F0F0F0
F0F0F0
F0F0F0
F0F0F0
F0F0F0
F0F0F0
F0F0F0
F0F0F0
F0F0F0
F0F0F0
F0F0F0
F0F0F0
F00F00
F00F00
F00F00
F00F00
ENDCHAR
STARTCHAR uni0196
ENCODING 406
SWIDTH 2000 0
DWIDTH 24 0
BBX 16 32 8 0
BITMAP
FF00
FF00
FF00
FF00
0F00
0F00
0F00
0F00
0F00
0F00
0F00
0F00
0F00
0F00
0F00
0F00
0F00
0F00
0F00
0F00
0F00
0F00
0F00
0F00
0F0F
0F0F
0F0F
0F0F
00F0
00F0
00F0
00F0
ENDCHAR
STARTCHAR uni0197
ENCODING 407
SWIDTH 2000 0
DWIDTH 24 0
BBX 12 32 8 0
BITMAP
FFF0
FFF0
FFF0
FFF0
0F00
0F00
0F00
0F00
0F00
0F00
0F00
0F00
FFF0
FFF0
FFF0
FFF0
0F00
0F00
0F00
0F00
0F00
0F00
0F00
0F00
0F00
0F00
0F00
0F00
FFF0
FFF0
FFF0
FFF0
ENDCHAR
STARTCHAR uni0198
ENCODING 408
SWIDTH 2000 0
DWIDTH 24 0
BBX 20 32 4 0
BITMAP
F00F00
F00F00
F00F00
F00F00
F0F0F0
F0F0F0
F0F0F0
F0F0F0
F0F0F0
F0F0F0
F0F0F0
F0F0F0
FFF000
FFF000
FFF000
FFF000
F00F00
F00F00
F00F00
F00F00
F00F00
F00F00
F00F00
F00F00
F000F0
F000F0
F000F0
F000F0
F000F0
F000F0
F000F0
F000F0
ENDCHAR
STARTCHAR uni0199
ENCODING 409
SWIDTH 2000 0
DWIDTH 24 0
BBX 20 36 4 0
BITMAP
0F0000
0F0000
0F0000
0F0000
F0F000
F0F000
F0F000
F0F000
F00000
F00000
F00000
F00000
F000F0
F000F0
F000F0
F000F0
F00F00
F00F00
F00F00
F00F00
F0F000
F0F000
F0F000
F0F000
FFF000
FFF000
FFF000
FFF000
F00F00
F00F00
F00F00
F00F00
F000F0
F000F0
F000F0
F000F0
ENDCHAR
STARTCHAR uni019A
ENCODING 410
SWIDTH 2000 0
DWIDTH 24 0
BBX 12 36 8 0
BITMAP
FF00
FF00
FF00
FF00
0F00
0F00
0F00
0F00
0F00
0F00
0F00
0F00
FFF0
FFF0
FFF0
FFF0
0F00
0F00
0F00
0F00
0F00
0F00
0F00
0F00
0F00
0F00
0F00
0F00
0F00
0F00
0F00
0F00
0FF0
0FF0
0FF0
0FF0
ENDCHAR
STARTCHAR uni019B
ENCODING 411
SWIDTH 2000 0
DWIDTH 24 0
BBX 20 32 4 0
BITMAP
FF0000
FF0000
FF0000
FF0000
00F000
00F000
00F000
00F000
FFFFF0
FFFFF0
FFFFF0
FFFFF0
00F000
00F000
00F000
00F000
0F0F00
0F0F00
0F0F00
0F0F00
0F0F00
0F0F00
0F0F00
0F0F00
F000F0
F000F0
F000F0
F000F0
F000F0
F000F0
F000F0
F000F0
ENDCHAR
STARTCHAR uni019C
ENCODING 412
SWIDTH 2000 0
DWIDTH 24 0
BBX 20 36 4 0
BITMAP
F0F0F0
F0F0F0
F0F0F0
F0F0F0
F0F0F0
F0F0F0
F0F0F0
F0F0F0
F0F0F0
F0F0F0
F0F0F0
F0F0F0
F0F0F0
F0F0F0
F0F0F0
F0F0F0
F0F0F0
F0F0F0
F0F0F0
F0F0F0
F0F0F0
F0F0F0
F0F0F0
F0F0F0
F0F0F0
F0F0F0
F0F0F0
F0F0F0
F0F0F0
F0F0F0
F0F0F0
F0F0F0
0F0FF0
0F0FF0
0F0FF0
0F0FF0
ENDCHAR
STARTCHAR uni019D
ENCODING 413
SWIDTH 2000 0
DWIDTH 24 0
BBX 28 44 -4 -12
BITMAP
00F000F0
00F000F0
00F000F0
00F000F0
00FF00F0
00FF00F0
00FF00F0
00FF00F0
00FF00F0
00FF00F0
00FF00F0
00FF00F0
00F0F0F0
00F0F0F0
00F0F0F0
00F0F0F0
00F0F0F0
00F0F0F0
00F0F0F0
00F0F0F0
00F00FF0
00F00FF0
00F00FF0
00F00FF0
00F00FF0
00F00FF0
00F00FF0
00F00FF0
00F000F0
00F000F0
00F000F0
00F000F0
00F00000
00F00000
00F00000
00F00000
00F00000
00F00000
00F00000
00F00000
FF000000
FF000000
FF000000
FF000000
ENDCHAR
STARTCHAR uni019E
ENCODING 414
SWIDTH 2000 0
DWIDTH 24 0
BBX 20 32 4 -8
BITMAP
FFFF00
FFFF00
FFFF00
FFFF00
F000F0
F000F0
F000F0
F000F0
F000F0
F000F0
F000F0
F000F0
F000F0
F000F0
F000F0
F000F0
F000F0
F000F0
F000F0
F000F0
F000F0
F000F0
F000F0
F000F0
0000F0
0000F0
0000F0
0000F0
0000F0
0000F0
0000F0
0000F0
ENDCHAR
STARTCHAR uni019F
ENCODING 415
SWIDTH 2000 0
DWIDTH 24 0
BBX 20 32 4 0
BITMAP
0FFF00
0FFF00
0FFF00
0FFF00
F000F0
F000F0
F000F0
F000F0
F000F0
F000F0
F000F0
F000F0
F000F0
F000F0
F000F0
F000F0
FFFFF0
FFFFF0
FFFFF0
FFFFF0
F000F0
F000F0
F000F0
F000F0
F000F0
F000F0
F000F0
F000F0
0FFF00
0FFF00
0FFF00
0FFF00
ENDCHAR
STARTCHAR Ohorn
ENCODING 416
SWIDTH 2000 0
DWIDTH 24 0
BBX 24 36 4 0
BITMAP
00000F
00000F
00000F
00000F
0FFF0F
0FFF0F
0FFF0F
0FFF0F
F000F0
F000F0
F000F0
F000F0
F000F0
F000F0
F000F0
F000F0
F000F0
F000F0
F000F0
F000F0
F000F0
F000F0
F000F0
F000F0
F000F0
F000F0
F000F0
F000F0
F000F0
F000F0
F000F0
F000F0
0FFF00
0FFF00
0FFF00
0FFF00
ENDCHAR
STARTCHAR ohorn
ENCODING 417
SWIDTH 2000 0
DWIDTH 24 0
BBX 24 28 4 0
BITMAP
00000F
00000F
00000F
00000F
0FFF0F
0FFF0F
0FFF0F
0FFF0F
F000F0
F000F0
F000F0
F000F0
F000F0
F000F0
F000F0
F000F0
F000F0
F000F0
F000F0
F000F0
F000F0
F000F0
F000F0
F000F0
0FFF00
0FFF00
0FFF00
0FFF00
ENDCHAR
STARTCHAR uni01A2
ENCODING 418
SWIDTH 2000 0
DWIDTH 24 0
BBX 24 32 4 0
BITMAP
0FFFF0
0FFFF0
0FFFF0
0FFFF0
F00F0F
F00F0F
F00F0F
F00F0F
F00F0F
F00F0F
F00F0F
F00F0F
F00F0F
F00F0F
F00F0F
F00F0F
F00F0F
F00F0F
F00F0F
F00F0F
F00F0F
F00F0F
F00F0F
F00F0F
F00F0F
F00F0F
F00F0F
F00F0F
0FF00F
0FF00F
0FF00F
0FF00F
ENDCHAR
STARTCHAR uni01A3
ENCODING 419
SWIDTH 2000 0
DWIDTH 24 0
BBX 24 32 4 -8
BITMAP
0FFFF0
0FFFF0
0FFFF0
0FFFF0
F00F0F
F00F0F
F00F0F
F00F0F
F00F0F
F00F0F
F00F0F
F00F0F
F00F0F
F00F0F
F00F0F
F00F0F
F00F0F
F00F0F
F00F0F
F00F0F
0FF00F
0FF00F
0FF00F
0FF00F
00000F
00000F
00000F
00000F
00000F
00000F
00000F
00000F
ENDCHAR
STARTCHAR uni01A4
ENCODING 420
SWIDTH 2000 0
DWIDTH 24 0
BBX 28 32 -4 0
BITMAP
0FFFFF00
0FFFFF00
0FFFFF00
0FFFFF00
F0F000F0
F0F000F0
F0F000F0
F0F000F0
00F000F0
00F000F0
00F000F0
00F000F0
00F000F0
00F000F0
00F000F0
00F000F0
00FFFF00
00FFFF00
00FFFF00
00FFFF00
00F00000
00F00000
00F00000
00F00000
00F00000
00F00000
00F00000
00F00000
00F00000
00F00000
00F00000
00F00000
ENDCHAR
STARTCHAR uni01A5
ENCODING 421
SWIDTH 2000 0
DWIDTH 24 0
BBX 20 48 4 -12
BITMAP
0FF000
0FF000
0FF000
0FF000
F00000
F00000
F00000
F00000
F00000
F00000
F00000
F00000
FFFF00
FFFF00
FFFF00
FFFF00
F000F0
F000F0
F000F0
F000F0
F000F0
F000F0
F000F0
F000F0
F000F0
F000F0
F000F0
F000F0
F000F0
F000F0
F000F0
F000F0
FFFF00
FFFF00
FFFF00
FFFF00
F00000
F00000
F00000
F00000
F00000
F00000
F00000
F00000
F00000
F00000
F00000
F00000
ENDCHAR
STARTCHAR uni01A6
ENCODING 422
SWIDTH 2000 0
DWIDTH 24 0
BBX 20 36 4 -4
BITMAP
F00000
F00000
F00000
F00000
F00000
F00000
F00000
F00000
FFFF00
FFFF00
FFFF00
FFFF00
F000F0
F000F0
F000F0
F000F0
F000F0
F000F0
F000F0
F000F0
FFFF00
FFFF00
FFFF00
FFFF00
F0F000
F0F000
F0F000
F0F000
F00F00
F00F00
F00F00
F00F00
0000F0
0000F0
0000F0
0000F0
ENDCHAR
STARTCHAR uni01A7
ENCODING 423
SWIDTH 2000 0
DWIDTH 24 0
BBX 20 32 4 0
BITMAP
0FFF00
0FFF00
0FFF00
0FFF00
F000F0
F000F0
F000F0
F000F0
0000F0
0000F0
0000F0
0000F0
0FFF00
0FFF00
0FFF00
0FFF00
F00000
F00000
F00000
F00000
F00000
F00000
F00000
F00000
F000F0
F000F0
F000F0
F000F0
0FFF00
0FFF00
0FFF00
0FFF00
ENDCHAR
STARTCHAR uni01A8
ENCODING 424
SWIDTH 2000 0
DWIDTH 24 0
BBX 20 24 4 0
BITMAP
FFFF00
FFFF00
FFFF00
FFFF00
0000F0
0000F0
0000F0
0000F0
0FFF00
0FFF00
0FFF00
0FFF00
F00000
F00000
F00000
F00000
F00000
F00000
F00000
F00000
0FFFF0
0FFFF0
0FFFF0
0FFFF0
ENDCHAR
STARTCHAR uni01A9
ENCODING 425
SWIDTH 2000 0
DWIDTH 24 0
BBX 20 32 4 0
BITMAP
FFFFF0
FFFFF0
FFFFF0
FFFFF0
F000F0
F000F0
F000F0
F000F0
0F0000
0F0000
0F0000
0F0000
00F000
00F000
00F000
00F000
00F000
00F000
00F000
00F000
0F0000
0F0000
0F0000
0F0000
F000F0
F000F0
F000F0
F000F0
FFFFF0
FFFFF0
FFFFF0
FFFFF0
ENDCHAR
STARTCHAR uni01AA
ENCODING 426
SWIDTH 2000 0
DWIDTH 24 0
BBX 20 36 4 0
BITMAP
0F0000
0F0000
0F0000
0F0000
F0F000
F0F000
F0F000
F0F000
0FF000
0FF000
0FF000
0FF000
00F000
00F000
00F000
00F000
00F000
00F000
00F000
00F000
00F000
00F000
00F000
00F000
00F000
00F000
00F000
00F000
00F0F0
00F0F0
00F0F0
00F0F0
000F00
000F00
000F00
000F00
ENDCHAR
STARTCHAR uni01AB
ENCODING 427
SWIDTH 2000 0
DWIDTH 24 0
BBX 20 40 4 -8
BITMAP
0F0000
0F0000
0F0000
0F0000
0F0000
0F0000
0F0000
0F0000
FFFF00
FFFF00
FFFF00
FFFF00
0F0000
0F0000
0F0000
0F0000
0F0000
0F0000
0F0000
0F0000
0F0000
0F0000
0F0000
0F0000
0F0000
0F0000
0F0000
0F0000
00FFF0
00FFF0
00FFF0
00FFF0
0000F0
0000F0
0000F0
0000F0
00FF00
00FF00
00FF00
00FF00
ENDCHAR
STARTCHAR uni01AC
ENCODING 428
SWIDTH 2000 0
DWIDTH 24 0
BBX 20 32 4 0
BITMAP
0FFFF0
0FFFF0
0FFFF0
0FFFF0
F0F000
F0F000
F0F000
F0F000
00F000
00F000
00F000
00F000
00F000
00F000
00F000
00F000
00F000
00F000
00F000
00F000
00F000
00F000
00F000
00F000
00F000
00F000
00F000
00F000
00F000
00F000
00F000
00F000
ENDCHAR
STARTCHAR uni01AD
ENCODING 429
SWIDTH 2000 0
DWIDTH 24 0
BBX 20 32 4 0
BITMAP
00F000
00F000
00F000
00F000
0F0000
0F0000
0F0000
0F0000
FFFF00
FFFF00
FFFF00
FFFF00
0F0000
0F0000
0F0000
0F0000
0F0000
0F0000
0F0000
0F0000
0F0000
0F0000
0F0000
0F0000
0F00F0
0F00F0
0F00F0
0F00F0
00FF00
00FF00
00FF00
00FF00
ENDCHAR
STARTCHAR uni01AE
ENCODING 430
SWIDTH 2000 0
DWIDTH 24 0
BBX 20 36 4 -4
BITMAP
FFFFF0
FFFFF0
FFFFF0
FFFFF0
00F000
00F000
00F000
00F000
00F000
00F000
00F000
00F000
00F000
00F000
00F000
00F000
00F000
00F000
00F000
00F000
00F000
00F000
00F000
00F000
00F000
00F000
00F000
00F000
00F000
00F000
00F000
00F000
000FF0
000FF0
000FF0
000FF0
ENDCHAR
STARTCHAR Uhorn
ENCODING 431
SWIDTH 2000 0
DWIDTH 24 0
BBX 20 40 4 0
BITMAP
000FF0
000FF0
000FF0
000FF0
0000F0
0000F0
0000F0
0000F0
F00F00
F00F00
F00F00
F00F00
F00000
F00000
F00000
F00000
F000F0
F000F0
F000F0
F000F0
F000F0
F000F0
F000F0
F000F0
F000F0
F000F0
F000F0
F000F0
F000F0
F000F0
F000F0
F000F0
F000F0
F000F0
F000F0
F000F0
0FFF00
0FFF00
0FFF00
0FFF00
ENDCHAR
STARTCHAR uhorn
ENCODING 432
SWIDTH 2000 0
DWIDTH 24 0
BBX 20 36 4 0
BITMAP
000FF0
000FF0
000FF0
000FF0
0000F0
0000F0
0000F0
0000F0
000F00
000F00
000F00
000F00
F00000
F00000
F00000
F00000
F000F0
F000F0
F000F0
F000F0
F000F0
F000F0
F000F0
F000F0
F000F0
F000F0
F000F0
F000F0
F000F0
F000F0
F000F0
F000F0
0FFFF0
0FFFF0
0FFFF0
0FFFF0
ENDCHAR
STARTCHAR uni01B1
ENCODING 433
SWIDTH 2000 0
DWIDTH 24 0
BBX 20 32 4 0
BITMAP
FF0FF0
FF0FF0
FF0FF0
FF0FF0
0F0F00
0F0F00
0F0F00
0F0F00
F000F0
F000F0
F000F0
F000F0
F000F0
F000F0
F000F0
F000F0
F000F0
F000F0
F000F0
F000F0
F000F0
F000F0
F000F0
F000F0
F000F0
F000F0
F000F0
F000F0
0FFF00
0FFF00
0FFF00
0FFF00
ENDCHAR
STARTCHAR uni01B2
ENCODING 434
SWIDTH 2000 0
DWIDTH 24 0
BBX 20 32 4 0
BITMAP
F00000
F00000
F00000
F00000
F00F00
F00F00
F00F00
F00F00
F000F0
F000F0
F000F0
F000F0
F000F0
F000F0
F000F0
F000F0
F000F0
F000F0
F000F0
F000F0
F000F0
F000F0
F000F0
F000F0
F000F0
F000F0
F000F0
F000F0
0FFF00
0FFF00
0FFF00
0FFF00
ENDCHAR
STARTCHAR uni01B3
ENCODING 435
SWIDTH 2000 0
DWIDTH 24 0
BBX 28 32 4 0
BITMAP
F0000F00
F0000F00
F0000F00
F0000F00
F000F0F0
F000F0F0
F000F0F0
F000F0F0
F000F000
F000F000
F000F000
F000F000
0F0F0000
0F0F0000
0F0F0000
0F0F0000
00F00000
00F00000
00F00000
00F00000
00F00000
00F00000
00F00000
00F00000
00F00000
00F00000
00F00000
00F00000
00F00000
00F00000
00F00000
00F00000
ENDCHAR
STARTCHAR uni01B4
ENCODING 436
SWIDTH 2000 0
DWIDTH 24 0
BBX 28 36 4 -12
BITMAP
F0000F00
F0000F00
F0000F00
F0000F00
F000F0F0
F000F0F0
F000F0F0
F000F0F0
F000F000
F000F000
F000F000
F000F000
F000F000
F000F000
F000F000
F000F000
F000F000
F000F000
F000F000
F000F000
0FFFF000
0FFFF000
0FFFF000
0FFFF000
0000F000
0000F000
0000F000
0000F000
0000F000
0000F000
0000F000
0000F000
0FFF0000
0FFF0000
0FFF0000
0FFF0000
ENDCHAR
STARTCHAR uni01B5
ENCODING 437
SWIDTH 2000 0
DWIDTH 24 0
BBX 20 32 4 0
BITMAP
FFFFF0
FFFFF0
FFFFF0
FFFFF0
000F00
000F00
000F00
000F00
00F000
00F000
00F000
00F000
FFFF00
FFFF00
FFFF00
FFFF00
0F0000
0F0000
0F0000
0F0000
0F0000
0F0000
0F0000
0F0000
F00000
F00000
F00000
F00000
FFFFF0
FFFFF0
FFFFF0
FFFFF0
ENDCHAR
STARTCHAR uni01B6
ENCODING 438
SWIDTH 2000 0
DWIDTH 24 0
BBX 20 24 4 0
BITMAP
FFFFF0
FFFFF0
FFFFF0
FFFFF0
000F00
000F00
000F00
000F00
FFFFF0
FFFFF0
FFFFF0
FFFFF0
0F0000
0F0000
0F0000
0F0000
F00000
F00000
F00000
F00000
FFFFF0
FFFFF0
FFFFF0
FFFFF0
ENDCHAR
STARTCHAR uni01B7
ENCODING 439
SWIDTH 2000 0
DWIDTH 24 0
BBX 20 32 4 0
BITMAP
FFFFF0
FFFFF0
FFFFF0
FFFFF0
000F00
000F00
000F00
000F00
00F000
00F000
00F000
00F000
0FFF00
0FFF00
0FFF00
0FFF00
0000F0
0000F0
0000F0
0000F0
0000F0
0000F0
0000F0
0000F0
F000F0
F000F0
F000F0
F000F0
0FFF00
0FFF00
0FFF00
0FFF00
ENDCHAR
STARTCHAR uni01B8
ENCODING 440
SWIDTH 2000 0
DWIDTH 24 0
BBX 20 32 4 0
BITMAP
FFFFF0
FFFFF0
FFFFF0
FFFFF0
0F0000
0F0000
0F0000
0F0000
00F000
00F000
00F000
00F000
0FFF00
0FFF00
0FFF00
0FFF00
F00000
F00000
F00000
F00000
F00000
F00000
F00000
F00000
F000F0
F000F0
F000F0
F000F0
0FFF00
0FFF00
0FFF00
0FFF00
ENDCHAR
STARTCHAR uni01B9
ENCODING 441
SWIDTH 2000 0
DWIDTH 24 0
BBX 20 32 4 -8
BITMAP
FFFFF0
FFFFF0
FFFFF0
FFFFF0
0F0000
0F0000
0F0000
0F0000
00F000
00F000
00F000
00F000
0FFF00
0FFF00
0FFF00
0FFF00
F00000
F00000
F00000
F00000
F00000
F00000
F00000
F00000
F000F0
F000F0
F000F0
F000F0
0FFF00
0FFF00
0FFF00
0FFF00
ENDCHAR
STARTCHAR uni01BA
ENCODING 442
SWIDTH 2000 0
DWIDTH 24 0
BBX 20 36 4 -12
BITMAP
FFFFF0
FFFFF0
FFFFF0
FFFFF0
000F00
000F00
000F00
000F00
00F000
00F000
00F000
00F000
0FFF00
0FFF00
0FFF00
0FFF00
0000F0
0000F0
0000F0
0000F0
0000F0
0000F0
0000F0
0000F0
FFFF00
FFFF00
FFFF00
FFFF00
F00000
F00000
F00000
F00000
0FF000
0FF000
0FF000
0FF000
ENDCHAR
STARTCHAR uni01BB
ENCODING 443
SWIDTH 2000 0
DWIDTH 24 0
BBX 20 32 4 0
BITMAP
0FFF00
0FFF00
0FFF00
0FFF00
F000F0
F000F0
F000F0
F000F0
0000F0
0000F0
0000F0
0000F0
000F00
000F00
000F00
000F00
FFFFF0
FFFFF0
FFFFF0
FFFFF0
0F0000
0F0000
0F0000
0F0000
F00000
F00000
F00000
F00000
FFFFF0
FFFFF0
FFFFF0
FFFFF0
ENDCHAR
STARTCHAR uni01BC
ENCODING 444
SWIDTH 2000 0
DWIDTH 24 0
BBX 20 32 4 0
BITMAP
0FFFF0
0FFFF0
0FFFF0
0FFFF0
0F0000
0F0000
0F0000
0F0000
0F0000
0F0000
0F0000
0F0000
0FFF00
0FFF00
0FFF00
0FFF00
0000F0
0000F0
0000F0
0000F0
0000F0
0000F0
0000F0
0000F0
F000F0
F000F0
F000F0
F000F0
0FFF00
0FFF00
0FFF00
0FFF00
ENDCHAR
STARTCHAR uni01BD
ENCODING 445
SWIDTH 2000 0
DWIDTH 24 0
BBX 20 32 4 -8
BITMAP
0FFFF0
0FFFF0
0FFFF0
0FFFF0
0F0000
0F0000
0F0000
0F0000
0F0000
0F0000
0F0000
0F0000
0FFF00
0FFF00
0FFF00
0FFF00
0000F0
0000F0
0000F0
0000F0
F000F0
F000F0
F000F0
F000F0
F000F0
F000F0
F000F0
F000F0
0FFF00
0FFF00
0FFF00
0FFF00
ENDCHAR
STARTCHAR uni01BE
ENCODING 446
SWIDTH 2000 0
DWIDTH 24 0
BBX 20 32 4 0
BITMAP
00F000
00F000
00F000
00F000
0FFF00
0FFF00
0FFF00
0FFF00
00F000
00F000
00F000
00F000
00F000
00F000
00F000
00F000
000F00
000F00
000F00
000F00
0000F0
0000F0
0000F0
0000F0
F000F0
F000F0
F000F0
F000F0
0FFF00
0FFF00
0FFF00
0FFF00
ENDCHAR
STARTCHAR uni01BF
ENCODING 447
SWIDTH 2000 0
DWIDTH 24 0
BBX 20 28 4 0
BITMAP
F0FF00
F0FF00
F0FF00
F0FF00
FF00F0
FF00F0
FF00F0
FF00F0
F000F0
F000F0
F000F0
F000F0
F00F00
F00F00
F00F00
F00F00
FFF000
FFF000
FFF000
FFF000
F00000
F00000
F00000
F00000
F00000
F00000
F00000
F00000
ENDCHAR
STARTCHAR uni01C0
ENCODING 448
SWIDTH 2000 0
DWIDTH 24 0
BBX 4 32 12 0
BITMAP
F0
F0
F0
F0
F0
F0
F0
F0
F0
F0
F0
F0
F0
F0
F0
F0
F0
F0
F0
F0
F0
F0
F0
F0
F0
F0
F0
F0
F0
F0
F0
F0
ENDCHAR
STARTCHAR uni01C1
ENCODING 449
SWIDTH 2000 0
DWIDTH 24 0
BBX 12 32 8 0
BITMAP
F0F0
F0F0
F0F0
F0F0
F0F0
F0F0
F0F0
F0F0
F0F0
F0F0
F0F0
F0F0
F0F0
F0F0
F0F0
F0F0
F0F0
F0F0
F0F0
F0F0
F0F0
F0F0
F0F0
F0F0
F0F0
F0F0
F0F0
F0F0
F0F0
F0F0
F0F0
F0F0
ENDCHAR
STARTCHAR uni01C2
ENCODING 450
SWIDTH 2000 0
DWIDTH 24 0
BBX 20 32 4 0
BITMAP
00F000
00F000
00F000
00F000
00F000
00F000
00F000
00F000
FFFFF0
FFFFF0
FFFFF0
FFFFF0
00F000
00F000
00F000
00F000
FFFFF0
FFFFF0
FFFFF0
FFFFF0
00F000
00F000
00F000
00F000
00F000
00F000
00F000
00F000
00F000
00F000
00F000
00F000
ENDCHAR
STARTCHAR uni01C3
ENCODING 451
SWIDTH 2000 0
DWIDTH 24 0
BBX 4 28 12 0
BITMAP
F0
F0
F0
F0
F0
F0
F0
F0
F0
F0
F0
F0
F0
F0
F0
F0
F0
F0
F0
F0
00
00
00
00
F0
F0
F0
F0
ENDCHAR
STARTCHAR uni01CD
ENCODING 461
SWIDTH 2000 0
DWIDTH 24 0
BBX 20 40 4 0
BITMAP
0F0F00
0F0F00
0F0F00
0F0F00
00F000
00F000
00F000
00F000
000000
000000
000000
000000
0FFF00
0FFF00
0FFF00
0FFF00
F000F0
F000F0
F000F0
F000F0
F000F0
F000F0
F000F0
F000F0
FFFFF0
FFFFF0
FFFFF0
FFFFF0
F000F0
F000F0
F000F0
F000F0
F000F0
F000F0
F000F0
F000F0
F000F0
F000F0
F000F0
F000F0
ENDCHAR
STARTCHAR uni01CE
ENCODING 462
SWIDTH 2000 0
DWIDTH 24 0
BBX 20 36 4 0
BITMAP
0F0F00
0F0F00
0F0F00
0F0F00
00F000
00F000
00F000
00F000
000000
000000
000000
000000
0FFFF0
0FFFF0
0FFFF0
0FFFF0
F000F0
F000F0
F000F0
F000F0
F000F0
F000F0
F000F0
F000F0
F000F0
F000F0
F000F0
F000F0
F00FF0
F00FF0
F00FF0
F00FF0
0FF0F0
0FF0F0
0FF0F0
0FF0F0
ENDCHAR
STARTCHAR uni01CF
ENCODING 463
SWIDTH 2000 0
DWIDTH 24 0
BBX 12 40 8 0
BITMAP
F0F0
F0F0
F0F0
F0F0
0F00
0F00
0F00
0F00
0000
0000
0000
0000
FFF0
FFF0
FFF0
FFF0
0F00
0F00
0F00
0F00
0F00
0F00
0F00
0F00
0F00
0F00
0F00
0F00
0F00
0F00
0F00
0F00
0F00
0F00
0F00
0F00
FFF0
FFF0
FFF0
FFF0
ENDCHAR
STARTCHAR uni01D0
ENCODING 464
SWIDTH 2000 0
DWIDTH 24 0
BBX 16 36 8 0
BITMAP
F0F0
F0F0
F0F0
F0F0
0F00
0F00
0F00
0F00
0000
0000
0000
0000
FF00
FF00
FF00
FF00
0F00
0F00
0F00
0F00
0F00
0F00
0F00
0F00
0F00
0F00
0F00
0F00
0F00
0F00
0F00
0F00
00FF
00FF
00FF
00FF
ENDCHAR
STARTCHAR uni01D1
ENCODING 465
SWIDTH 2000 0
DWIDTH 24 0
BBX 20 40 4 0
BITMAP
0F0F00
0F0F00
0F0F00
0F0F00
00F000
00F000
00F000
00F000
000000
000000
000000
000000
0FFF00
0FFF00
0FFF00
0FFF00
F000F0
F000F0
F000F0
F000F0
F000F0
F000F0
F000F0
F000F0
F000F0
F000F0
F000F0
F000F0
F000F0
F000F0
F000F0
F000F0
F000F0
F000F0
F000F0
F000F0
0FFF00
0FFF00
0FFF00
0FFF00
ENDCHAR
STARTCHAR uni01D2
ENCODING 466
SWIDTH 2000 0
DWIDTH 24 0
BBX 20 36 4 0
BITMAP
0F0F00
0F0F00
0F0F00
0F0F00
00F000
00F000
00F000
00F000
000000
000000
000000
000000
0FFF00
0FFF00
0FFF00
0FFF00
F000F0
F000F0
F000F0
F000F0
F000F0
F000F0
F000F0
F000F0
F000F0
F000F0
F000F0
F000F0
F000F0
F000F0
F000F0
F000F0
0FFF00
0FFF00
0FFF00
0FFF00
ENDCHAR
STARTCHAR uni01D3
ENCODING 467
SWIDTH 2000 0
DWIDTH 24 0
BBX 20 40 4 0
BITMAP
0F0F00
0F0F00
0F0F00
0F0F00
00F000
00F000
00F000
00F000
F000F0
F000F0
F000F0
F000F0
F000F0
F000F0
F000F0
F000F0
F000F0
F000F0
F000F0
F000F0
F000F0
F000F0
F000F0
F000F0
F000F0
F000F0
F000F0
F000F0
F000F0
F000F0
F000F0
F000F0
F000F0
F000F0
F000F0
F000F0
0FFF00
0FFF00
0FFF00
0FFF00
ENDCHAR
STARTCHAR uni01D4
ENCODING 468
SWIDTH 2000 0
DWIDTH 24 0
BBX 20 32 4 0
BITMAP
0F0F00
0F0F00
0F0F00
0F0F00
00F000
00F000
00F000
00F000
F000F0
F000F0
F000F0
F000F0
F000F0
F000F0
F000F0
F000F0
F000F0
F000F0
F000F0
F000F0
F000F0
F000F0
F000F0
F000F0
F000F0
F000F0
F000F0
F000F0
0FFFF0
0FFFF0
0FFFF0
0FFFF0
ENDCHAR
STARTCHAR uni01D5
ENCODING 469
SWIDTH 2000 0
DWIDTH 24 0
BBX 20 40 4 0
BITMAP
0FFF00
0FFF00
0FFF00
0FFF00
000000
000000
000000
000000
F000F0
F000F0
F000F0
F000F0
000000
000000
000000
000000
F000F0
F000F0
F000F0
F000F0
F000F0
F000F0
F000F0
F000F0
F000F0
F000F0
F000F0
F000F0
F000F0
F000F0
F000F0
F000F0
F000F0
F000F0
F000F0
F000F0
0FFF00
0FFF00
0FFF00
0FFF00
ENDCHAR
STARTCHAR uni01D6
ENCODING 470
SWIDTH 2000 0
DWIDTH 24 0
BBX 20 40 4 0
BITMAP
0FFF00
0FFF00
0FFF00
0FFF00
000000
000000
000000
000000
0F0F00
0F0F00
0F0F00
0F0F00
000000
000000
000000
000000
F000F0
F000F0
F000F0
F000F0
F000F0
F000F0
F000F0
F000F0
F000F0
F000F0
F000F0
F000F0
F000F0
F000F0
F000F0
F000F0
F000F0
F000F0
F000F0
F000F0
0FFFF0
0FFFF0
0FFFF0
0FFFF0
ENDCHAR
STARTCHAR uni01D7
ENCODING 471
SWIDTH 2000 0
DWIDTH 24 0
BBX 20 40 4 0
BITMAP
000F00
000F00
000F00
000F00
00F000
00F000
00F000
00F000
F000F0
F000F0
F000F0
F000F0
000000
000000
000000
000000
F000F0
F000F0
F000F0
F000F0
F000F0
F000F0
F000F0
F000F0
F000F0
F000F0
F000F0
F000F0
F000F0
F000F0
F000F0
F000F0
F000F0
F000F0
F000F0
F000F0
0FFF00
0FFF00
0FFF00
0FFF00
ENDCHAR
STARTCHAR uni01D8
ENCODING 472
SWIDTH 2000 0
DWIDTH 24 0
BBX 20 40 4 0
BITMAP
000F00
000F00
000F00
000F00
00F000
00F000
00F000
00F000
000000
000000
000000
000000
0F0F00
0F0F00
0F0F00
0F0F00
000000
000000
000000
000000
F000F0
F000F0
F000F0
F000F0
F000F0
F000F0
F000F0
F000F0
F000F0
F000F0
F000F0
F000F0
F000F0
F000F0
F000F0
F000F0
0FFFF0
0FFFF0
0FFFF0
0FFFF0
ENDCHAR
STARTCHAR uni01D9
ENCODING 473
SWIDTH 2000 0
DWIDTH 24 0
BBX 20 40 4 0
BITMAP
0F0F00
0F0F00
0F0F00
0F0F00
00F000
00F000
00F000
00F000
F000F0
F000F0
F000F0
F000F0
000000
000000
000000
000000
F000F0
F000F0
F000F0
F000F0
F000F0
F000F0
F000F0
F000F0
F000F0
F000F0
F000F0
F000F0
F000F0
F000F0
F000F0
F000F0
F000F0
F000F0
F000F0
F000F0
0FFF00
0FFF00
0FFF00
0FFF00
ENDCHAR
STARTCHAR uni01DA
ENCODING 474
SWIDTH 2000 0
DWIDTH 24 0
BBX 20 40 4 0
BITMAP
0F0F00
0F0F00
0F0F00
0F0F00
00F000
00F000
00F000
00F000
000000
000000
000000
000000
0F0F00
0F0F00
0F0F00
0F0F00
000000
000000
000000
000000
F000F0
F000F0
F000F0
F000F0
F000F0
F000F0
F000F0
F000F0
F000F0
F000F0
F000F0
F000F0
F000F0
F000F0
F000F0
F000F0
0FFFF0
0FFFF0
0FFFF0
0FFFF0
ENDCHAR
STARTCHAR uni01DB
ENCODING 475
SWIDTH 2000 0
DWIDTH 24 0
BBX 20 40 4 0
BITMAP
0F0000
0F0000
0F0000
0F0000
00F000
00F000
00F000
00F000
F000F0
F000F0
F000F0
F000F0
000000
000000
000000
000000
F000F0
F000F0
F000F0
F000F0
F000F0
F000F0
F000F0
F000F0
F000F0
F000F0
F000F0
F000F0
F000F0
F000F0
F000F0
F000F0
F000F0
F000F0
F000F0
F000F0
0FFF00
0FFF00
0FFF00
0FFF00
ENDCHAR
STARTCHAR uni01DC
ENCODING 476
SWIDTH 2000 0
DWIDTH 24 0
BBX 20 40 4 0
BITMAP
0F0000
0F0000
0F0000
0F0000
00F000
00F000
00F000
00F000
000000
000000
000000
000000
0F0F00
0F0F00
0F0F00
0F0F00
000000
000000
000000
000000
F000F0
F000F0
F000F0
F000F0
F000F0
F000F0
F000F0
F000F0
F000F0
F000F0
F000F0
F000F0
F000F0
F000F0
F000F0
F000F0
0FFFF0
0FFFF0
0FFFF0
0FFFF0
ENDCHAR
STARTCHAR uni01DD
ENCODING 477
SWIDTH 2000 0
DWIDTH 24 0
BBX 20 24 4 0
BITMAP
0FFF00
0FFF00
0FFF00
0FFF00
F000F0
F000F0
F000F0
F000F0
0000F0
0000F0
0000F0
0000F0
FFFFF0
FFFFF0
FFFFF0
FFFFF0
F000F0
F000F0
F000F0
F000F0
0FFF00
0FFF00
0FFF00
0FFF00
ENDCHAR
STARTCHAR uni01DE
ENCODING 478
SWIDTH 2000 0
DWIDTH 24 0
BBX 20 40 4 0
BITMAP
0FFF00
0FFF00
0FFF00
0FFF00
000000
000000
000000
000000
0F0F00
0F0F00
0F0F00
0F0F00
000000
000000
000000
000000
0FFF00
0FFF00
0FFF00
0FFF00
F000F0
F000F0
F000F0
F000F0
F000F0
F000F0
F000F0
F000F0
FFFFF0
FFFFF0
FFFFF0
FFFFF0
F000F0
F000F0
F000F0
F000F0
F000F0
F000F0
F000F0
F000F0
ENDCHAR
STARTCHAR uni01DF
ENCODING 479
SWIDTH 2000 0
DWIDTH 24 0
BBX 20 40 4 0
BITMAP
0FFF00
0FFF00
0FFF00
0FFF00
000000
000000
000000
000000
0F0F00
0F0F00
0F0F00
0F0F00
000000
000000
000000
000000
0FFFF0
0FFFF0
0FFFF0
0FFFF0
F000F0
F000F0
F000F0
F000F0
F000F0
F000F0
F000F0
F000F0
F000F0
F000F0
F000F0
F000F0
F00FF0
F00FF0
F00FF0
F00FF0
0FF0F0
0FF0F0
0FF0F0
0FF0F0
ENDCHAR
STARTCHAR uni01E0
ENCODING 480
SWIDTH 2000 0
DWIDTH 24 0
BBX 20 40 4 0
BITMAP
0FFF00
0FFF00
0FFF00
0FFF00
000000
000000
000000
000000
00F000
00F000
00F000
00F000
000000
000000
000000
000000
0FFF00
0FFF00
0FFF00
0FFF00
F000F0
F000F0
F000F0
F000F0
F000F0
F000F0
F000F0
F000F0
FFFFF0
FFFFF0
FFFFF0
FFFFF0
F000F0
F000F0
F000F0
F000F0
F000F0
F000F0
F000F0
F000F0
ENDCHAR
STARTCHAR uni01E1
ENCODING 481
SWIDTH 2000 0
DWIDTH 24 0
BBX 20 40 4 0
BITMAP
0FFF00
0FFF00
0FFF00
0FFF00
000000
000000
000000
000000
00F000
00F000
00F000
00F000
000000
000000
000000
000000
0FFFF0
0FFFF0
0FFFF0
0FFFF0
F000F0
F000F0
F000F0
F000F0
F000F0
F000F0
F000F0
F000F0
F000F0
F000F0
F000F0
F000F0
F00FF0
F00FF0
F00FF0
F00FF0
0FF0F0
0FF0F0
0FF0F0
0FF0F0
ENDCHAR
STARTCHAR uni01E2
ENCODING 482
SWIDTH 2000 0
DWIDTH 24 0
BBX 20 40 4 0
BITMAP
0FFF00
0FFF00
0FFF00
0FFF00
000000
000000
000000
000000
0FFFF0
0FFFF0
0FFFF0
0FFFF0
F0F000
F0F000
F0F000
F0F000
F0F000
F0F000
F0F000
F0F000
F0FFF0
F0FFF0
F0FFF0
F0FFF0
FFF000
FFF000
FFF000
FFF000
F0F000
F0F000
F0F000
F0F000
F0F000
F0F000
F0F000
F0F000
F0FFF0
F0FFF0
F0FFF0
F0FFF0
ENDCHAR
STARTCHAR uni01E3
ENCODING 483
SWIDTH 2000 0
DWIDTH 24 0
BBX 20 32 4 0
BITMAP
0FFF00
0FFF00
0FFF00
0FFF00
000000
000000
000000
000000
0FFFF0
0FFFF0
0FFFF0
0FFFF0
F0F0F0
F0F0F0
F0F0F0
F0F0F0
F0F0F0
F0F0F0
F0F0F0
F0F0F0
F0FF00
F0FF00
F0FF00
F0FF00
F0F000
F0F000
F0F000
F0F000
0F0FF0
0F0FF0
0F0FF0
0F0FF0
ENDCHAR
STARTCHAR uni01E4
ENCODING 484
SWIDTH 2000 0
DWIDTH 24 0
BBX 24 32 4 0
BITMAP
0FFF00
0FFF00
0FFF00
0FFF00
F000F0
F000F0
F000F0
F000F0
F00000
F00000
F00000
F00000
F00FF0
F00FF0
F00FF0
F00FF0
F000F0
F000F0
F000F0
F000F0
F0FFFF
F0FFFF
F0FFFF
F0FFFF
F000F0
F000F0
F000F0
F000F0
0FFF00
0FFF00
0FFF00
0FFF00
ENDCHAR
STARTCHAR uni01E5
ENCODING 485
SWIDTH 2000 0
DWIDTH 24 0
BBX 24 36 4 -12
BITMAP
0FFFF0
0FFFF0
0FFFF0
0FFFF0
F000F0
F000F0
F000F0
F000F0
F000F0
F000F0
F000F0
F000F0
F0FFFF
F0FFFF
F0FFFF
F0FFFF
F000F0
F000F0
F000F0
F000F0
0FFFF0
0FFFF0
0FFFF0
0FFFF0
0000F0
0000F0
0000F0
0000F0
0000F0
0000F0
0000F0
0000F0
0FFF00
0FFF00
0FFF00
0FFF00
ENDCHAR
STARTCHAR Gcaron
ENCODING 486
SWIDTH 2000 0
DWIDTH 24 0
BBX 20 40 4 0
BITMAP
0F0F00
0F0F00
0F0F00
0F0F00
00F000
00F000
00F000
00F000
000000
000000
000000
000000
0FFF00
0FFF00
0FFF00
0FFF00
F000F0
F000F0
F000F0
F000F0
F00000
F00000
F00000
F00000
F00FF0
F00FF0
F00FF0
F00FF0
F000F0
F000F0
F000F0
F000F0
F000F0
F000F0
F000F0
F000F0
0FFF00
0FFF00
0FFF00
0FFF00
ENDCHAR
STARTCHAR gcaron
ENCODING 487
SWIDTH 2000 0
DWIDTH 24 0
BBX 20 48 4 -12
BITMAP
0F0F00
0F0F00
0F0F00
0F0F00
00F000
00F000
00F000
00F000
000000
000000
000000
000000
0FFFF0
0FFFF0
0FFFF0
0FFFF0
F000F0
F000F0
F000F0
F000F0
F000F0
F000F0
F000F0
F000F0
F000F0
F000F0
F000F0
F000F0
F000F0
F000F0
F000F0
F000F0
0FFFF0
0FFFF0
0FFFF0
0FFFF0
0000F0
0000F0
0000F0
0000F0
0000F0
0000F0
0000F0
0000F0
0FFF00
0FFF00
0FFF00
0FFF00
ENDCHAR
STARTCHAR uni01E8
ENCODING 488
SWIDTH 2000 0
DWIDTH 24 0
BBX 20 40 4 0
BITMAP
0F0F00
0F0F00
0F0F00
0F0F00
00F000
00F000
00F000
00F000
F000F0
F000F0
F000F0
F000F0
F00F00
F00F00
F00F00
F00F00
F0F000
F0F000
F0F000
F0F000
FFF000
FFF000
FFF000
FFF000
F00F00
F00F00
F00F00
F00F00
F00F00
F00F00
F00F00
F00F00
F000F0
F000F0
F000F0
F000F0
F000F0
F000F0
F000F0
F000F0
ENDCHAR
STARTCHAR uni01E9
ENCODING 489
SWIDTH 2000 0
DWIDTH 24 0
BBX 20 36 4 0
BITMAP
F0F0F0
F0F0F0
F0F0F0
F0F0F0
F00F00
F00F00
F00F00
F00F00
F00000
F00000
F00000
F00000
F000F0
F000F0
F000F0
F000F0
F00F00
F00F00
F00F00
F00F00
F0F000
F0F000
F0F000
F0F000
FFF000
FFF000
FFF000
FFF000
F00F00
F00F00
F00F00
F00F00
F000F0
F000F0
F000F0
F000F0
ENDCHAR
STARTCHAR uni01EA
ENCODING 490
SWIDTH 2000 0
DWIDTH 24 0
BBX 20 40 4 -8
BITMAP
0FFF00
0FFF00
0FFF00
0FFF00
F000F0
F000F0
F000F0
F000F0
F000F0
F000F0
F000F0
F000F0
F000F0
F000F0
F000F0
F000F0
F000F0
F000F0
F000F0
F000F0
F000F0
F000F0
F000F0
F000F0
F000F0
F000F0
F000F0
F000F0
0FFF00
0FFF00
0FFF00
0FFF00
00F000
00F000
00F000
00F000
00FF00
00FF00
00FF00
00FF00
ENDCHAR
STARTCHAR uni01EB
ENCODING 491
SWIDTH 2000 0
DWIDTH 24 0
BBX 20 32 4 -8
BITMAP
0FFF00
0FFF00
0FFF00
0FFF00
F000F0
F000F0
F000F0
F000F0
F000F0
F000F0
F000F0
F000F0
F000F0
F000F0
F000F0
F000F0
F000F0
F000F0
F000F0
F000F0
0FFF00
0FFF00
0FFF00
0FFF00
000F00
000F00
000F00
000F00
000FF0
000FF0
000FF0
000FF0
ENDCHAR
STARTCHAR uni01EC
ENCODING 492
SWIDTH 2000 0
DWIDTH 24 0
BBX 20 48 4 -8
BITMAP
0FFF00
0FFF00
0FFF00
0FFF00
000000
000000
000000
000000
0FFF00
0FFF00
0FFF00
0FFF00
F000F0
F000F0
F000F0
F000F0
F000F0
F000F0
F000F0
F000F0
F000F0
F000F0
F000F0
F000F0
F000F0
F000F0
F000F0
F000F0
F000F0
F000F0
F000F0
F000F0
F000F0
F000F0
F000F0
F000F0
0FFF00
0FFF00
0FFF00
0FFF00
00F000
00F000
00F000
00F000
00FF00
00FF00
00FF00
00FF00
ENDCHAR
STARTCHAR uni01ED
ENCODING 493
SWIDTH 2000 0
DWIDTH 24 0
BBX 20 40 4 -8
BITMAP
0FFF00
0FFF00
0FFF00
0FFF00
000000
000000
000000
000000
0FFF00
0FFF00
0FFF00
0FFF00
F000F0
F000F0
F000F0
F000F0
F000F0
F000F0
F000F0
F000F0
F000F0
F000F0
F000F0
F000F0
F000F0
F000F0
F000F0
F000F0
0FFF00
0FFF00
0FFF00
0FFF00
000F00
000F00
000F00
000F00
000FF0
000FF0
000FF0
000FF0
ENDCHAR
STARTCHAR uni01EE
ENCODING 494
SWIDTH 2000 0
DWIDTH 24 0
BBX 20 40 4 0
BITMAP
0F0F00
0F0F00
0F0F00
0F0F00
00F000
00F000
00F000
00F000
FFFFF0
FFFFF0
FFFFF0
FFFFF0
000F00
000F00
000F00
000F00
00F000
00F000
00F000
00F000
0FFF00
0FFF00
0FFF00
0FFF00
0000F0
0000F0
0000F0
0000F0
0000F0
0000F0
0000F0
0000F0
F000F0
F000F0
F000F0
F000F0
0FFF00
0FFF00
0FFF00
0FFF00
ENDCHAR
STARTCHAR uni01EF
ENCODING 495
SWIDTH 2000 0
DWIDTH 24 0
BBX 20 44 4 -8
BITMAP
0F0F00
0F0F00
0F0F00
0F0F00
00F000
00F000
00F000
00F000
000000
000000
000000
000000
FFFFF0
FFFFF0
FFFFF0
FFFFF0
000F00
000F00
000F00
000F00
00F000
00F000
00F000
00F000
0FFF00
0FFF00
0FFF00
0FFF00
0000F0
0000F0
0000F0
0000F0
0000F0
0000F0
0000F0
0000F0
F000F0
F000F0
F000F0
F000F0
0FFF00
0FFF00
0FFF00
0FFF00
ENDCHAR
STARTCHAR uni01F0
ENCODING 496
SWIDTH 2000 0
DWIDTH 24 0
BBX 12 44 8 -8
BITMAP
F0F0
F0F0
F0F0
F0F0
0F00
0F00
0F00
0F00
0000
0000
0000
0000
0FF0
0FF0
0FF0
0FF0
00F0
00F0
00F0
00F0
00F0
00F0
00F0
00F0
00F0
00F0
00F0
00F0
00F0
00F0
00F0
00F0
00F0
00F0
00F0
00F0
F0F0
F0F0
F0F0
F0F0
0F00
0F00
0F00
0F00
ENDCHAR
STARTCHAR uni01F4
ENCODING 500
SWIDTH 2000 0
DWIDTH 24 0
BBX 20 40 4 0
BITMAP
000F00
000F00
000F00
000F00
00F000
00F000
00F000
00F000
000000
000000
000000
000000
0FFF00
0FFF00
0FFF00
0FFF00
F000F0
F000F0
F000F0
F000F0
F00000
F00000
F00000
F00000
F00FF0
F00FF0
F00FF0
F00FF0
F000F0
F000F0
F000F0
F000F0
F000F0
F000F0
F000F0
F000F0
0FFF00
0FFF00
0FFF00
0FFF00
ENDCHAR
STARTCHAR uni01F5
ENCODING 501
SWIDTH 2000 0
DWIDTH 24 0
BBX 20 48 4 -12
BITMAP
000F00
000F00
000F00
000F00
00F000
00F000
00F000
00F000
000000
000000
000000
000000
0FFFF0
0FFFF0
0FFFF0
0FFFF0
F000F0
F000F0
F000F0
F000F0
F000F0
F000F0
F000F0
F000F0
F000F0
F000F0
F000F0
F000F0
F000F0
F000F0
F000F0
F000F0
0FFFF0
0FFFF0
0FFFF0
0FFFF0
0000F0
0000F0
0000F0
0000F0
0000F0
0000F0
0000F0
0000F0
0FFF00
0FFF00
0FFF00
0FFF00
ENDCHAR
STARTCHAR uni01F6
ENCODING 502
SWIDTH 2000 0
DWIDTH 24 0
BBX 20 32 4 0
BITMAP
F0F000
F0F000
F0F000
F0F000
F0F000
F0F000
F0F000
F0F000
F0F000
F0F000
F0F000
F0F000
FFF0F0
FFF0F0
FFF0F0
FFF0F0
F0F0F0
F0F0F0
F0F0F0
F0F0F0
F0F0F0
F0F0F0
F0F0F0
F0F0F0
F0F0F0
F0F0F0
F0F0F0
F0F0F0
F00F00
F00F00
F00F00
F00F00
ENDCHAR
STARTCHAR uni01F7
ENCODING 503
SWIDTH 2000 0
DWIDTH 24 0
BBX 20 32 4 0
BITMAP
F0FF00
F0FF00
F0FF00
F0FF00
FF00F0
FF00F0
FF00F0
FF00F0
F000F0
F000F0
F000F0
F000F0
F000F0
F000F0
F000F0
F000F0
F0FF00
F0FF00
F0FF00
F0FF00
FF0000
FF0000
FF0000
FF0000
F00000
F00000
F00000
F00000
F00000
F00000
F00000
F00000
ENDCHAR
STARTCHAR uni01F8
ENCODING 504
SWIDTH 2000 0
DWIDTH 24 0
BBX 20 40 4 0
BITMAP
0F0000
0F0000
0F0000
0F0000
00F000
00F000
00F000
00F000
F000F0
F000F0
F000F0
F000F0
FF00F0
FF00F0
FF00F0
FF00F0
FF00F0
FF00F0
FF00F0
FF00F0
F0F0F0
F0F0F0
F0F0F0
F0F0F0
F0F0F0
F0F0F0
F0F0F0
F0F0F0
F00FF0
F00FF0
F00FF0
F00FF0
F00FF0
F00FF0
F00FF0
F00FF0
F000F0
F000F0
F000F0
F000F0
ENDCHAR
STARTCHAR uni01F9
ENCODING 505
SWIDTH 2000 0
DWIDTH 24 0
BBX 20 36 4 0
BITMAP
0F0000
0F0000
0F0000
0F0000
00F000
00F000
00F000
00F000
000000
000000
000000
000000
FFFF00
FFFF00
FFFF00
FFFF00
F000F0
F000F0
F000F0
F000F0
F000F0
F000F0
F000F0
F000F0
F000F0
F000F0
F000F0
F000F0
F000F0
F000F0
F000F0
F000F0
F000F0
F000F0
F000F0
F000F0
ENDCHAR
STARTCHAR Aringacute
ENCODING 506
SWIDTH 2000 0
DWIDTH 24 0
BBX 20 40 4 0
BITMAP
0F0000
0F0000
0F0000
0F0000
F0F0F0
F0F0F0
F0F0F0
F0F0F0
0F0F00
0F0F00
0F0F00
0F0F00
000000
000000
000000
000000
0FFF00
0FFF00
0FFF00
0FFF00
F000F0
F000F0
F000F0
F000F0
F000F0
F000F0
F000F0
F000F0
FFFFF0
FFFFF0
FFFFF0
FFFFF0
F000F0
F000F0
F000F0
F000F0
F000F0
F000F0
F000F0
F000F0
ENDCHAR
STARTCHAR aringacute
ENCODING 507
SWIDTH 2000 0
DWIDTH 24 0
BBX 20 40 4 0
BITMAP
0F0000
0F0000
0F0000
0F0000
F0F0F0
F0F0F0
F0F0F0
F0F0F0
0F0F00
0F0F00
0F0F00
0F0F00
000000
000000
000000
000000
0FFFF0
0FFFF0
0FFFF0
0FFFF0
F000F0
F000F0
F000F0
F000F0
F000F0
F000F0
F000F0
F000F0
F000F0
F000F0
F000F0
F000F0
F00FF0
F00FF0
F00FF0
F00FF0
0FF0F0
0FF0F0
0FF0F0
0FF0F0
ENDCHAR
STARTCHAR AEacute
ENCODING 508
SWIDTH 2000 0
DWIDTH 24 0
BBX 20 40 4 0
BITMAP
000F00
000F00
000F00
000F00
00F000
00F000
00F000
00F000
000000
000000
000000
000000
0FFFF0
0FFFF0
0FFFF0
0FFFF0
F0F000
F0F000
F0F000
F0F000
F0FFF0
F0FFF0
F0FFF0
F0FFF0
FFF000
FFF000
FFF000
FFF000
F0F000
F0F000
F0F000
F0F000
F0F000
F0F000
F0F000
F0F000
F0FFF0
F0FFF0
F0FFF0
F0FFF0
ENDCHAR
STARTCHAR aeacute
ENCODING 509
SWIDTH 2000 0
DWIDTH 24 0
BBX 20 36 4 0
BITMAP
000F00
000F00
000F00
000F00
00F000
00F000
00F000
00F000
000000
000000
000000
000000
0FFF00
0FFF00
0FFF00
0FFF00
F0F0F0
F0F0F0
F0F0F0
F0F0F0
F0FFF0
F0FFF0
F0FFF0
F0FFF0
F0F000
F0F000
F0F000
F0F000
F0F0F0
F0F0F0
F0F0F0
F0F0F0
0F0F00
0F0F00
0F0F00
0F0F00
ENDCHAR
STARTCHAR Oslashacute
ENCODING 510
SWIDTH 2000 0
DWIDTH 24 0
BBX 20 44 4 -4
BITMAP
000F00
000F00
000F00
000F00
00F000
00F000
00F000
00F000
0000F0
0000F0
0000F0
0000F0
0FFF00
0FFF00
0FFF00
0FFF00
F00FF0
F00FF0
F00FF0
F00FF0
F0F0F0
F0F0F0
F0F0F0
F0F0F0
F0F0F0
F0F0F0
F0F0F0
F0F0F0
F0F0F0
F0F0F0
F0F0F0
F0F0F0
FF00F0
FF00F0
FF00F0
FF00F0
0FFF00
0FFF00
0FFF00
0FFF00
F00000
F00000
F00000
F00000
ENDCHAR
STARTCHAR oslashacute
ENCODING 511
SWIDTH 2000 0
DWIDTH 24 0
BBX 20 40 4 -4
BITMAP
000F00
000F00
000F00
000F00
00F000
00F000
00F000
00F000
0000F0
0000F0
0000F0
0000F0
0FFF00
0FFF00
0FFF00
0FFF00
F00FF0
F00FF0
F00FF0
F00FF0
F0F0F0
F0F0F0
F0F0F0
F0F0F0
F0F0F0
F0F0F0
F0F0F0
F0F0F0
FF00F0
FF00F0
FF00F0
FF00F0
0FFF00
0FFF00
0FFF00
0FFF00
F00000
F00000
F00000
F00000
ENDCHAR
STARTCHAR uni0200
ENCODING 512
SWIDTH 2000 0
DWIDTH 24 0
BBX 20 40 4 0
BITMAP
F00F00
F00F00
F00F00
F00F00
0F00F0
0F00F0
0F00F0
0F00F0
000000
000000
000000
000000
0FFF00
0FFF00
0FFF00
0FFF00
F000F0
F000F0
F000F0
F000F0
F000F0
F000F0
F000F0
F000F0
FFFFF0
FFFFF0
FFFFF0
FFFFF0
F000F0
F000F0
F000F0
F000F0
F000F0
F000F0
F000F0
F000F0
F000F0
F000F0
F000F0
F000F0
ENDCHAR
STARTCHAR uni0201
ENCODING 513
SWIDTH 2000 0
DWIDTH 24 0
BBX 20 36 4 0
BITMAP
F00F00
F00F00
F00F00
F00F00
0F00F0
0F00F0
0F00F0
0F00F0
000000
000000
000000
000000
0FFFF0
0FFFF0
0FFFF0
0FFFF0
F000F0
F000F0
F000F0
F000F0
F000F0
F000F0
F000F0
F000F0
F000F0
F000F0
F000F0
F000F0
F00FF0
F00FF0
F00FF0
F00FF0
0FF0F0
0FF0F0
0FF0F0
0FF0F0
ENDCHAR
STARTCHAR uni0202
ENCODING 514
SWIDTH 2000 0
DWIDTH 24 0
BBX 20 40 4 0
BITMAP
0FFF00
0FFF00
0FFF00
0FFF00
0F0F00
0F0F00
0F0F00
0F0F00
000000
000000
000000
000000
0FFF00
0FFF00
0FFF00
0FFF00
F000F0
F000F0
F000F0
F000F0
F000F0
F000F0
F000F0
F000F0
FFFFF0
FFFFF0
FFFFF0
FFFFF0
F000F0
F000F0
F000F0
F000F0
F000F0
F000F0
F000F0
F000F0
F000F0
F000F0
F000F0
F000F0
ENDCHAR
STARTCHAR uni0203
ENCODING 515
SWIDTH 2000 0
DWIDTH 24 0
BBX 20 36 4 0
BITMAP
0FFF00
0FFF00
0FFF00
0FFF00
0F0F00
0F0F00
0F0F00
0F0F00
000000
000000
000000
000000
0FFFF0
0FFFF0
0FFFF0
0FFFF0
F000F0
F000F0
F000F0
F000F0
F000F0
F000F0
F000F0
F000F0
F000F0
F000F0
F000F0
F000F0
F00FF0
F00FF0
F00FF0
F00FF0
0FF0F0
0FF0F0
0FF0F0
0FF0F0
ENDCHAR
STARTCHAR uni0204
ENCODING 516
SWIDTH 2000 0
DWIDTH 24 0
BBX 20 40 4 0
BITMAP
F00F00
F00F00
F00F00
F00F00
0F00F0
0F00F0
0F00F0
0F00F0
000000
000000
000000
000000
FFFFF0
FFFFF0
FFFFF0
FFFFF0
F00000
F00000
F00000
F00000
F00000
F00000
F00000
F00000
FFFF00
FFFF00
FFFF00
FFFF00
F00000
F00000
F00000
F00000
F00000
F00000
F00000
F00000
FFFFF0
FFFFF0
FFFFF0
FFFFF0
ENDCHAR
STARTCHAR uni0205
ENCODING 517
SWIDTH 2000 0
DWIDTH 24 0
BBX 20 36 4 0
BITMAP
F00F00
F00F00
F00F00
F00F00
0F00F0
0F00F0
0F00F0
0F00F0
000000
000000
000000
000000
0FFF00
0FFF00
0FFF00
0FFF00
F000F0
F000F0
F000F0
F000F0
FFFFF0
FFFFF0
FFFFF0
FFFFF0
F00000
F00000
F00000
F00000
F000F0
F000F0
F000F0
F000F0
0FFF00
0FFF00
0FFF00
0FFF00
ENDCHAR
STARTCHAR uni0206
ENCODING 518
SWIDTH 2000 0
DWIDTH 24 0
BBX 20 40 4 0
BITMAP
0FFF00
0FFF00
0FFF00
0FFF00
0F0F00
0F0F00
0F0F00
0F0F00
000000
000000
000000
000000
FFFFF0
FFFFF0
FFFFF0
FFFFF0
F00000
F00000
F00000
F00000
F00000
F00000
F00000
F00000
FFFF00
FFFF00
FFFF00
FFFF00
F00000
F00000
F00000
F00000
F00000
F00000
F00000
F00000
FFFFF0
FFFFF0
FFFFF0
FFFFF0
ENDCHAR
STARTCHAR uni0207
ENCODING 519
SWIDTH 2000 0
DWIDTH 24 0
BBX 20 36 4 0
BITMAP
0FFF00
0FFF00
0FFF00
0FFF00
0F0F00
0F0F00
0F0F00
0F0F00
000000
000000
000000
000000
0FFF00
0FFF00
0FFF00
0FFF00
F000F0
F000F0
F000F0
F000F0
FFFFF0
FFFFF0
FFFFF0
FFFFF0
F00000
F00000
F00000
F00000
F000F0
F000F0
F000F0
F000F0
0FFF00
0FFF00
0FFF00
0FFF00
ENDCHAR
STARTCHAR uni0208
ENCODING 520
SWIDTH 2000 0
DWIDTH 24 0
BBX 20 40 4 0
BITMAP
F00F00
F00F00
F00F00
F00F00
0F00F0
0F00F0
0F00F0
0F00F0
000000
000000
000000
000000
0FFF00
0FFF00
0FFF00
0FFF00
00F000
00F000
00F000
00F000
00F000
00F000
00F000
00F000
00F000
00F000
00F000
00F000
00F000
00F000
00F000
00F000
00F000
00F000
00F000
00F000
0FFF00
0FFF00
0FFF00
0FFF00
ENDCHAR
STARTCHAR uni0209
ENCODING 521
SWIDTH 2000 0
DWIDTH 24 0
BBX 20 36 4 0
BITMAP
F00F00
F00F00
F00F00
F00F00
0F00F0
0F00F0
0F00F0
0F00F0
000000
000000
000000
000000
0FF000
0FF000
0FF000
0FF000
00F000
00F000
00F000
00F000
00F000
00F000
00F000
00F000
00F000
00F000
00F000
00F000
00F000
00F000
00F000
00F000
000FF0
000FF0
000FF0
000FF0
ENDCHAR
STARTCHAR uni020A
ENCODING 522
SWIDTH 2000 0
DWIDTH 24 0
BBX 12 40 8 0
BITMAP
FFF0
FFF0
FFF0
FFF0
F0F0
F0F0
F0F0
F0F0
0000
0000
0000
0000
FFF0
FFF0
FFF0
FFF0
0F00
0F00
0F00
0F00
0F00
0F00
0F00
0F00
0F00
0F00
0F00
0F00
0F00
0F00
0F00
0F00
0F00
0F00
0F00
0F00
FFF0
FFF0
FFF0
FFF0
ENDCHAR
STARTCHAR uni020B
ENCODING 523
SWIDTH 2000 0
DWIDTH 24 0
BBX 16 36 8 0
BITMAP
FFF0
FFF0
FFF0
FFF0
F0F0
F0F0
F0F0
F0F0
0000
0000
0000
0000
FF00
FF00
FF00
FF00
0F00
0F00
0F00
0F00
0F00
0F00
0F00
0F00
0F00
0F00
0F00
0F00
0F00
0F00
0F00
0F00
00FF
00FF
00FF
00FF
ENDCHAR
STARTCHAR uni020C
ENCODING 524
SWIDTH 2000 0
DWIDTH 24 0
BBX 20 40 4 0
BITMAP
F00F00
F00F00
F00F00
F00F00
0F00F0
0F00F0
0F00F0
0F00F0
000000
000000
000000
000000
0FFF00
0FFF00
0FFF00
0FFF00
F000F0
F000F0
F000F0
F000F0
F000F0
F000F0
F000F0
F000F0
F000F0
F000F0
F000F0
F000F0
F000F0
F000F0
F000F0
F000F0
F000F0
F000F0
F000F0
F000F0
0FFF00
0FFF00
0FFF00
0FFF00
ENDCHAR
STARTCHAR uni020D
ENCODING 525
SWIDTH 2000 0
DWIDTH 24 0
BBX 20 36 4 0
BITMAP
F00F00
F00F00
F00F00
F00F00
0F00F0
0F00F0
0F00F0
0F00F0
000000
000000
000000
000000
0FFF00
0FFF00
0FFF00
0FFF00
F000F0
F000F0
F000F0
F000F0
F000F0
F000F0
F000F0
F000F0
F000F0
F000F0
F000F0
F000F0
F000F0
F000F0
F000F0
F000F0
0FFF00
0FFF00
0FFF00
0FFF00
ENDCHAR
STARTCHAR uni020E
ENCODING 526
SWIDTH 2000 0
DWIDTH 24 0
BBX 20 40 4 0
BITMAP
0FFF00
0FFF00
0FFF00
0FFF00
0F0F00
0F0F00
0F0F00
0F0F00
000000
000000
000000
000000
0FFF00
0FFF00
0FFF00
0FFF00
F000F0
F000F0
F000F0
F000F0
F000F0
F000F0
F000F0
F000F0
F000F0
F000F0
F000F0
F000F0
F000F0
F000F0
F000F0
F000F0
F000F0
F000F0
F000F0
F000F0
0FFF00
0FFF00
0FFF00
0FFF00
ENDCHAR
STARTCHAR uni020F
ENCODING 527
SWIDTH 2000 0
DWIDTH 24 0
BBX 20 36 4 0
BITMAP
0FFF00
0FFF00
0FFF00
0FFF00
0F0F00
0F0F00
0F0F00
0F0F00
000000
000000
000000
000000
0FFF00
0FFF00
0FFF00
0FFF00
F000F0
F000F0
F000F0
F000F0
F000F0
F000F0
F000F0
F000F0
F000F0
F000F0
F000F0
F000F0
F000F0
F000F0
F000F0
F000F0
0FFF00
0FFF00
0FFF00
0FFF00
ENDCHAR
STARTCHAR uni0210
ENCODING 528
SWIDTH 2000 0
DWIDTH 24 0
BBX 20 40 4 0
BITMAP
F00F00
F00F00
F00F00
F00F00
0F00F0
0F00F0
0F00F0
0F00F0
000000
000000
000000
000000
FFFF00
FFFF00
FFFF00
FFFF00
F000F0
F000F0
F000F0
F000F0
F000F0
F000F0
F000F0
F000F0
FFFF00
FFFF00
FFFF00
FFFF00
F00F00
F00F00
F00F00
F00F00
F000F0
F000F0
F000F0
F000F0
F000F0
F000F0
F000F0
F000F0
ENDCHAR
STARTCHAR uni0211
ENCODING 529
SWIDTH 2000 0
DWIDTH 24 0
BBX 20 36 4 0
BITMAP
F00F00
F00F00
F00F00
F00F00
0F00F0
0F00F0
0F00F0
0F00F0
000000
000000
000000
000000
FFFF00
FFFF00
FFFF00
FFFF00
F000F0
F000F0
F000F0
F000F0
F00000
F00000
F00000
F00000
F00000
F00000
F00000
F00000
F00000
F00000
F00000
F00000
F00000
F00000
F00000
F00000
ENDCHAR
STARTCHAR uni0212
ENCODING 530
SWIDTH 2000 0
DWIDTH 24 0
BBX 20 40 4 0
BITMAP
0FFF00
0FFF00
0FFF00
0FFF00
0F0F00
0F0F00
0F0F00
0F0F00
000000
000000
000000
000000
FFFF00
FFFF00
FFFF00
FFFF00
F000F0
F000F0
F000F0
F000F0
F000F0
F000F0
F000F0
F000F0
FFFF00
FFFF00
FFFF00
FFFF00
F00F00
F00F00
F00F00
F00F00
F000F0
F000F0
F000F0
F000F0
F000F0
F000F0
F000F0
F000F0
ENDCHAR
STARTCHAR uni0213
ENCODING 531
SWIDTH 2000 0
DWIDTH 24 0
BBX 20 36 4 0
BITMAP
0FFF00
0FFF00
0FFF00
0FFF00
0F0F00
0F0F00
0F0F00
0F0F00
000000
000000
000000
000000
FFFF00
FFFF00
FFFF00
FFFF00
F000F0
F000F0
F000F0
F000F0
F00000
F00000
F00000
F00000
F00000
F00000
F00000
F00000
F00000
F00000
F00000
F00000
F00000
F00000
F00000
F00000
ENDCHAR
STARTCHAR uni0214
ENCODING 532
SWIDTH 2000 0
DWIDTH 24 0
BBX 20 40 4 0
BITMAP
F00F00
F00F00
F00F00
F00F00
0F00F0
0F00F0
0F00F0
0F00F0
000000
000000
000000
000000
F000F0
F000F0
F000F0
F000F0
F000F0
F000F0
F000F0
F000F0
F000F0
F000F0
F000F0
F000F0
F000F0
F000F0
F000F0
F000F0
F000F0
F000F0
F000F0
F000F0
F000F0
F000F0
F000F0
F000F0
0FFF00
0FFF00
0FFF00
0FFF00
ENDCHAR
STARTCHAR uni0215
ENCODING 533
SWIDTH 2000 0
DWIDTH 24 0
BBX 20 36 4 0
BITMAP
F00F00
F00F00
F00F00
F00F00
0F00F0
0F00F0
0F00F0
0F00F0
000000
000000
000000
000000
F000F0
F000F0
F000F0
F000F0
F000F0
F000F0
F000F0
F000F0
F000F0
F000F0
F000F0
F000F0
F000F0
F000F0
F000F0
F000F0
F000F0
F000F0
F000F0
F000F0
0FFFF0
0FFFF0
0FFFF0
0FFFF0
ENDCHAR
STARTCHAR uni0216
ENCODING 534
SWIDTH 2000 0
DWIDTH 24 0
BBX 20 40 4 0
BITMAP
0FFF00
0FFF00
0FFF00
0FFF00
0F0F00
0F0F00
0F0F00
0F0F00
000000
000000
000000
000000
F000F0
F000F0
F000F0
F000F0
F000F0
F000F0
F000F0
F000F0
F000F0
F000F0
F000F0
F000F0
F000F0
F000F0
F000F0
F000F0
F000F0
F000F0
F000F0
F000F0
F000F0
F000F0
F000F0
F000F0
0FFF00
0FFF00
0FFF00
0FFF00
ENDCHAR
STARTCHAR uni0217
ENCODING 535
SWIDTH 2000 0
DWIDTH 24 0
BBX 20 36 4 0
BITMAP
0FFF00
0FFF00
0FFF00
0FFF00
0F0F00
0F0F00
0F0F00
0F0F00
000000
000000
000000
000000
F000F0
F000F0
F000F0
F000F0
F000F0
F000F0
F000F0
F000F0
F000F0
F000F0
F000F0
F000F0
F000F0
F000F0
F000F0
F000F0
F000F0
F000F0
F000F0
F000F0
0FFFF0
0FFFF0
0FFFF0
0FFFF0
ENDCHAR
STARTCHAR Scommaaccent
ENCODING 536
SWIDTH 2000 0
DWIDTH 24 0
BBX 20 44 4 -12
BITMAP
0FFF00
0FFF00
0FFF00
0FFF00
F000F0
F000F0
F000F0
F000F0
F00000
F00000
F00000
F00000
0FFF00
0FFF00
0FFF00
0FFF00
0000F0
0000F0
0000F0
0000F0
0000F0
0000F0
0000F0
0000F0
F000F0
F000F0
F000F0
F000F0
0FFF00
0FFF00
0FFF00
0FFF00
00FF00
00FF00
00FF00
00FF00
000F00
000F00
000F00
000F00
00F000
00F000
00F000
00F000
ENDCHAR
STARTCHAR scommaaccent
ENCODING 537
SWIDTH 2000 0
DWIDTH 24 0
BBX 20 36 4 -12
BITMAP
0FFFF0
0FFFF0
0FFFF0
0FFFF0
F00000
F00000
F00000
F00000
0FFF00
0FFF00
0FFF00
0FFF00
0000F0
0000F0
0000F0
0000F0
0000F0
0000F0
0000F0
0000F0
FFFF00
FFFF00
FFFF00
FFFF00
00FF00
00FF00
00FF00
00FF00
000F00
000F00
000F00
000F00
00F000
00F000
00F000
00F000
ENDCHAR
STARTCHAR uni021A
ENCODING 538
SWIDTH 2000 0
DWIDTH 24 0
BBX 20 44 4 -12
BITMAP
FFFFF0
FFFFF0
FFFFF0
FFFFF0
00F000
00F000
00F000
00F000
00F000
00F000
00F000
00F000
00F000
00F000
00F000
00F000
00F000
00F000
00F000
00F000
00F000
00F000
00F000
00F000
00F000
00F000
00F000
00F000
00F000
00F000
00F000
00F000
00FF00
00FF00
00FF00
00FF00
000F00
000F00
000F00
000F00
00F000
00F000
00F000
00F000
ENDCHAR
STARTCHAR uni021B
ENCODING 539
SWIDTH 2000 0
DWIDTH 24 0
BBX 20 44 4 -12
BITMAP
0F0000
0F0000
0F0000
0F0000
0F0000
0F0000
0F0000
0F0000
FFFF00
FFFF00
FFFF00
FFFF00
0F0000
0F0000
0F0000
0F0000
0F0000
0F0000
0F0000
0F0000
0F0000
0F0000
0F0000
0F0000
0F0000
0F0000
0F0000
0F0000
00FFF0
00FFF0
00FFF0
00FFF0
00FF00
00FF00
00FF00
00FF00
000F00
000F00
000F00
000F00
00F000
00F000
00F000
00F000
ENDCHAR
STARTCHAR uni021C
ENCODING 540
SWIDTH 2000 0
DWIDTH 24 0
BBX 20 36 4 -4
BITMAP
0FFF00
0FFF00
0FFF00
0FFF00
F000F0
F000F0
F000F0
F000F0
0000F0
0000F0
0000F0
0000F0
000F00
000F00
000F00
000F00
0FF0F0
0FF0F0
0FF0F0
0FF0F0
0000F0
0000F0
0000F0
0000F0
0000F0
0000F0
0000F0
0000F0
000F00
000F00
000F00
000F00
FFF000
FFF000
FFF000
FFF000
ENDCHAR
STARTCHAR uni021D
ENCODING 541
SWIDTH 2000 0
DWIDTH 24 0
BBX 20 32 4 -8
BITMAP
0FFF00
0FFF00
0FFF00
0FFF00
F000F0
F000F0
F000F0
F000F0
0000F0
0000F0
0000F0
0000F0
000F00
000F00
000F00
000F00
0FF0F0
0FF0F0
0FF0F0
0FF0F0
0000F0
0000F0
0000F0
0000F0
000F00
000F00
000F00
000F00
FFF000
FFF000
FFF000
FFF000
ENDCHAR
STARTCHAR uni021E
ENCODING 542
SWIDTH 2000 0
DWIDTH 24 0
BBX 20 40 4 0
BITMAP
0F0F00
0F0F00
0F0F00
0F0F00
00F000
00F000
00F000
00F000
F000F0
F000F0
F000F0
F000F0
F000F0
F000F0
F000F0
F000F0
F000F0
F000F0
F000F0
F000F0
FFFFF0
FFFFF0
FFFFF0
FFFFF0
F000F0
F000F0
F000F0
F000F0
F000F0
F000F0
F000F0
F000F0
F000F0
F000F0
F000F0
F000F0
F000F0
F000F0
F000F0
F000F0
ENDCHAR
STARTCHAR uni021F
ENCODING 543
SWIDTH 2000 0
DWIDTH 24 0
BBX 16 40 8 0
BITMAP
F0F0
F0F0
F0F0
F0F0
0F00
0F00
0F00
0F00
0000
0000
0000
0000
F000
F000
F000
F000
F000
F000
F000
F000
FFF0
FFF0
FFF0
FFF0
F00F
F00F
F00F
F00F
F00F
F00F
F00F
F00F
F00F
F00F
F00F
F00F
F00F
F00F
F00F
F00F
ENDCHAR
STARTCHAR uni0220
ENCODING 544
SWIDTH 2000 0
DWIDTH 24 0
BBX 20 40 4 -8
BITMAP
F0FF00
F0FF00
F0FF00
F0FF00
FF00F0
FF00F0
FF00F0
FF00F0
F000F0
F000F0
F000F0
F000F0
F000F0
F000F0
F000F0
F000F0
F000F0
F000F0
F000F0
F000F0
F000F0
F000F0
F000F0
F000F0
F000F0
F000F0
F000F0
F000F0
F000F0
F000F0
F000F0
F000F0
0000F0
0000F0
0000F0
0000F0
0000F0
0000F0
0000F0
0000F0
ENDCHAR
STARTCHAR uni0224
ENCODING 548
SWIDTH 2000 0
DWIDTH 24 0
BBX 20 40 4 -8
BITMAP
FFFFF0
FFFFF0
FFFFF0
FFFFF0
000F00
000F00
000F00
000F00
00F000
00F000
00F000
00F000
00F000
00F000
00F000
00F000
0F0000
0F0000
0F0000
0F0000
0F0000
0F0000
0F0000
0F0000
F00000
F00000
F00000
F00000
FFFFF0
FFFFF0
FFFFF0
FFFFF0
0000F0
0000F0
0000F0
0000F0
00FF00
00FF00
00FF00
00FF00
ENDCHAR
STARTCHAR uni0225
ENCODING 549
SWIDTH 2000 0
DWIDTH 24 0
BBX 20 32 4 -8
BITMAP
FFFFF0
FFFFF0
FFFFF0
FFFFF0
000F00
000F00
000F00
000F00
00F000
00F000
00F000
00F000
0F0000
0F0000
0F0000
0F0000
F00000
F00000
F00000
F00000
FFFFF0
FFFFF0
FFFFF0
FFFFF0
0000F0
0000F0
0000F0
0000F0
00FF00
00FF00
00FF00
00FF00
ENDCHAR
STARTCHAR uni0226
ENCODING 550
SWIDTH 2000 0
DWIDTH 24 0
BBX 20 40 4 0
BITMAP
00F000
00F000
00F000
00F000
000000
000000
000000
000000
0FFF00
0FFF00
0FFF00
0FFF00
F000F0
F000F0
F000F0
F000F0
F000F0
F000F0
F000F0
F000F0
F000F0
F000F0
F000F0
F000F0
FFFFF0
FFFFF0
FFFFF0
FFFFF0
F000F0
F000F0
F000F0
F000F0
F000F0
F000F0
F000F0
F000F0
F000F0
F000F0
F000F0
F000F0
ENDCHAR
STARTCHAR uni0227
ENCODING 551
SWIDTH 2000 0
DWIDTH 24 0
BBX 20 32 4 0
BITMAP
00F000
00F000
00F000
00F000
000000
000000
000000
000000
0FFFF0
0FFFF0
0FFFF0
0FFFF0
F000F0
F000F0
F000F0
F000F0
F000F0
F000F0
F000F0
F000F0
F000F0
F000F0
F000F0
F000F0
F00FF0
F00FF0
F00FF0
F00FF0
0FF0F0
0FF0F0
0FF0F0
0FF0F0
ENDCHAR
STARTCHAR uni0228
ENCODING 552
SWIDTH 2000 0
DWIDTH 24 0
BBX 20 44 4 -12
BITMAP
FFFFF0
FFFFF0
FFFFF0
FFFFF0
F00000
F00000
F00000
F00000
F00000
F00000
F00000
F00000
FFFF00
FFFF00
FFFF00
FFFF00
F00000
F00000
F00000
F00000
F00000
F00000
F00000
F00000
F00000
F00000
F00000
F00000
FFFFF0
FFFFF0
FFFFF0
FFFFF0
00F000
00F000
00F000
00F000
000F00
000F00
000F00
000F00
0FF000
0FF000
0FF000
0FF000
ENDCHAR
STARTCHAR uni0229
ENCODING 553
SWIDTH 2000 0
DWIDTH 24 0
BBX 20 36 4 -12
BITMAP
0FFF00
0FFF00
0FFF00
0FFF00
F000F0
F000F0
F000F0
F000F0
FFFFF0
FFFFF0
FFFFF0
FFFFF0
F00000
F00000
F00000
F00000
F000F0
F000F0
F000F0
F000F0
0FFF00
0FFF00
0FFF00
0FFF00
00F000
00F000
00F000
00F000
000F00
000F00
000F00
000F00
0FF000
0FF000
0FF000
0FF000
ENDCHAR
STARTCHAR uni022B
ENCODING 555
SWIDTH 2000 0
DWIDTH 24 0
BBX 20 40 4 0
BITMAP
0FFF00
0FFF00
0FFF00
0FFF00
000000
000000
000000
000000
0F0F00
0F0F00
0F0F00
0F0F00
000000
000000
000000
000000
0FFF00
0FFF00
0FFF00
0FFF00
F000F0
F000F0
F000F0
F000F0
F000F0
F000F0
F000F0
F000F0
F000F0
F000F0
F000F0
F000F0
F000F0
F000F0
F000F0
F000F0
0FFF00
0FFF00
0FFF00
0FFF00
ENDCHAR
STARTCHAR uni022D
ENCODING 557
SWIDTH 2000 0
DWIDTH 24 0
BBX 20 40 4 0
BITMAP
0FFF00
0FFF00
0FFF00
0FFF00
000000
000000
000000
000000
0FF0F0
0FF0F0
0FF0F0
0FF0F0
F0FF00
F0FF00
F0FF00
F0FF00
000000
000000
000000
000000
0FFF00
0FFF00
0FFF00
0FFF00
F000F0
F000F0
F000F0
F000F0
F000F0
F000F0
F000F0
F000F0
F000F0
F000F0
F000F0
F000F0
0FFF00
0FFF00
0FFF00
0FFF00
ENDCHAR
STARTCHAR uni022E
ENCODING 558
SWIDTH 2000 0
DWIDTH 24 0
BBX 20 40 4 0
BITMAP
00F000
00F000
00F000
00F000
000000
000000
000000
000000
0FFF00
0FFF00
0FFF00
0FFF00
F000F0
F000F0
F000F0
F000F0
F000F0
F000F0
F000F0
F000F0
F000F0
F000F0
F000F0
F000F0
F000F0
F000F0
F000F0
F000F0
F000F0
F000F0
F000F0
F000F0
F000F0
F000F0
F000F0
F000F0
0FFF00
0FFF00
0FFF00
0FFF00
ENDCHAR
STARTCHAR uni022F
ENCODING 559
SWIDTH 2000 0
DWIDTH 24 0
BBX 20 32 4 0
BITMAP
00F000
00F000
00F000
00F000
000000
000000
000000
000000
0FFF00
0FFF00
0FFF00
0FFF00
F000F0
F000F0
F000F0
F000F0
F000F0
F000F0
F000F0
F000F0
F000F0
F000F0
F000F0
F000F0
F000F0
F000F0
F000F0
F000F0
0FFF00
0FFF00
0FFF00
0FFF00
ENDCHAR
STARTCHAR uni0231
ENCODING 561
SWIDTH 2000 0
DWIDTH 24 0
BBX 20 40 4 0
BITMAP
0FFF00
0FFF00
0FFF00
0FFF00
000000
000000
000000
000000
00F000
00F000
00F000
00F000
000000
000000
000000
000000
0FFF00
0FFF00
0FFF00
0FFF00
F000F0
F000F0
F000F0
F000F0
F000F0
F000F0
F000F0
F000F0
F000F0
F000F0
F000F0
F000F0
F000F0
F000F0
F000F0
F000F0
0FFF00
0FFF00
0FFF00
0FFF00
ENDCHAR
STARTCHAR uni0232
ENCODING 562
SWIDTH 2000 0
DWIDTH 24 0
BBX 20 40 4 0
BITMAP
0FFF00
0FFF00
0FFF00
0FFF00
000000
000000
000000
000000
F000F0
F000F0
F000F0
F000F0
F000F0
F000F0
F000F0
F000F0
F000F0
F000F0
F000F0
F000F0
0F0F00
0F0F00
0F0F00
0F0F00
00F000
00F000
00F000
00F000
00F000
00F000
00F000
00F000
00F000
00F000
00F000
00F000
00F000
00F000
00F000
00F000
ENDCHAR
STARTCHAR uni0233
ENCODING 563
SWIDTH 2000 0
DWIDTH 24 0
BBX 20 44 4 -12
BITMAP
0FFF00
0FFF00
0FFF00
0FFF00
000000
000000
000000
000000
F000F0
F000F0
F000F0
F000F0
F000F0
F000F0
F000F0
F000F0
F000F0
F000F0
F000F0
F000F0
F000F0
F000F0
F000F0
F000F0
F000F0
F000F0
F000F0
F000F0
0FFFF0
0FFFF0
0FFFF0
0FFFF0
0000F0
0000F0
0000F0
0000F0
0000F0
0000F0
0000F0
0000F0
0FFF00
0FFF00
0FFF00
0FFF00
ENDCHAR
STARTCHAR uni0241
ENCODING 577
SWIDTH 2000 0
DWIDTH 24 0
BBX 20 32 4 0
BITMAP
0FFF00
0FFF00
0FFF00
0FFF00
F000F0
F000F0
F000F0
F000F0
0000F0
0000F0
0000F0
0000F0
000F00
000F00
000F00
000F00
00F000
00F000
00F000
00F000
00F000
00F000
00F000
00F000
00F000
00F000
00F000
00F000
00F000
00F000
00F000
00F000
ENDCHAR
STARTCHAR uni0242
ENCODING 578
SWIDTH 2000 0
DWIDTH 24 0
BBX 20 24 4 0
BITMAP
0FFF00
0FFF00
0FFF00
0FFF00
F000F0
F000F0
F000F0
F000F0
0000F0
0000F0
0000F0
0000F0
000F00
000F00
000F00
000F00
00F000
00F000
00F000
00F000
00F000
00F000
00F000
00F000
ENDCHAR
STARTCHAR uni0246
ENCODING 582
SWIDTH 2000 0
DWIDTH 24 0
BBX 20 40 4 -4
BITMAP
000F00
000F00
000F00
000F00
FFFFF0
FFFFF0
FFFFF0
FFFFF0
F00F00
F00F00
F00F00
F00F00
F0F000
F0F000
F0F000
F0F000
FFFFF0
FFFFF0
FFFFF0
FFFFF0
F0F000
F0F000
F0F000
F0F000
F0F000
F0F000
F0F000
F0F000
FF0000
FF0000
FF0000
FF0000
FFFFF0
FFFFF0
FFFFF0
FFFFF0
0F0000
0F0000
0F0000
0F0000
ENDCHAR
STARTCHAR uni0247
ENCODING 583
SWIDTH 2000 0
DWIDTH 24 0
BBX 20 36 4 -4
BITMAP
000F00
000F00
000F00
000F00
000F00
000F00
000F00
000F00
0FFF00
0FFF00
0FFF00
0FFF00
F0F0F0
F0F0F0
F0F0F0
F0F0F0
FFFFF0
FFFFF0
FFFFF0
FFFFF0
F0F000
F0F000
F0F000
F0F000
FF00F0
FF00F0
FF00F0
FF00F0
0FFF00
0FFF00
0FFF00
0FFF00
0F0000
0F0000
0F0000
0F0000
ENDCHAR
STARTCHAR uni0250
ENCODING 592
SWIDTH 2000 0
DWIDTH 24 0
BBX 20 24 4 0
BITMAP
F0FF00
F0FF00
F0FF00
F0FF00
FF00F0
FF00F0
FF00F0
FF00F0
F000F0
F000F0
F000F0
F000F0
FFFF00
FFFF00
FFFF00
FFFF00
F00000
F00000
F00000
F00000
0FFF00
0FFF00
0FFF00
0FFF00
ENDCHAR
STARTCHAR uni0251
ENCODING 593
SWIDTH 2000 0
DWIDTH 24 0
BBX 20 24 4 0
BITMAP
0FF0F0
0FF0F0
0FF0F0
0FF0F0
F00FF0
F00FF0
F00FF0
F00FF0
F000F0
F000F0
F000F0
F000F0
F000F0
F000F0
F000F0
F000F0
F00FF0
F00FF0
F00FF0
F00FF0
0FF0F0
0FF0F0
0FF0F0
0FF0F0
ENDCHAR
STARTCHAR uni0252
ENCODING 594
SWIDTH 2000 0
DWIDTH 24 0
BBX 20 24 4 0
BITMAP
F0FF00
F0FF00
F0FF00
F0FF00
FF00F0
FF00F0
FF00F0
FF00F0
F000F0
F000F0
F000F0
F000F0
F000F0
F000F0
F000F0
F000F0
FF00F0
FF00F0
FF00F0
FF00F0
F0FF00
F0FF00
F0FF00
F0FF00
ENDCHAR
STARTCHAR uni0253
ENCODING 595
SWIDTH 2000 0
DWIDTH 24 0
BBX 20 36 4 0
BITMAP
0FF000
0FF000
0FF000
0FF000
F00000
F00000
F00000
F00000
F00000
F00000
F00000
F00000
FFFF00
FFFF00
FFFF00
FFFF00
F000F0
F000F0
F000F0
F000F0
F000F0
F000F0
F000F0
F000F0
F000F0
F000F0
F000F0
F000F0
F000F0
F000F0
F000F0
F000F0
FFFF00
FFFF00
FFFF00
FFFF00
ENDCHAR
STARTCHAR uni0254
ENCODING 596
SWIDTH 2000 0
DWIDTH 24 0
BBX 20 24 4 0
BITMAP
0FFF00
0FFF00
0FFF00
0FFF00
F000F0
F000F0
F000F0
F000F0
0000F0
0000F0
0000F0
0000F0
0000F0
0000F0
0000F0
0000F0
F000F0
F000F0
F000F0
F000F0
0FFF00
0FFF00
0FFF00
0FFF00
ENDCHAR
STARTCHAR uni0255
ENCODING 597
SWIDTH 2000 0
DWIDTH 24 0
BBX 20 24 4 0
BITMAP
0FFF00
0FFF00
0FFF00
0FFF00
F000F0
F000F0
F000F0
F000F0
F00000
F00000
F00000
F00000
F0FF00
F0FF00
F0FF00
F0FF00
0F00F0
0F00F0
0F00F0
0F00F0
F0FF00
F0FF00
F0FF00
F0FF00
ENDCHAR
STARTCHAR uni0256
ENCODING 598
SWIDTH 2000 0
DWIDTH 24 0
BBX 28 48 4 -12
BITMAP
0000F000
0000F000
0000F000
0000F000
0000F000
0000F000
0000F000
0000F000
0000F000
0000F000
0000F000
0000F000
0FFFF000
0FFFF000
0FFFF000
0FFFF000
F000F000
F000F000
F000F000
F000F000
F000F000
F000F000
F000F000
F000F000
F000F000
F000F000
F000F000
F000F000
F000F000
F000F000
F000F000
F000F000
0FFFF000
0FFFF000
0FFFF000
0FFFF000
0000F000
0000F000
0000F000
0000F000
0000F000
0000F000
0000F000
0000F000
00000FF0
00000FF0
00000FF0
00000FF0
ENDCHAR
STARTCHAR uni0257
ENCODING 599
SWIDTH 2000 0
DWIDTH 24 0
BBX 28 36 4 0
BITMAP
00000FF0
00000FF0
00000FF0
00000FF0
0000F000
0000F000
0000F000
0000F000
0000F000
0000F000
0000F000
0000F000
0FFFF000
0FFFF000
0FFFF000
0FFFF000
F000F000
F000F000
F000F000
F000F000
F000F000
F000F000
F000F000
F000F000
F000F000
F000F000
F000F000
F000F000
F000F000
F000F000
F000F000
F000F000
0FFFF000
0FFFF000
0FFFF000
0FFFF000
ENDCHAR
STARTCHAR uni0258
ENCODING 600
SWIDTH 2000 0
DWIDTH 24 0
BBX 20 24 4 0
BITMAP
0FFF00
0FFF00
0FFF00
0FFF00
F000F0
F000F0
F000F0
F000F0
FFFFF0
FFFFF0
FFFFF0
FFFFF0
0000F0
0000F0
0000F0
0000F0
F000F0
F000F0
F000F0
F000F0
0FFF00
0FFF00
0FFF00
0FFF00
ENDCHAR
STARTCHAR uni0259
ENCODING 601
SWIDTH 2000 0
DWIDTH 24 0
BBX 20 24 4 0
BITMAP
0FFF00
0FFF00
0FFF00
0FFF00
F000F0
F000F0
F000F0
F000F0
0000F0
0000F0
0000F0
0000F0
FFFFF0
FFFFF0
FFFFF0
FFFFF0
F000F0
F000F0
F000F0
F000F0
0FFF00
0FFF00
0FFF00
0FFF00
ENDCHAR
STARTCHAR uni025A
ENCODING 602
SWIDTH 2000 0
DWIDTH 24 0
BBX 28 24 4 0
BITMAP
0FFF0000
0FFF0000
0FFF0000
0FFF0000
F000F000
F000F000
F000F000
F000F000
0000FFF0
0000FFF0
0000FFF0
0000FFF0
FFFFF0F0
FFFFF0F0
FFFFF0F0
FFFFF0F0
F000F000
F000F000
F000F000
F000F000
0FFF0000
0FFF0000
0FFF0000
0FFF0000
ENDCHAR
STARTCHAR uni025B
ENCODING 603
SWIDTH 2000 0
DWIDTH 24 0
BBX 20 24 4 0
BITMAP
0FFFF0
0FFFF0
0FFFF0
0FFFF0
F00000
F00000
F00000
F00000
0FFF00
0FFF00
0FFF00
0FFF00
F00000
F00000
F00000
F00000
F00000
F00000
F00000
F00000
0FFFF0
0FFFF0
0FFFF0
0FFFF0
ENDCHAR
STARTCHAR uni025C
ENCODING 604
SWIDTH 2000 0
DWIDTH 24 0
BBX 20 24 4 0
BITMAP
FFFF00
FFFF00
FFFF00
FFFF00
0000F0
0000F0
0000F0
0000F0
0FFF00
0FFF00
0FFF00
0FFF00
0000F0
0000F0
0000F0
0000F0
0000F0
0000F0
0000F0
0000F0
FFFF00
FFFF00
FFFF00
FFFF00
ENDCHAR
STARTCHAR uni025D
ENCODING 605
SWIDTH 2000 0
DWIDTH 24 0
BBX 28 24 4 0
BITMAP
FFFF0000
FFFF0000
FFFF0000
FFFF0000
0000FFF0
0000FFF0
0000FFF0
0000FFF0
0FFF00F0
0FFF00F0
0FFF00F0
0FFF00F0
0000F000
0000F000
0000F000
0000F000
0000F000
0000F000
0000F000
0000F000
FFFF0000
FFFF0000
FFFF0000
FFFF0000
ENDCHAR
STARTCHAR uni025E
ENCODING 606
SWIDTH 2000 0
DWIDTH 24 0
BBX 20 24 4 0
BITMAP
0FFF00
0FFF00
0FFF00
0FFF00
F000F0
F000F0
F000F0
F000F0
F0FF00
F0FF00
F0FF00
F0FF00
F000F0
F000F0
F000F0
F000F0
F000F0
F000F0
F000F0
F000F0
0FFF00
0FFF00
0FFF00
0FFF00
ENDCHAR
STARTCHAR uni025F
ENCODING 607
SWIDTH 2000 0
DWIDTH 24 0
BBX 16 32 8 -8
BITMAP
00F0
00F0
00F0
00F0
00F0
00F0
00F0
00F0
0FFF
0FFF
0FFF
0FFF
00F0
00F0
00F0
00F0
00F0
00F0
00F0
00F0
00F0
00F0
00F0
00F0
F0F0
F0F0
F0F0
F0F0
0F00
0F00
0F00
0F00
ENDCHAR
STARTCHAR uni0260
ENCODING 608
SWIDTH 2000 0
DWIDTH 24 0
BBX 28 48 4 -12
BITMAP
00000FF0
00000FF0
00000FF0
00000FF0
0000F000
0000F000
0000F000
0000F000
0000F000
0000F000
0000F000
0000F000
0FFFF000
0FFFF000
0FFFF000
0FFFF000
F000F000
F000F000
F000F000
F000F000
F000F000
F000F000
F000F000
F000F000
F000F000
F000F000
F000F000
F000F000
F000F000
F000F000
F000F000
F000F000
0FFFF000
0FFFF000
0FFFF000
0FFFF000
0000F000
0000F000
0000F000
0000F000
0000F000
0000F000
0000F000
0000F000
0FFF0000
0FFF0000
0FFF0000
0FFF0000
ENDCHAR
STARTCHAR uni0261
ENCODING 609
SWIDTH 2000 0
DWIDTH 24 0
BBX 20 36 4 -12
BITMAP
0FFFF0
0FFFF0
0FFFF0
0FFFF0
F000F0
F000F0
F000F0
F000F0
F000F0
F000F0
F000F0
F000F0
F000F0
F000F0
F000F0
F000F0
F000F0
F000F0
F000F0
F000F0
0FFFF0
0FFFF0
0FFFF0
0FFFF0
0000F0
0000F0
0000F0
0000F0
0000F0
0000F0
0000F0
0000F0
0FFF00
0FFF00
0FFF00
0FFF00
ENDCHAR
STARTCHAR uni0262
ENCODING 610
SWIDTH 2000 0
DWIDTH 24 0
BBX 20 24 4 0
BITMAP
0FFF00
0FFF00
0FFF00
0FFF00
F000F0
F000F0
F000F0
F000F0
F00000
F00000
F00000
F00000
F00FF0
F00FF0
F00FF0
F00FF0
F000F0
F000F0
F000F0
F000F0
0FFF00
0FFF00
0FFF00
0FFF00
ENDCHAR
STARTCHAR uni0263
ENCODING 611
SWIDTH 2000 0
DWIDTH 24 0
BBX 20 36 4 -12
BITMAP
F000F0
F000F0
F000F0
F000F0
F000F0
F000F0
F000F0
F000F0
0F0F00
0F0F00
0F0F00
0F0F00
0F0F00
0F0F00
0F0F00
0F0F00
00F000
00F000
00F000
00F000
00F000
00F000
00F000
00F000
0F0F00
0F0F00
0F0F00
0F0F00
0F0F00
0F0F00
0F0F00
0F0F00
00F000
00F000
00F000
00F000
ENDCHAR
STARTCHAR uni0264
ENCODING 612
SWIDTH 2000 0
DWIDTH 24 0
BBX 20 28 4 -4
BITMAP
F000F0
F000F0
F000F0
F000F0
F000F0
F000F0
F000F0
F000F0
0F0F00
0F0F00
0F0F00
0F0F00
0F0F00
0F0F00
0F0F00
0F0F00
00F000
00F000
00F000
00F000
0F0F00
0F0F00
0F0F00
0F0F00
00F000
00F000
00F000
00F000
ENDCHAR
STARTCHAR uni0265
ENCODING 613
SWIDTH 2000 0
DWIDTH 24 0
BBX 20 36 4 0
BITMAP
F000F0
F000F0
F000F0
F000F0
F000F0
F000F0
F000F0
F000F0
F000F0
F000F0
F000F0
F000F0
F000F0
F000F0
F000F0
F000F0
F000F0
F000F0
F000F0
F000F0
0FFFF0
0FFFF0
0FFFF0
0FFFF0
0000F0
0000F0
0000F0
0000F0
0000F0
0000F0
0000F0
0000F0
0000F0
0000F0
0000F0
0000F0
ENDCHAR
STARTCHAR uni0266
ENCODING 614
SWIDTH 2000 0
DWIDTH 24 0
BBX 20 36 4 0
BITMAP
0FF000
0FF000
0FF000
0FF000
F00000
F00000
F00000
F00000
F00000
F00000
F00000
F00000
FFFF00
FFFF00
FFFF00
FFFF00
F000F0
F000F0
F000F0
F000F0
F000F0
F000F0
F000F0
F000F0
F000F0
F000F0
F000F0
F000F0
F000F0
F000F0
F000F0
F000F0
F000F0
F000F0
F000F0
F000F0
ENDCHAR
STARTCHAR uni0267
ENCODING 615
SWIDTH 2000 0
DWIDTH 24 0
BBX 20 48 4 -12
BITMAP
0FF000
0FF000
0FF000
0FF000
F00000
F00000
F00000
F00000
F00000
F00000
F00000
F00000
FFFF00
FFFF00
FFFF00
FFFF00
F000F0
F000F0
F000F0
F000F0
F000F0
F000F0
F000F0
F000F0
F000F0
F000F0
F000F0
F000F0
F000F0
F000F0
F000F0
F000F0
F000F0
F000F0
F000F0
F000F0
0000F0
0000F0
0000F0
0000F0
0000F0
0000F0
0000F0
0000F0
00FF00
00FF00
00FF00
00FF00
ENDCHAR
STARTCHAR uni0268
ENCODING 616
SWIDTH 2000 0
DWIDTH 24 0
BBX 16 32 8 0
BITMAP
0F00
0F00
0F00
0F00
0000
0000
0000
0000
FF00
FF00
FF00
FF00
0F00
0F00
0F00
0F00
FFF0
FFF0
FFF0
FFF0
0F00
0F00
0F00
0F00
0F00
0F00
0F00
0F00
00FF
00FF
00FF
00FF
ENDCHAR
STARTCHAR uni0269
ENCODING 617
SWIDTH 2000 0
DWIDTH 24 0
BBX 16 24 8 0
BITMAP
FF00
FF00
FF00
FF00
0F00
0F00
0F00
0F00
0F00
0F00
0F00
0F00
0F00
0F00
0F00
0F00
0F00
0F00
0F00
0F00
00FF
00FF
00FF
00FF
ENDCHAR
STARTCHAR uni026A
ENCODING 618
SWIDTH 2000 0
DWIDTH 24 0
BBX 12 24 8 0
BITMAP
FFF0
FFF0
FFF0
FFF0
0F00
0F00
0F00
0F00
0F00
0F00
0F00
0F00
0F00
0F00
0F00
0F00
0F00
0F00
0F00
0F00
FFF0
FFF0
FFF0
FFF0
ENDCHAR
STARTCHAR uni026B
ENCODING 619
SWIDTH 2000 0
DWIDTH 24 0
BBX 20 36 4 0
BITMAP
0FF000
0FF000
0FF000
0FF000
00F000
00F000
00F000
00F000
00F000
00F000
00F000
00F000
00F000
00F000
00F000
00F000
0FF0F0
0FF0F0
0FF0F0
0FF0F0
F0FF00
F0FF00
F0FF00
F0FF00
00F000
00F000
00F000
00F000
00F000
00F000
00F000
00F000
00FF00
00FF00
00FF00
00FF00
ENDCHAR
STARTCHAR uni026C
ENCODING 620
SWIDTH 2000 0
DWIDTH 24 0
BBX 16 36 4 0
BITMAP
0FF0
0FF0
0FF0
0FF0
00F0
00F0
00F0
00F0
00F0
00F0
00F0
00F0
0FF0
0FF0
0FF0
0FF0
F0F0
F0F0
F0F0
F0F0
0FFF
0FFF
0FFF
0FFF
00F0
00F0
00F0
00F0
00F0
00F0
00F0
00F0
00FF
00FF
00FF
00FF
ENDCHAR
STARTCHAR uni026D
ENCODING 621
SWIDTH 2000 0
DWIDTH 24 0
BBX 16 48 8 -12
BITMAP
FF00
FF00
FF00
FF00
0F00
0F00
0F00
0F00
0F00
0F00
0F00
0F00
0F00
0F00
0F00
0F00
0F00
0F00
0F00
0F00
0F00
0F00
0F00
0F00
0F00
0F00
0F00
0F00
0F00
0F00
0F00
0F00
0F00
0F00
0F00
0F00
0F00
0F00
0F00
0F00
0F00
0F00
0F00
0F00
00FF
00FF
00FF
00FF
ENDCHAR
STARTCHAR uni026E
ENCODING 622
SWIDTH 2000 0
DWIDTH 24 0
BBX 24 44 4 -8
BITMAP
FF0000
FF0000
FF0000
FF0000
0F0000
0F0000
0F0000
0F0000
0F0000
0F0000
0F0000
0F0000
0FFFFF
0FFFFF
0FFFFF
0FFFFF
0F00F0
0F00F0
0F00F0
0F00F0
0F0F00
0F0F00
0F0F00
0F0F00
0F0FF0
0F0FF0
0F0FF0
0F0FF0
0F000F
0F000F
0F000F
0F000F
0F000F
0F000F
0F000F
0F000F
00000F
00000F
00000F
00000F
00FFF0
00FFF0
00FFF0
00FFF0
ENDCHAR
STARTCHAR uni026F
ENCODING 623
SWIDTH 2000 0
DWIDTH 24 0
BBX 20 20 4 0
BITMAP
F0F0F0
F0F0F0
F0F0F0
F0F0F0
F0F0F0
F0F0F0
F0F0F0
F0F0F0
F0F0F0
F0F0F0
F0F0F0
F0F0F0
F0F0F0
F0F0F0
F0F0F0
F0F0F0
0F0FF0
0F0FF0
0F0FF0
0F0FF0
ENDCHAR
STARTCHAR uni0270
ENCODING 624
SWIDTH 2000 0
DWIDTH 24 0
BBX 20 28 4 -8
BITMAP
F0F0F0
F0F0F0
F0F0F0
F0F0F0
F0F0F0
F0F0F0
F0F0F0
F0F0F0
F0F0F0
F0F0F0
F0F0F0
F0F0F0
F0F0F0
F0F0F0
F0F0F0
F0F0F0
0F0FF0
0F0FF0
0F0FF0
0F0FF0
0000F0
0000F0
0000F0
0000F0
0000F0
0000F0
0000F0
0000F0
ENDCHAR
STARTCHAR uni0271
ENCODING 625
SWIDTH 2000 0
DWIDTH 24 0
BBX 20 36 4 -12
BITMAP
FF0F00
FF0F00
FF0F00
FF0F00
F0F0F0
F0F0F0
F0F0F0
F0F0F0
F0F0F0
F0F0F0
F0F0F0
F0F0F0
F0F0F0
F0F0F0
F0F0F0
F0F0F0
F0F0F0
F0F0F0
F0F0F0
F0F0F0
F0F0F0
F0F0F0
F0F0F0
F0F0F0
0000F0
0000F0
0000F0
0000F0
0000F0
0000F0
0000F0
0000F0
000F00
000F00
000F00
000F00
ENDCHAR
STARTCHAR uni0272
ENCODING 626
SWIDTH 2000 0
DWIDTH 24 0
BBX 28 36 -4 -12
BITMAP
00FFFF00
00FFFF00
00FFFF00
00FFFF00
00F000F0
00F000F0
00F000F0
00F000F0
00F000F0
00F000F0
00F000F0
00F000F0
00F000F0
00F000F0
00F000F0
00F000F0
00F000F0
00F000F0
00F000F0
00F000F0
00F000F0
00F000F0
00F000F0
00F000F0
00F00000
00F00000
00F00000
00F00000
00F00000
00F00000
00F00000
00F00000
FF000000
FF000000
FF000000
FF000000
ENDCHAR
STARTCHAR uni0273
ENCODING 627
SWIDTH 2000 0
DWIDTH 24 0
BBX 28 36 4 -12
BITMAP
FFFF0000
FFFF0000
FFFF0000
FFFF0000
F000F000
F000F000
F000F000
F000F000
F000F000
F000F000
F000F000
F000F000
F000F000
F000F000
F000F000
F000F000
F000F000
F000F000
F000F000
F000F000
F000F000
F000F000
F000F000
F000F000
0000F000
0000F000
0000F000
0000F000
0000F000
0000F000
0000F000
0000F000
00000FF0
00000FF0
00000FF0
00000FF0
ENDCHAR
STARTCHAR uni0274
ENCODING 628
SWIDTH 2000 0
DWIDTH 24 0
BBX 20 24 4 0
BITMAP
F000F0
F000F0
F000F0
F000F0
FF00F0
FF00F0
FF00F0
FF00F0
F0F0F0
F0F0F0
F0F0F0
F0F0F0
F00FF0
F00FF0
F00FF0
F00FF0
F000F0
F000F0
F000F0
F000F0
F000F0
F000F0
F000F0
F000F0
ENDCHAR
STARTCHAR uni0275
ENCODING 629
SWIDTH 2000 0
DWIDTH 24 0
BBX 20 24 4 0
BITMAP
0FFF00
0FFF00
0FFF00
0FFF00
F000F0
F000F0
F000F0
F000F0
FFFFF0
FFFFF0
FFFFF0
FFFFF0
F000F0
F000F0
F000F0
F000F0
F000F0
F000F0
F000F0
F000F0
0FFF00
0FFF00
0FFF00
0FFF00
ENDCHAR
STARTCHAR uni0276
ENCODING 630
SWIDTH 2000 0
DWIDTH 24 0
BBX 20 20 4 0
BITMAP
0FFFF0
0FFFF0
0FFFF0
0FFFF0
F0F000
F0F000
F0F000
F0F000
F0FFF0
F0FFF0
F0FFF0
F0FFF0
F0F000
F0F000
F0F000
F0F000
0FFFF0
0FFFF0
0FFFF0
0FFFF0
ENDCHAR
STARTCHAR uni0277
ENCODING 631
SWIDTH 2000 0
DWIDTH 24 0
BBX 20 20 4 0
BITMAP
0FFF00
0FFF00
0FFF00
0FFF00
F000F0
F000F0
F000F0
F000F0
F0F0F0
F0F0F0
F0F0F0
F0F0F0
F0F0F0
F0F0F0
F0F0F0
F0F0F0
0F0F00
0F0F00
0F0F00
0F0F00
ENDCHAR
STARTCHAR uni0278
ENCODING 632
SWIDTH 2000 0
DWIDTH 24 0
BBX 20 40 4 -8
BITMAP
00F000
00F000
00F000
00F000
00F000
00F000
00F000
00F000
0FFF00
0FFF00
0FFF00
0FFF00
F0F0F0
F0F0F0
F0F0F0
F0F0F0
F0F0F0
F0F0F0
F0F0F0
F0F0F0
F0F0F0
F0F0F0
F0F0F0
F0F0F0
F0F0F0
F0F0F0
F0F0F0
F0F0F0
0FFF00
0FFF00
0FFF00
0FFF00
00F000
00F000
00F000
00F000
00F000
00F000
00F000
00F000
ENDCHAR
STARTCHAR uni0279
ENCODING 633
SWIDTH 2000 0
DWIDTH 24 0
BBX 20 24 4 0
BITMAP
0000F0
0000F0
0000F0
0000F0
0000F0
0000F0
0000F0
0000F0
0000F0
0000F0
0000F0
0000F0
0000F0
0000F0
0000F0
0000F0
F000F0
F000F0
F000F0
F000F0
0FFFF0
0FFFF0
0FFFF0
0FFFF0
ENDCHAR
STARTCHAR uni027A
ENCODING 634
SWIDTH 2000 0
DWIDTH 24 0
BBX 20 36 4 0
BITMAP
0000F0
0000F0
0000F0
0000F0
0000F0
0000F0
0000F0
0000F0
0000F0
0000F0
0000F0
0000F0
0000F0
0000F0
0000F0
0000F0
0000F0
0000F0
0000F0
0000F0
0000F0
0000F0
0000F0
0000F0
0000F0
0000F0
0000F0
0000F0
F000F0
F000F0
F000F0
F000F0
0FFFF0
0FFFF0
0FFFF0
0FFFF0
ENDCHAR
STARTCHAR uni027B
ENCODING 635
SWIDTH 2000 0
DWIDTH 24 0
BBX 28 36 4 -12
BITMAP
0000F000
0000F000
0000F000
0000F000
0000F000
0000F000
0000F000
0000F000
0000F000
0000F000
0000F000
0000F000
0000F000
0000F000
0000F000
0000F000
F000F000
F000F000
F000F000
F000F000
0FFFF000
0FFFF000
0FFFF000
0FFFF000
0000F000
0000F000
0000F000
0000F000
0000F000
0000F000
0000F000
0000F000
00000FF0
00000FF0
00000FF0
00000FF0
ENDCHAR
STARTCHAR uni027C
ENCODING 636
SWIDTH 2000 0
DWIDTH 24 0
BBX 20 32 4 -8
BITMAP
FFFF00
FFFF00
FFFF00
FFFF00
F000F0
F000F0
F000F0
F000F0
F00000
F00000
F00000
F00000
F00000
F00000
F00000
F00000
F00000
F00000
F00000
F00000
F00000
F00000
F00000
F00000
F00000
F00000
F00000
F00000
F00000
F00000
F00000
F00000
ENDCHAR
STARTCHAR uni027D
ENCODING 637
SWIDTH 2000 0
DWIDTH 24 0
BBX 20 36 4 -12
BITMAP
FFFF00
FFFF00
FFFF00
FFFF00
F000F0
F000F0
F000F0
F000F0
F00000
F00000
F00000
F00000
F00000
F00000
F00000
F00000
F00000
F00000
F00000
F00000
F00000
F00000
F00000
F00000
F00000
F00000
F00000
F00000
F00000
F00000
F00000
F00000
0FF000
0FF000
0FF000
0FF000
ENDCHAR
STARTCHAR uni027E
ENCODING 638
SWIDTH 2000 0
DWIDTH 24 0
BBX 16 24 4 0
BITMAP
0FFF
0FFF
0FFF
0FFF
F000
F000
F000
F000
F000
F000
F000
F000
F000
F000
F000
F000
F000
F000
F000
F000
F000
F000
F000
F000
ENDCHAR
STARTCHAR uni027F
ENCODING 639
SWIDTH 2000 0
DWIDTH 24 0
BBX 16 24 8 0
BITMAP
FFF0
FFF0
FFF0
FFF0
000F
000F
000F
000F
000F
000F
000F
000F
000F
000F
000F
000F
000F
000F
000F
000F
000F
000F
000F
000F
ENDCHAR
STARTCHAR uni0280
ENCODING 640
SWIDTH 2000 0
DWIDTH 24 0
BBX 20 24 4 0
BITMAP
FFFF00
FFFF00
FFFF00
FFFF00
F000F0
F000F0
F000F0
F000F0
FFFF00
FFFF00
FFFF00
FFFF00
F000F0
F000F0
F000F0
F000F0
F000F0
F000F0
F000F0
F000F0
F000F0
F000F0
F000F0
F000F0
ENDCHAR
STARTCHAR uni0281
ENCODING 641
SWIDTH 2000 0
DWIDTH 24 0
BBX 20 24 4 0
BITMAP
F000F0
F000F0
F000F0
F000F0
F000F0
F000F0
F000F0
F000F0
F000F0
F000F0
F000F0
F000F0
FFFF00
FFFF00
FFFF00
FFFF00
F000F0
F000F0
F000F0
F000F0
FFFF00
FFFF00
FFFF00
FFFF00
ENDCHAR
STARTCHAR uni0282
ENCODING 642
SWIDTH 2000 0
DWIDTH 24 0
BBX 20 36 4 -12
BITMAP
0FFFF0
0FFFF0
0FFFF0
0FFFF0
F00000
F00000
F00000
F00000
0FFF00
0FFF00
0FFF00
0FFF00
0000F0
0000F0
0000F0
0000F0
0000F0
0000F0
0000F0
0000F0
FFFF00
FFFF00
FFFF00
FFFF00
F00000
F00000
F00000
F00000
F00000
F00000
F00000
F00000
0FF000
0FF000
0FF000
0FF000
ENDCHAR
STARTCHAR uni0283
ENCODING 643
SWIDTH 2000 0
DWIDTH 24 0
BBX 20 48 8 -12
BITMAP
000FF0
000FF0
000FF0
000FF0
00F000
00F000
00F000
00F000
00F000
00F000
00F000
00F000
00F000
00F000
00F000
00F000
00F000
00F000
00F000
00F000
00F000
00F000
00F000
00F000
00F000
00F000
00F000
00F000
00F000
00F000
00F000
00F000
00F000
00F000
00F000
00F000
00F000
00F000
00F000
00F000
00F000
00F000
00F000
00F000
FF0000
FF0000
FF0000
FF0000
ENDCHAR
STARTCHAR uni0284
ENCODING 644
SWIDTH 2000 0
DWIDTH 24 0
BBX 20 48 4 -12
BITMAP
000FF0
000FF0
000FF0
000FF0
00F000
00F000
00F000
00F000
00F000
00F000
00F000
00F000
00F000
00F000
00F000
00F000
00F000
00F000
00F000
00F000
00F000
00F000
00F000
00F000
0FFFF0
0FFFF0
0FFFF0
0FFFF0
00F000
00F000
00F000
00F000
00F000
00F000
00F000
00F000
00F000
00F000
00F000
00F000
00F000
00F000
00F000
00F000
FF0000
FF0000
FF0000
FF0000
ENDCHAR
STARTCHAR uni0285
ENCODING 645
SWIDTH 2000 0
DWIDTH 24 0
BBX 20 36 4 -12
BITMAP
FF0000
FF0000
FF0000
FF0000
00F000
00F000
00F000
00F000
00F000
00F000
00F000
00F000
00F000
00F000
00F000
00F000
00F000
00F000
00F000
00F000
00F000
00F000
00F000
00F000
00F000
00F000
00F000
00F000
00F000
00F000
00F000
00F000
000FF0
000FF0
000FF0
000FF0
ENDCHAR
STARTCHAR uni0286
ENCODING 646
SWIDTH 2000 0
DWIDTH 24 0
BBX 20 48 4 -12
BITMAP
000FF0
000FF0
000FF0
000FF0
00F000
00F000
00F000
00F000
00F000
00F000
00F000
00F000
00F000
00F000
00F000
00F000
00F000
00F000
00F000
00F000
00F000
00F000
00F000
00F000
00F000
00F000
00F000
00F000
00F000
00F000
00F000
00F000
00F000
00F000
00F000
00F000
0FFF00
0FFF00
0FFF00
0FFF00
F0F000
F0F000
F0F000
F0F000
0F0000
0F0000
0F0000
0F0000
ENDCHAR
STARTCHAR uni0287
ENCODING 647
SWIDTH 2000 0
DWIDTH 24 0
BBX 20 32 4 0
BITMAP
FFF000
FFF000
FFF000
FFF000
000F00
000F00
000F00
000F00
000F00
000F00
000F00
000F00
000F00
000F00
000F00
000F00
000F00
000F00
000F00
000F00
0FFFF0
0FFFF0
0FFFF0
0FFFF0
000F00
000F00
000F00
000F00
000F00
000F00
000F00
000F00
ENDCHAR
STARTCHAR uni0288
ENCODING 648
SWIDTH 2000 0
DWIDTH 24 0
BBX 20 40 4 -8
BITMAP
0F0000
0F0000
0F0000
0F0000
0F0000
0F0000
0F0000
0F0000
FFFF00
FFFF00
FFFF00
FFFF00
0F0000
0F0000
0F0000
0F0000
0F0000
0F0000
0F0000
0F0000
0F0000
0F0000
0F0000
0F0000
0F0000
0F0000
0F0000
0F0000
0F0000
0F0000
0F0000
0F0000
0F0000
0F0000
0F0000
0F0000
00FFF0
00FFF0
00FFF0
00FFF0
ENDCHAR
STARTCHAR uni0289
ENCODING 649
SWIDTH 2000 0
DWIDTH 24 0
BBX 28 24 0 0
BITMAP
0F000F00
0F000F00
0F000F00
0F000F00
0F000F00
0F000F00
0F000F00
0F000F00
FFFFFFF0
FFFFFFF0
FFFFFFF0
FFFFFFF0
0F000F00
0F000F00
0F000F00
0F000F00
0F000F00
0F000F00
0F000F00
0F000F00
00FFFF00
00FFFF00
00FFFF00
00FFFF00
ENDCHAR
STARTCHAR uni028A
ENCODING 650
SWIDTH 2000 0
DWIDTH 24 0
BBX 20 24 4 0
BITMAP
FF0FF0
FF0FF0
FF0FF0
FF0FF0
0F0F00
0F0F00
0F0F00
0F0F00
F000F0
F000F0
F000F0
F000F0
F000F0
F000F0
F000F0
F000F0
F000F0
F000F0
F000F0
F000F0
0FFF00
0FFF00
0FFF00
0FFF00
ENDCHAR
STARTCHAR uni028B
ENCODING 651
SWIDTH 2000 0
DWIDTH 24 0
BBX 20 24 4 0
BITMAP
F00F00
F00F00
F00F00
F00F00
F000F0
F000F0
F000F0
F000F0
F000F0
F000F0
F000F0
F000F0
F000F0
F000F0
F000F0
F000F0
F000F0
F000F0
F000F0
F000F0
0FFF00
0FFF00
0FFF00
0FFF00
ENDCHAR
STARTCHAR uni028C
ENCODING 652
SWIDTH 2000 0
DWIDTH 24 0
BBX 20 24 4 0
BITMAP
00F000
00F000
00F000
00F000
00F000
00F000
00F000
00F000
0F0F00
0F0F00
0F0F00
0F0F00
0F0F00
0F0F00
0F0F00
0F0F00
F000F0
F000F0
F000F0
F000F0
F000F0
F000F0
F000F0
F000F0
ENDCHAR
STARTCHAR uni028D
ENCODING 653
SWIDTH 2000 0
DWIDTH 24 0
BBX 20 24 4 0
BITMAP
0F0F00
0F0F00
0F0F00
0F0F00
0F0F00
0F0F00
0F0F00
0F0F00
F0F0F0
F0F0F0
F0F0F0
F0F0F0
F000F0
F000F0
F000F0
F000F0
F000F0
F000F0
F000F0
F000F0
F000F0
F000F0
F000F0
F000F0
ENDCHAR
STARTCHAR uni028E
ENCODING 654
SWIDTH 2000 0
DWIDTH 24 0
BBX 20 36 4 0
BITMAP
0FFF00
0FFF00
0FFF00
0FFF00
F00000
F00000
F00000
F00000
F00000
F00000
F00000
F00000
FFFF00
FFFF00
FFFF00
FFFF00
F000F0
F000F0
F000F0
F000F0
F000F0
F000F0
F000F0
F000F0
F000F0
F000F0
F000F0
F000F0
F000F0
F000F0
F000F0
F000F0
F000F0
F000F0
F000F0
F000F0
ENDCHAR
STARTCHAR uni028F
ENCODING 655
SWIDTH 2000 0
DWIDTH 24 0
BBX 20 24 4 0
BITMAP
F000F0
F000F0
F000F0
F000F0
F000F0
F000F0
F000F0
F000F0
0F0F00
0F0F00
0F0F00
0F0F00
00F000
00F000
00F000
00F000
00F000
00F000
00F000
00F000
00F000
00F000
00F000
00F000
ENDCHAR
STARTCHAR uni0290
ENCODING 656
SWIDTH 2000 0
DWIDTH 24 0
BBX 28 36 4 -12
BITMAP
FFFFF000
FFFFF000
FFFFF000
FFFFF000
000F0000
000F0000
000F0000
000F0000
00F00000
00F00000
00F00000
00F00000
0F000000
0F000000
0F000000
0F000000
F0000000
F0000000
F0000000
F0000000
FFFFF000
FFFFF000
FFFFF000
FFFFF000
0000F000
0000F000
0000F000
0000F000
0000F000
0000F000
0000F000
0000F000
00000FF0
00000FF0
00000FF0
00000FF0
ENDCHAR
STARTCHAR uni0291
ENCODING 657
SWIDTH 2000 0
DWIDTH 24 0
BBX 24 28 4 -4
BITMAP
FFFFF0
FFFFF0
FFFFF0
FFFFF0
000F00
000F00
000F00
000F00
00F000
00F000
00F000
00F000
0F00F0
0F00F0
0F00F0
0F00F0
F00F0F
F00F0F
F00F0F
F00F0F
FFFFFF
FFFFFF
FFFFFF
FFFFFF
000F00
000F00
000F00
000F00
ENDCHAR
STARTCHAR uni0292
ENCODING 658
SWIDTH 2000 0
DWIDTH 24 0
BBX 20 32 4 -8
BITMAP
FFFFF0
FFFFF0
FFFFF0
FFFFF0
000F00
000F00
000F00
000F00
00F000
00F000
00F000
00F000
0FFF00
0FFF00
0FFF00
0FFF00
0000F0
0000F0
0000F0
0000F0
0000F0
0000F0
0000F0
0000F0
F000F0
F000F0
F000F0
F000F0
0FFF00
0FFF00
0FFF00
0FFF00
ENDCHAR
STARTCHAR uni0293
ENCODING 659
SWIDTH 2000 0
DWIDTH 24 0
BBX 20 32 4 -8
BITMAP
FFFFF0
FFFFF0
FFFFF0
FFFFF0
000F00
000F00
000F00
000F00
00F000
00F000
00F000
00F000
0FFF00
0FFF00
0FFF00
0FFF00
0000F0
0000F0
0000F0
0000F0
0FF0F0
0FF0F0
0FF0F0
0FF0F0
F00F00
F00F00
F00F00
F00F00
0FF0F0
0FF0F0
0FF0F0
0FF0F0
ENDCHAR
STARTCHAR uni0294
ENCODING 660
SWIDTH 2000 0
DWIDTH 24 0
BBX 20 32 4 0
BITMAP
0FFF00
0FFF00
0FFF00
0FFF00
F000F0
F000F0
F000F0
F000F0
0000F0
0000F0
0000F0
0000F0
0000F0
0000F0
0000F0
0000F0
00FF00
00FF00
00FF00
00FF00
00F000
00F000
00F000
00F000
00F000
00F000
00F000
00F000
00F000
00F000
00F000
00F000
ENDCHAR
STARTCHAR uni0295
ENCODING 661
SWIDTH 2000 0
DWIDTH 24 0
BBX 20 32 4 0
BITMAP
0FFF00
0FFF00
0FFF00
0FFF00
F000F0
F000F0
F000F0
F000F0
F00000
F00000
F00000
F00000
F00000
F00000
F00000
F00000
0FF000
0FF000
0FF000
0FF000
00F000
00F000
00F000
00F000
00F000
00F000
00F000
00F000
00F000
00F000
00F000
00F000
ENDCHAR
STARTCHAR uni0296
ENCODING 662
SWIDTH 2000 0
DWIDTH 24 0
BBX 20 32 4 0
BITMAP
00F000
00F000
00F000
00F000
00F000
00F000
00F000
00F000
00F000
00F000
00F000
00F000
00FF00
00FF00
00FF00
00FF00
0000F0
0000F0
0000F0
0000F0
0000F0
0000F0
0000F0
0000F0
F000F0
F000F0
F000F0
F000F0
0FFF00
0FFF00
0FFF00
0FFF00
ENDCHAR
STARTCHAR uni0297
ENCODING 663
SWIDTH 2000 0
DWIDTH 24 0
BBX 20 36 4 -12
BITMAP
0FFF00
0FFF00
0FFF00
0FFF00
F000F0
F000F0
F000F0
F000F0
F00000
F00000
F00000
F00000
F00000
F00000
F00000
F00000
F00000
F00000
F00000
F00000
F00000
F00000
F00000
F00000
F00000
F00000
F00000
F00000
F000F0
F000F0
F000F0
F000F0
0FFF00
0FFF00
0FFF00
0FFF00
ENDCHAR
STARTCHAR uni0298
ENCODING 664
SWIDTH 2000 0
DWIDTH 24 0
BBX 20 32 4 0
BITMAP
0FFF00
0FFF00
0FFF00
0FFF00
F000F0
F000F0
F000F0
F000F0
F000F0
F000F0
F000F0
F000F0
F0F0F0
F0F0F0
F0F0F0
F0F0F0
F000F0
F000F0
F000F0
F000F0
F000F0
F000F0
F000F0
F000F0
F000F0
F000F0
F000F0
F000F0
0FFF00
0FFF00
0FFF00
0FFF00
ENDCHAR
STARTCHAR uni0299
ENCODING 665
SWIDTH 2000 0
DWIDTH 24 0
BBX 20 24 4 0
BITMAP
FFFF00
FFFF00
FFFF00
FFFF00
F000F0
F000F0
F000F0
F000F0
FFFF00
FFFF00
FFFF00
FFFF00
F000F0
F000F0
F000F0
F000F0
F000F0
F000F0
F000F0
F000F0
FFFF00
FFFF00
FFFF00
FFFF00
ENDCHAR
STARTCHAR uni029A
ENCODING 666
SWIDTH 2000 0
DWIDTH 24 0
BBX 20 24 4 0
BITMAP
0FFF00
0FFF00
0FFF00
0FFF00
F000F0
F000F0
F000F0
F000F0
0FF0F0
0FF0F0
0FF0F0
0FF0F0
F000F0
F000F0
F000F0
F000F0
F000F0
F000F0
F000F0
F000F0
0FFF00
0FFF00
0FFF00
0FFF00
ENDCHAR
STARTCHAR uni029B
ENCODING 667
SWIDTH 2000 0
DWIDTH 24 0
BBX 28 32 4 0
BITMAP
00000FF0
00000FF0
00000FF0
00000FF0
0000F000
0000F000
0000F000
0000F000
0FFFF000
0FFFF000
0FFFF000
0FFFF000
F000F000
F000F000
F000F000
F000F000
F0000000
F0000000
F0000000
F0000000
F00FF000
F00FF000
F00FF000
F00FF000
F000F000
F000F000
F000F000
F000F000
0FFF0000
0FFF0000
0FFF0000
0FFF0000
ENDCHAR
STARTCHAR uni029C
ENCODING 668
SWIDTH 2000 0
DWIDTH 24 0
BBX 20 24 4 0
BITMAP
F000F0
F000F0
F000F0
F000F0
F000F0
F000F0
F000F0
F000F0
FFFFF0
FFFFF0
FFFFF0
FFFFF0
F000F0
F000F0
F000F0
F000F0
F000F0
F000F0
F000F0
F000F0
F000F0
F000F0
F000F0
F000F0
ENDCHAR
STARTCHAR uni029D
ENCODING 669
SWIDTH 2000 0
DWIDTH 24 0
BBX 16 40 8 -8
BITMAP
00F0
00F0
00F0
00F0
0000
0000
0000
0000
0FF0
0FF0
0FF0
0FF0
00F0
00F0
00F0
00F0
00F0
00F0
00F0
00F0
00F0
00F0
00F0
00F0
00F0
00F0
00F0
00F0
0FFF
0FFF
0FFF
0FFF
F0F0
F0F0
F0F0
F0F0
0F00
0F00
0F00
0F00
ENDCHAR
STARTCHAR uni029E
ENCODING 670
SWIDTH 2000 0
DWIDTH 24 0
BBX 20 36 4 -12
BITMAP
F000F0
F000F0
F000F0
F000F0
0F00F0
0F00F0
0F00F0
0F00F0
00FFF0
00FFF0
00FFF0
00FFF0
00F0F0
00F0F0
00F0F0
00F0F0
0F00F0
0F00F0
0F00F0
0F00F0
F000F0
F000F0
F000F0
F000F0
0000F0
0000F0
0000F0
0000F0
0000F0
0000F0
0000F0
0000F0
0000F0
0000F0
0000F0
0000F0
ENDCHAR
STARTCHAR uni029F
ENCODING 671
SWIDTH 2000 0
DWIDTH 24 0
BBX 16 24 4 0
BITMAP
F000
F000
F000
F000
F000
F000
F000
F000
F000
F000
F000
F000
F000
F000
F000
F000
F000
F000
F000
F000
FFFF
FFFF
FFFF
FFFF
ENDCHAR
STARTCHAR uni02A0
ENCODING 672
SWIDTH 2000 0
DWIDTH 24 0
BBX 28 48 4 -12
BITMAP
00000FF0
00000FF0
00000FF0
00000FF0
0000F000
0000F000
0000F000
0000F000
0000F000
0000F000
0000F000
0000F000
0FFFF000
0FFFF000
0FFFF000
0FFFF000
F000F000
F000F000
F000F000
F000F000
F000F000
F000F000
F000F000
F000F000
F000F000
F000F000
F000F000
F000F000
F000F000
F000F000
F000F000
F000F000
0FFFF000
0FFFF000
0FFFF000
0FFFF000
0000F000
0000F000
0000F000
0000F000
0000F000
0000F000
0000F000
0000F000
0000FF00
0000FF00
0000FF00
0000FF00
ENDCHAR
STARTCHAR uni02A1
ENCODING 673
SWIDTH 2000 0
DWIDTH 24 0
BBX 20 32 4 0
BITMAP
0FFF00
0FFF00
0FFF00
0FFF00
F000F0
F000F0
F000F0
F000F0
0000F0
0000F0
0000F0
0000F0
000F00
000F00
000F00
000F00
00F000
00F000
00F000
00F000
0FFF00
0FFF00
0FFF00
0FFF00
00F000
00F000
00F000
00F000
00F000
00F000
00F000
00F000
ENDCHAR
STARTCHAR uni02A2
ENCODING 674
SWIDTH 2000 0
DWIDTH 24 0
BBX 16 32 4 0
BITMAP
0FFF
0FFF
0FFF
0FFF
F000
F000
F000
F000
F000
F000
F000
F000
0F00
0F00
0F00
0F00
00F0
00F0
00F0
00F0
0FFF
0FFF
0FFF
0FFF
00F0
00F0
00F0
00F0
00F0
00F0
00F0
00F0
ENDCHAR
STARTCHAR uni02B9
ENCODING 697
SWIDTH 2000 0
DWIDTH 24 0
BBX 8 12 12 28
BITMAP
0F
0F
0F
0F
F0
F0
F0
F0
F0
F0
F0
F0
ENDCHAR
STARTCHAR uni02BA
ENCODING 698
SWIDTH 2000 0
DWIDTH 24 0
BBX 16 12 8 28
BITMAP
0F0F
0F0F
0F0F
0F0F
F0F0
F0F0
F0F0
F0F0
F0F0
F0F0
F0F0
F0F0
ENDCHAR
STARTCHAR uni02BB
ENCODING 699
SWIDTH 2000 0
DWIDTH 24 0
BBX 8 12 12 28
BITMAP
0F
0F
0F
0F
F0
F0
F0
F0
FF
FF
FF
FF
ENDCHAR
STARTCHAR afii57929
ENCODING 700
SWIDTH 2000 0
DWIDTH 24 0
BBX 8 12 8 28
BITMAP
FF
FF
FF
FF
0F
0F
0F
0F
F0
F0
F0
F0
ENDCHAR
STARTCHAR afii64937
ENCODING 701
SWIDTH 2000 0
DWIDTH 24 0
BBX 8 12 12 28
BITMAP
FF
FF
FF
FF
F0
F0
F0
F0
0F
0F
0F
0F
ENDCHAR
STARTCHAR uni02C2
ENCODING 706
SWIDTH 2000 0
DWIDTH 24 0
BBX 20 12 4 20
BITMAP
F000F0
F000F0
F000F0
F000F0
0F0F00
0F0F00
0F0F00
0F0F00
00F000
00F000
00F000
00F000
ENDCHAR
STARTCHAR uni02C3
ENCODING 707
SWIDTH 2000 0
DWIDTH 24 0
BBX 20 12 4 20
BITMAP
00F000
00F000
00F000
00F000
0F0F00
0F0F00
0F0F00
0F0F00
F000F0
F000F0
F000F0
F000F0
ENDCHAR
STARTCHAR uni02C4
ENCODING 708
SWIDTH 2000 0
DWIDTH 24 0
BBX 12 20 8 16
BITMAP
00F0
00F0
00F0
00F0
0F00
0F00
0F00
0F00
F000
F000
F000
F000
0F00
0F00
0F00
0F00
00F0
00F0
00F0
00F0
ENDCHAR
STARTCHAR uni02C5
ENCODING 709
SWIDTH 2000 0
DWIDTH 24 0
BBX 12 20 8 16
BITMAP
F000
F000
F000
F000
0F00
0F00
0F00
0F00
00F0
00F0
00F0
00F0
0F00
0F00
0F00
0F00
F000
F000
F000
F000
ENDCHAR
STARTCHAR circumflex
ENCODING 710
SWIDTH 2000 0
DWIDTH 24 0
BBX 12 8 8 28
BITMAP
0F00
0F00
0F00
0F00
F0F0
F0F0
F0F0
F0F0
ENDCHAR
STARTCHAR caron
ENCODING 711
SWIDTH 2000 0
DWIDTH 24 0
BBX 12 8 8 28
BITMAP
F0F0
F0F0
F0F0
F0F0
0F00
0F00
0F00
0F00
ENDCHAR
STARTCHAR uni02C8
ENCODING 712
SWIDTH 2000 0
DWIDTH 24 0
BBX 4 8 12 28
BITMAP
F0
F0
F0
F0
F0
F0
F0
F0
ENDCHAR
STARTCHAR uni02C9
ENCODING 713
SWIDTH 2000 0
DWIDTH 24 0
BBX 12 4 8 28
BITMAP
FFF0
FFF0
FFF0
FFF0
ENDCHAR
STARTCHAR uni02CA
ENCODING 714
SWIDTH 2000 0
DWIDTH 24 0
BBX 8 8 12 28
BITMAP
0F
0F
0F
0F
F0
F0
F0
F0
ENDCHAR
STARTCHAR uni02CB
ENCODING 715
SWIDTH 2000 0
DWIDTH 24 0
BBX 8 8 8 28
BITMAP
F0
F0
F0
F0
0F
0F
0F
0F
ENDCHAR
STARTCHAR uni02CC
ENCODING 716
SWIDTH 2000 0
DWIDTH 24 0
BBX 4 12 12 -4
BITMAP
F0
F0
F0
F0
F0
F0
F0
F0
F0
F0
F0
F0
ENDCHAR
STARTCHAR uni02CD
ENCODING 717
SWIDTH 2000 0
DWIDTH 24 0
BBX 12 4 8 -4
BITMAP
FFF0
FFF0
FFF0
FFF0
ENDCHAR
STARTCHAR uni02CE
ENCODING 718
SWIDTH 2000 0
DWIDTH 24 0
BBX 8 8 8 0
BITMAP
F0
F0
F0
F0
0F
0F
0F
0F
ENDCHAR
STARTCHAR uni02CF
ENCODING 719
SWIDTH 2000 0
DWIDTH 24 0
BBX 8 8 12 0
BITMAP
0F
0F
0F
0F
F0
F0
F0
F0
ENDCHAR
STARTCHAR uni02D0
ENCODING 720
SWIDTH 2000 0
DWIDTH 24 0
BBX 20 32 4 0
BITMAP
FFFFF0
FFFFF0
FFFFF0
FFFFF0
0FFF00
0FFF00
0FFF00
0FFF00
00F000
00F000
00F000
00F000
000000
000000
000000
000000
000000
000000
000000
000000
00F000
00F000
00F000
00F000
0FFF00
0FFF00
0FFF00
0FFF00
FFFFF0
FFFFF0
FFFFF0
FFFFF0
ENDCHAR
STARTCHAR uni02D1
ENCODING 721
SWIDTH 2000 0
DWIDTH 24 0
BBX 20 12 4 20
BITMAP
FFFFF0
FFFFF0
FFFFF0
FFFFF0
0FFF00
0FFF00
0FFF00
0FFF00
00F000
00F000
00F000
00F000
ENDCHAR
STARTCHAR uni02D2
ENCODING 722
SWIDTH 2000 0
DWIDTH 24 0
BBX 8 20 8 4
BITMAP
F0
F0
F0
F0
0F
0F
0F
0F
0F
0F
0F
0F
0F
0F
0F
0F
F0
F0
F0
F0
ENDCHAR
STARTCHAR uni02D3
ENCODING 723
SWIDTH 2000 0
DWIDTH 24 0
BBX 8 20 8 4
BITMAP
0F
0F
0F
0F
F0
F0
F0
F0
F0
F0
F0
F0
F0
F0
F0
F0
0F
0F
0F
0F
ENDCHAR
STARTCHAR uni02D4
ENCODING 724
SWIDTH 2000 0
DWIDTH 24 0
BBX 12 8 8 4
BITMAP
0F00
0F00
0F00
0F00
FFF0
FFF0
FFF0
FFF0
ENDCHAR
STARTCHAR uni02D5
ENCODING 725
SWIDTH 2000 0
DWIDTH 24 0
BBX 12 8 8 4
BITMAP
FFF0
FFF0
FFF0
FFF0
0F00
0F00
0F00
0F00
ENDCHAR
STARTCHAR uni02D6
ENCODING 726
SWIDTH 2000 0
DWIDTH 24 0
BBX 12 12 8 4
BITMAP
0F00
0F00
0F00
0F00
FFF0
FFF0
FFF0
FFF0
0F00
0F00
0F00
0F00
ENDCHAR
STARTCHAR uni02D7
ENCODING 727
SWIDTH 2000 0
DWIDTH 24 0
BBX 12 4 8 8
BITMAP
FFF0
FFF0
FFF0
FFF0
ENDCHAR
STARTCHAR breve
ENCODING 728
SWIDTH 2000 0
DWIDTH 24 0
BBX 12 8 8 28
BITMAP
F0F0
F0F0
F0F0
F0F0
FFF0
FFF0
FFF0
FFF0
ENDCHAR
STARTCHAR dotaccent
ENCODING 729
SWIDTH 2000 0
DWIDTH 24 0
BBX 4 4 12 28
BITMAP
F0
F0
F0
F0
ENDCHAR
STARTCHAR ring
ENCODING 730
SWIDTH 2000 0
DWIDTH 24 0
BBX 12 12 8 28
BITMAP
0F00
0F00
0F00
0F00
F0F0
F0F0
F0F0
F0F0
0F00
0F00
0F00
0F00
ENDCHAR
STARTCHAR ogonek
ENCODING 731
SWIDTH 2000 0
DWIDTH 24 0
BBX 8 8 12 -8
BITMAP
F0
F0
F0
F0
FF
FF
FF
FF
ENDCHAR
STARTCHAR tilde
ENCODING 732
SWIDTH 2000 0
DWIDTH 24 0
BBX 20 8 4 24
BITMAP
0FF0F0
0FF0F0
0FF0F0
0FF0F0
F0FF00
F0FF00
F0FF00
F0FF00
ENDCHAR
STARTCHAR hungarumlaut
ENCODING 733
SWIDTH 2000 0
DWIDTH 24 0
BBX 20 8 8 28
BITMAP
0F00F0
0F00F0
0F00F0
0F00F0
F00F00
F00F00
F00F00
F00F00
ENDCHAR
STARTCHAR uni02DF
ENCODING 735
SWIDTH 2000 0
DWIDTH 24 0
BBX 12 12 8 28
BITMAP
F0F0
F0F0
F0F0
F0F0
0F00
0F00
0F00
0F00
F0F0
F0F0
F0F0
F0F0
ENDCHAR
STARTCHAR uni02E0
ENCODING 736
SWIDTH 2000 0
DWIDTH 24 0
BBX 12 24 8 16
BITMAP
F0F0
F0F0
F0F0
F0F0
F0F0
F0F0
F0F0
F0F0
0F00
0F00
0F00
0F00
F0F0
F0F0
F0F0
F0F0
F0F0
F0F0
F0F0
F0F0
0F00
0F00
0F00
0F00
ENDCHAR
STARTCHAR uni02E1
ENCODING 737
SWIDTH 2000 0
DWIDTH 24 0
BBX 4 12 12 24
BITMAP
F0
F0
F0
F0
F0
F0
F0
F0
F0
F0
F0
F0
ENDCHAR
STARTCHAR uni02E2
ENCODING 738
SWIDTH 2000 0
DWIDTH 24 0
BBX 12 20 8 16
BITMAP
0FF0
0FF0
0FF0
0FF0
F000
F000
F000
F000
FFF0
FFF0
FFF0
FFF0
00F0
00F0
00F0
00F0
FF00
FF00
FF00
FF00
ENDCHAR
STARTCHAR uni02E3
ENCODING 739
SWIDTH 2000 0
DWIDTH 24 0
BBX 12 20 8 16
BITMAP
F0F0
F0F0
F0F0
F0F0
F0F0
F0F0
F0F0
F0F0
0F00
0F00
0F00
0F00
F0F0
F0F0
F0F0
F0F0
F0F0
F0F0
F0F0
F0F0
ENDCHAR
STARTCHAR uni02E4
ENCODING 740
SWIDTH 2000 0
DWIDTH 24 0
BBX 12 20 8 16
BITMAP
0FF0
0FF0
0FF0
0FF0
F000
F000
F000
F000
F000
F000
F000
F000
0F00
0F00
0F00
0F00
0F00
0F00
0F00
0F00
ENDCHAR
STARTCHAR uni02EC
ENCODING 748
SWIDTH 2000 0
DWIDTH 24 0
BBX 12 12 8 -8
BITMAP
F0F0
F0F0
F0F0
F0F0
F0F0
F0F0
F0F0
F0F0
0F00
0F00
0F00
0F00
ENDCHAR
STARTCHAR uni02ED
ENCODING 749
SWIDTH 2000 0
DWIDTH 24 0
BBX 12 12 8 20
BITMAP
FFF0
FFF0
FFF0
FFF0
0000
0000
0000
0000
FFF0
FFF0
FFF0
FFF0
ENDCHAR
STARTCHAR uni02EF
ENCODING 751
SWIDTH 2000 0
DWIDTH 24 0
BBX 20 12 4 -4
BITMAP
F000F0
F000F0
F000F0
F000F0
0F0F00
0F0F00
0F0F00
0F0F00
00F000
00F000
00F000
00F000
ENDCHAR
STARTCHAR uni02F0
ENCODING 752
SWIDTH 2000 0
DWIDTH 24 0
BBX 20 12 4 -4
BITMAP
00F000
00F000
00F000
00F000
0F0F00
0F0F00
0F0F00
0F0F00
F000F0
F000F0
F000F0
F000F0
ENDCHAR
STARTCHAR uni02F1
ENCODING 753
SWIDTH 2000 0
DWIDTH 24 0
BBX 12 20 8 -8
BITMAP
00F0
00F0
00F0
00F0
0F00
0F00
0F00
0F00
F000
F000
F000
F000
0F00
0F00
0F00
0F00
00F0
00F0
00F0
00F0
ENDCHAR
STARTCHAR uni02F2
ENCODING 754
SWIDTH 2000 0
DWIDTH 24 0
BBX 12 20 8 -8
BITMAP
F000
F000
F000
F000
0F00
0F00
0F00
0F00
00F0
00F0
00F0
00F0
0F00
0F00
0F00
0F00
F000
F000
F000
F000
ENDCHAR
STARTCHAR uni02F3
ENCODING 755
SWIDTH 2000 0
DWIDTH 24 0
BBX 12 12 8 -12
BITMAP
0F00
0F00
0F00
0F00
F0F0
F0F0
F0F0
F0F0
0F00
0F00
0F00
0F00
ENDCHAR
STARTCHAR uni02F4
ENCODING 756
SWIDTH 2000 0
DWIDTH 24 0
BBX 8 8 8 20
BITMAP
F0
F0
F0
F0
0F
0F
0F
0F
ENDCHAR
STARTCHAR uni02F5
ENCODING 757
SWIDTH 2000 0
DWIDTH 24 0
BBX 20 8 4 20
BITMAP
F00F00
F00F00
F00F00
F00F00
0F00F0
0F00F0
0F00F0
0F00F0
ENDCHAR
STARTCHAR uni02F6
ENCODING 758
SWIDTH 2000 0
DWIDTH 24 0
BBX 20 8 4 20
BITMAP
0F00F0
0F00F0
0F00F0
0F00F0
F00F00
F00F00
F00F00
F00F00
ENDCHAR
STARTCHAR uni02F7
ENCODING 759
SWIDTH 2000 0
DWIDTH 24 0
BBX 20 8 4 -8
BITMAP
0FF0F0
0FF0F0
0FF0F0
0FF0F0
F0FF00
F0FF00
F0FF00
F0FF00
ENDCHAR
STARTCHAR uni02F9
ENCODING 761
SWIDTH 2000 0
DWIDTH 24 0
BBX 12 12 4 24
BITMAP
FFF0
FFF0
FFF0
FFF0
F000
F000
F000
F000
F000
F000
F000
F000
ENDCHAR
STARTCHAR uni02FA
ENCODING 762
SWIDTH 2000 0
DWIDTH 24 0
BBX 12 12 12 24
BITMAP
FFF0
FFF0
FFF0
FFF0
00F0
00F0
00F0
00F0
00F0
00F0
00F0
00F0
ENDCHAR
STARTCHAR uni02FB
ENCODING 763
SWIDTH 2000 0
DWIDTH 24 0
BBX 12 12 4 -4
BITMAP
F000
F000
F000
F000
F000
F000
F000
F000
FFF0
FFF0
FFF0
FFF0
ENDCHAR
STARTCHAR uni02FC
ENCODING 764
SWIDTH 2000 0
DWIDTH 24 0
BBX 12 12 12 -4
BITMAP
00F0
00F0
00F0
00F0
00F0
00F0
00F0
00F0
FFF0
FFF0
FFF0
FFF0
ENDCHAR
STARTCHAR uni02FD
ENCODING 765
SWIDTH 2000 0
DWIDTH 24 0
BBX 20 8 4 -8
BITMAP
F000F0
F000F0
F000F0
F000F0
FFFFF0
FFFFF0
FFFFF0
FFFFF0
ENDCHAR
STARTCHAR uni02FE
ENCODING 766
SWIDTH 2000 0
DWIDTH 24 0
BBX 20 8 4 -8
BITMAP
F00000
F00000
F00000
F00000
FFFFF0
FFFFF0
FFFFF0
FFFFF0
ENDCHAR
STARTCHAR gravecomb
ENCODING 768
SWIDTH 2000 0
DWIDTH 24 0
BBX 8 8 8 28
BITMAP
F0
F0
F0
F0
0F
0F
0F
0F
ENDCHAR
STARTCHAR acutecomb
ENCODING 769
SWIDTH 2000 0
DWIDTH 24 0
BBX 8 8 12 28
BITMAP
0F
0F
0F
0F
F0
F0
F0
F0
ENDCHAR
STARTCHAR uni0302
ENCODING 770
SWIDTH 2000 0
DWIDTH 24 0
BBX 12 8 8 28
BITMAP
0F00
0F00
0F00
0F00
F0F0
F0F0
F0F0
F0F0
ENDCHAR
STARTCHAR tildecomb
ENCODING 771
SWIDTH 2000 0
DWIDTH 24 0
BBX 20 8 4 28
BITMAP
0FF0F0
0FF0F0
0FF0F0
0FF0F0
F0FF00
F0FF00
F0FF00
F0FF00
ENDCHAR
STARTCHAR uni0304
ENCODING 772
SWIDTH 2000 0
DWIDTH 24 0
BBX 12 4 8 28
BITMAP
FFF0
FFF0
FFF0
FFF0
ENDCHAR
STARTCHAR uni0305
ENCODING 773
SWIDTH 2000 0
DWIDTH 24 0
BBX 20 4 4 28
BITMAP
FFFFF0
FFFFF0
FFFFF0
FFFFF0
ENDCHAR
STARTCHAR uni0306
ENCODING 774
SWIDTH 2000 0
DWIDTH 24 0
BBX 12 8 8 28
BITMAP
F0F0
F0F0
F0F0
F0F0
FFF0
FFF0
FFF0
FFF0
ENDCHAR
STARTCHAR uni0307
ENCODING 775
SWIDTH 2000 0
DWIDTH 24 0
BBX 4 4 12 28
BITMAP
F0
F0
F0
F0
ENDCHAR
STARTCHAR uni0308
ENCODING 776
SWIDTH 2000 0
DWIDTH 24 0
BBX 12 4 8 28
BITMAP
FFF0
FFF0
FFF0
FFF0
ENDCHAR
ENDFONT
